<svg width="32" height="32" viewBox="0 0 32 32" fill="none" xmlns="http://www.w3.org/2000/svg">
<path d="M6.68445 25.2486L1.3286 19.8928C0.694231 19.2406 0.298676 18.32 0.298676 17.4208C0.298676 17.0045 0.533935 16.3532 0.710527 15.9787L5.65453 5.67883L6.68445 25.2486Z" fill="#01579B"/>
<path d="M25.0184 6.70875L19.6625 1.35289C19.1947 0.883264 18.2205 0.322968 17.3965 0.322968C16.6883 0.322968 15.9932 0.464597 15.5425 0.734819L5.65454 5.67882L25.0184 6.70875Z" fill="#40C4FF"/>
<path d="M13.0705 31.6344H26.0483V26.0726L16.3665 22.9825L7.50845 26.0726L13.0705 31.6344Z" fill="#40C4FF"/>
<path d="M5.65454 22.3645C5.65454 24.0169 5.86165 24.4222 6.68447 25.2483L7.50847 26.0723H26.0483L16.9843 15.7728L5.65454 5.67883V22.3645Z" fill="#29B6F6"/>
<path d="M22.1342 5.67883H5.65454L26.0483 26.0726H31.6101V13.3008L25.0184 6.70876C24.0925 5.77928 23.2702 5.67883 22.1342 5.67883Z" fill="#01579B"/>
<path opacity="0.2" d="M6.89068 25.4545C6.06668 24.6273 5.86075 23.8122 5.86075 22.3645V5.88476L5.65482 5.67883V22.3645C5.65453 23.8122 5.65453 24.2137 6.89068 25.4545L7.50875 26.0726L6.89068 25.4545Z" fill="white"/>
<path opacity="0.2" d="M31.4042 13.0948V25.8667H25.8424L26.0483 26.0726H31.6104V13.3007L31.4042 13.0948Z" fill="#263238"/>
<path opacity="0.2" d="M25.0184 6.70876C23.9974 5.68772 23.1597 5.67883 21.9283 5.67883H5.65454L5.86047 5.88476H21.9283C22.544 5.88476 24.0948 5.78194 25.0184 6.70876Z" fill="white"/>
<path opacity="0.2" d="M31.4042 13.0948L25.0184 6.70875L19.6625 1.35289C19.1947 0.883264 18.2205 0.322968 17.3965 0.322968C16.6883 0.322968 15.9932 0.464597 15.5425 0.734819L5.65453 5.67882L0.710527 15.9787C0.533935 16.3532 0.298676 17.0042 0.298676 17.4207C0.298676 18.32 0.694231 19.2403 1.3286 19.8927L6.2643 24.7929C6.38253 24.9369 6.5209 25.0844 6.68445 25.2486L6.89038 25.4545L7.50845 26.0726L12.8643 31.4284L13.0702 31.6344H25.8421H26.048V26.0726H31.6098V26.0578V13.3007L31.4042 13.0948Z" fill="url(#paint0_radial_232_22)"/>
<defs>
<radialGradient id="paint0_radial_232_22" cx="0" cy="0" r="1" gradientUnits="userSpaceOnUse" gradientTransform="translate(15.9545 15.9787) scale(15.6558)">
<stop stop-color="white" stop-opacity="0.1"/>
<stop offset="1" stop-color="white" stop-opacity="0"/>
</radialGradient>
</defs>
</svg>
