<svg width="32" height="32" viewBox="0 0 32 32" fill="none" xmlns="http://www.w3.org/2000/svg">
<g clip-path="url(#clip0_312_239)">
<path d="M3.77717 10.422H5.52925V18.5318C4.63046 18.7025 3.97057 18.7707 3.25387 18.7707C1.11494 18.7707 0 17.8038 0 15.9492C0 14.163 1.18327 13.0027 3.0149 13.0027C3.2993 13.0027 3.51545 13.0253 3.77717 13.0936V10.422ZM3.77717 14.5042C3.5724 14.436 3.40176 14.4133 3.18561 14.4133C2.2982 14.4133 1.7862 14.9594 1.7862 15.915C1.7862 16.848 2.27545 17.3599 3.17424 17.3599C3.36756 17.3599 3.5269 17.3486 3.77717 17.3145V14.5042Z" fill="#092E20"/>
<path d="M8.31648 13.1277V17.1892C8.31648 18.5886 8.21409 19.2598 7.90694 19.8401C7.62246 20.3976 7.24697 20.7502 6.47339 21.1371L4.84646 20.3634C5.62011 19.9994 5.99552 19.6809 6.23442 19.1916C6.48477 18.691 6.56448 18.1107 6.56448 16.5863V13.1277H8.31648ZM6.56448 10.4313H8.31648V12.2289H6.56448V10.4313Z" fill="#092E20"/>
<path d="M9.37475 13.5259C10.1485 13.1619 10.8879 13.0027 11.6957 13.0027C12.5945 13.0027 13.1861 13.2415 13.4478 13.708C13.5956 13.9696 13.6411 14.3109 13.6411 15.0391V18.6C12.856 18.7138 11.8663 18.7935 11.1382 18.7935C9.67061 18.7935 9.01064 18.2813 9.01064 17.1437C9.01064 15.9149 9.88668 15.3461 12.037 15.164V14.7773C12.037 14.4587 11.8777 14.345 11.434 14.345C10.7855 14.345 10.0574 14.5271 9.37468 14.8798V13.5259H9.37475ZM12.1166 16.3133C10.9561 16.427 10.5807 16.6091 10.5807 17.0642C10.5807 17.4054 10.7969 17.5647 11.2747 17.5647C11.5364 17.5647 11.7753 17.542 12.1166 17.4852V16.3133Z" fill="#092E20"/>
<path d="M14.4945 13.4007C15.5297 13.1277 16.383 13.0027 17.2476 13.0027C18.1464 13.0027 18.7949 13.2074 19.1819 13.6056C19.5459 13.9809 19.6596 14.3905 19.6596 15.2667V18.7024H17.9075V15.3349C17.9075 14.6637 17.68 14.4133 17.0543 14.4133C16.8154 14.4133 16.5993 14.436 16.2465 14.5384V18.7024H14.4945V13.4007Z" fill="#092E20"/>
<path d="M20.3407 19.6581C20.9552 19.9767 21.5695 20.1245 22.2179 20.1245C23.3669 20.1245 23.8561 19.6581 23.8561 18.5431C23.8561 18.5317 23.8561 18.5204 23.8561 18.509C23.5149 18.6796 23.1735 18.7479 22.7185 18.7479C21.1826 18.7479 20.204 17.7353 20.204 16.1312C20.204 14.1401 21.649 13.0139 24.2087 13.0139C24.9597 13.0139 25.6537 13.0935 26.4956 13.2641L25.8957 14.5279C25.4292 14.4369 25.8583 14.5157 25.5058 14.4816V14.6637L25.5285 15.4031L25.5398 16.3588C25.5512 16.5977 25.5512 16.8366 25.5626 17.0755C25.5626 17.2917 25.5626 17.3941 25.5626 17.5534C25.5626 19.0552 25.4375 19.7605 25.0621 20.3407C24.516 21.1941 23.5717 21.615 22.2292 21.615C21.5466 21.615 20.9551 21.5126 20.3406 21.2736V19.6581H20.3407ZM23.8221 14.4247C23.7993 14.4247 23.7767 14.4247 23.7653 14.4247H23.6401C23.2989 14.4133 22.9007 14.5042 22.6275 14.6749C22.2067 14.9138 21.9904 15.3462 21.9904 15.9605C21.9904 16.8366 22.4228 17.3372 23.1964 17.3372C23.4353 17.3372 23.6288 17.2916 23.8562 17.2234V17.0982V16.6205C23.8562 16.4157 23.8449 16.188 23.8449 15.9492L23.8336 15.1415L23.8222 14.5612V14.4247H23.8221Z" fill="#092E20"/>
<path d="M29.2156 12.9798C30.9676 12.9798 32.0371 14.0835 32.0371 15.8696C32.0371 17.7014 30.9222 18.8504 29.1473 18.8504C27.3952 18.8504 26.3143 17.7468 26.3143 15.972C26.3144 14.1288 27.4294 12.9798 29.2156 12.9798ZM29.1813 17.4396C29.8526 17.4396 30.2509 16.8821 30.2509 15.915C30.2509 14.9594 29.864 14.3905 29.1929 14.3905C28.4988 14.3905 28.1005 14.9481 28.1005 15.915C28.1006 16.8821 28.4988 17.4396 29.1813 17.4396Z" fill="#092E20"/>
</g>
<defs>
<clipPath id="clip0_312_239">
<rect width="32" height="32" fill="white"/>
</clipPath>
</defs>
</svg>
