<svg xmlns="http://www.w3.org/2000/svg" height="800" width="1200" viewBox="-36.3393 -53.035 314.9406 318.21"><g fill="#a90533"><path d="M37.99 153.338C19.185 133.413 8.183 105.887 8.211 73.044 8.186 44 17.312 19.034 33.002.036l-.026.01H0V153.34h37.966l.023-.003zm173.669.013c8.1-8.676 15.358-18.893 21.935-30.577l-36.5-18.25c-12.818 20.84-31.563 40.02-57.485 40.149-37.727-.128-52.55-32.388-52.468-73.91H228.12c.188-4.688.188-6.868 0-9.125.92-24.703-5.627-45.468-17.537-61.638l-.061.046h31.741v153.296H211.59l.069.01z"/><path d="M89.423 35.176c1.56-18.8 16.383-31.442 33.762-31.48 17.497.038 30.14 12.68 30.568 31.48z"/></g><path d="M20.075 179.29v-6.386H.457v37.868h19.618v-6.388H7.757v-10.037h11.861v-6.387H7.757v-8.67zm33.305 15.513c4.891-.727 7.577-5.573 7.756-10.494-.18-8.05-5.398-11.382-12.774-11.406H38.325v37.868h7.3v-15.056l9.124 15.056h9.125L53.38 194.803zm-7.756-15.968h.912c3.983.15 6.972 1.058 6.844 5.931.128 4.465-2.76 5.676-6.844 5.475h-.912zm41.061-5.931h-7.299v37.868h17.793v-6.388H86.685zm47.905 30.111l3.194 7.756h7.756l-14.144-38.78h-5.93l-15.056 38.78h7.755l3.194-7.756zm-1.825-5.93h-9.125l4.107-14.144zm26.463 13.687h7.755v-25.55l20.075 26.461h5.474v-38.78h-7.755v25.55l-20.075-26.462h-5.474zm65.242-20.075v5.93h8.212c-.171 4.767-4.072 8.805-8.669 8.67-7.259.135-10.856-6.88-10.95-13.232.094-6.267 3.64-13.586 10.95-13.687 3.837.1 7.08 2.725 8.669 5.931l6.387-3.193c-2.809-5.918-8.483-9.199-15.056-9.125-11.312-.073-18.557 9.265-18.705 20.074.148 10.54 7.19 19.929 18.25 20.075 11.942-.146 17.465-9.686 17.336-20.531v-.912H224.47z"/></svg>