<svg width="32" height="32" viewBox="0 0 32 32" fill="none" xmlns="http://www.w3.org/2000/svg">
<path d="M5.00455 22.2099C2.52839 19.586 1.07961 15.9611 1.08328 11.6362C1.07986 7.81127 2.28164 4.5236 4.34767 2.02191L4.34433 2.02316H0.00183105V22.2103H5.00146L5.00455 22.2099V22.2099Z" fill="#A90533"/>
<path d="M27.8746 22.2115C28.9413 21.0691 29.8971 19.7236 30.7631 18.1849L25.9567 15.7816C24.2687 18.5259 21.8001 21.0519 18.3865 21.0687C13.4184 21.0519 11.4665 16.8037 11.4772 11.3357H30.0422C30.067 10.7183 30.067 10.4313 30.0422 10.1341C30.1633 6.88102 29.3012 4.14659 27.7328 2.01715L27.7247 2.02324H31.9047V22.2103H27.8655L27.8746 22.2115V22.2115Z" fill="#A90533"/>
<path d="M11.7777 6.64938C11.9833 4.17372 13.9351 2.50882 16.2237 2.50381C18.5279 2.50882 20.1927 4.17372 20.2491 6.64938H11.7777Z" fill="#A90533"/>
<path d="M2.64547 25.6274V24.7864H0.0619965V29.7731H2.64547V28.9319H1.02329V27.6102H2.5853V26.769H1.02329V25.6274H2.64547Z" fill="black"/>
<path d="M7.03135 27.6702C7.67538 27.5746 8.02903 26.9364 8.05272 26.2883C8.02903 25.2282 7.34177 24.7895 6.37047 24.7863H5.04869V29.773H6.00998V27.7904L7.21159 29.773H8.41321L7.03135 27.6702V27.6702ZM6.0099 25.5674H6.13006C6.65451 25.5871 7.04813 25.7068 7.03127 26.3485C7.04813 26.9365 6.66786 27.096 6.13006 27.0695H6.0099V25.5674Z" fill="black"/>
<path d="M11.4172 24.7864H10.4559V29.7731H12.799V28.9319H11.4172V24.7864V24.7864Z" fill="black"/>
<path d="M17.7256 28.7516L18.1462 29.773H19.1676L17.3051 24.6661H16.524L14.5414 29.773H15.5626L15.9833 28.7516H17.7256ZM17.4853 27.9707H16.2837L16.8244 26.1082L17.4853 27.9707V27.9707Z" fill="black"/>
<path d="M20.9701 29.7731H21.9914V26.4086L24.635 29.8932H25.3559V24.7864H24.3346V28.1509L21.691 24.6661H20.9701V29.7731Z" fill="black"/>
<path d="M29.5616 27.1295V27.9105H30.6431C30.6205 28.5382 30.1068 29.07 29.5015 29.052C28.5456 29.07 28.0719 28.1462 28.0596 27.3097C28.0719 26.4844 28.5389 25.5206 29.5015 25.5073C30.0067 25.5205 30.4338 25.8662 30.6431 26.2883L31.4842 25.8678C31.1143 25.0885 30.367 24.6565 29.5015 24.6661C28.0118 24.6565 27.0577 25.8862 27.0382 27.3097C27.0577 28.6977 27.9852 29.9341 29.4415 29.9532C31.0142 29.9341 31.7415 28.6778 31.7245 27.2496V27.1295H29.5616V27.1295Z" fill="black"/>
</svg>
