<svg width="32" height="32" viewBox="0 0 32 32" fill="none" xmlns="http://www.w3.org/2000/svg">
<g clip-path="url(#clip0_220_52)">
<path d="M28.9394 14.7693H19.0938L10.4793 23.3855L15.4004 28.3075L28.9394 14.7693Z" fill="#54C5F8"/>
<path d="M8.017 20.9241L3.09332 16.0004L19.0938 0H28.9394L8.017 20.9241Z" fill="#54C5F8"/>
<path d="M15.4004 28.3074L19.0938 32.0008H28.9394L20.3249 23.3855L15.4004 28.3074Z" fill="#01579B"/>
<path d="M15.4004 28.3074L22.7027 25.7806L20.3249 23.3855L15.4004 28.3074Z" fill="url(#paint0_linear_220_52)"/>
<path d="M15.401 18.4625L10.4781 23.3855L15.401 28.3084L20.3239 23.3855L15.401 18.4625Z" fill="#29B6F6"/>
<path d="M28.9394 14.7693L20.324 23.3846L28.9394 32H19.0938L15.4012 28.3075L10.4775 23.3838L19.0929 14.7684L28.9394 14.7693ZM19.0938 0L3.09332 16.0004L8.017 20.9241L28.9394 0H19.0938Z" fill="url(#paint1_radial_220_52)"/>
</g>
<defs>
<linearGradient id="paint0_linear_220_52" x1="16.837" y1="29.2586" x2="20.5037" y2="25.5917" gradientUnits="userSpaceOnUse">
<stop stop-color="#1A237E" stop-opacity="0.4"/>
<stop offset="1" stop-color="#1A237E" stop-opacity="0"/>
</linearGradient>
<radialGradient id="paint1_radial_220_52" cx="0" cy="0" r="1" gradientUnits="userSpaceOnUse" gradientTransform="translate(3.82067 2.18162) scale(39.1507 39.1507)">
<stop stop-color="white" stop-opacity="0.1"/>
<stop offset="1" stop-color="white" stop-opacity="0"/>
</radialGradient>
<clipPath id="clip0_220_52">
<rect width="32" height="32" fill="white"/>
</clipPath>
</defs>
</svg>
