<svg width="32" height="32" viewBox="0 0 32 32" fill="none" xmlns="http://www.w3.org/2000/svg">
<path d="M15.9108 0.889078C15.6354 0.90295 15.3656 0.971229 15.1171 1.08991L4.28749 6.26442C4.00719 6.39828 3.76091 6.59306 3.56692 6.83428C3.37294 7.0755 3.23624 7.35697 3.16699 7.65778L0.495244 19.281C0.433549 19.5488 0.426645 19.8262 0.474939 20.0967C0.523233 20.3672 0.625745 20.6253 0.776407 20.8558C0.812939 20.9122 0.852229 20.9667 0.894135 21.0193L8.38998 30.3392C8.58401 30.5804 8.83032 30.7751 9.11062 30.9089C9.39092 31.0427 9.69802 31.1121 10.0091 31.1121L22.0299 31.1093C22.3408 31.1095 22.6479 31.0403 22.9282 30.9067C23.2084 30.7732 23.4548 30.5787 23.649 30.3378L31.1421 21.0165C31.3362 20.7752 31.473 20.4936 31.5423 20.1927C31.6116 19.8918 31.6116 19.5792 31.5423 19.2783L28.8664 7.65501C28.7972 7.3542 28.6605 7.07273 28.4665 6.83151C28.2725 6.59029 28.0262 6.39551 27.7459 6.26165L16.9149 1.08991C16.6024 0.940619 16.2571 0.871563 15.9108 0.889078V0.889078Z" fill="#326CE5"/>
<path d="M16.0181 4.84464C15.6601 4.84467 15.3698 5.16711 15.3699 5.56486C15.3699 5.57096 15.3711 5.57679 15.3713 5.58286C15.3707 5.63691 15.3681 5.70201 15.3699 5.74907C15.3784 5.97847 15.4284 6.15405 15.4585 6.36541C15.513 6.81778 15.5587 7.19277 15.5305 7.54131C15.5031 7.67274 15.4063 7.79294 15.32 7.87649L15.3048 8.15073C14.9158 8.18296 14.5242 8.24198 14.133 8.33078C12.4499 8.71293 11.0008 9.5799 9.89757 10.7505C9.82598 10.7016 9.70074 10.6118 9.66349 10.5842C9.54776 10.5999 9.4308 10.6356 9.27845 10.5469C8.98837 10.3516 8.72418 10.0821 8.40449 9.75738C8.25801 9.60207 8.15193 9.45417 7.9779 9.30447C7.93838 9.27047 7.87806 9.22449 7.83385 9.18951C7.69779 9.08103 7.53731 9.02446 7.38233 9.01915C7.18307 9.01233 6.99124 9.09023 6.86571 9.24768C6.64254 9.52759 6.71399 9.95541 7.02499 10.2034C7.02815 10.2059 7.03151 10.2078 7.03468 10.2103C7.07742 10.2449 7.12975 10.2893 7.16903 10.3183C7.35372 10.4547 7.52242 10.5245 7.70643 10.6327C8.09411 10.8721 8.4155 11.0707 8.67042 11.31C8.76997 11.4161 8.78736 11.6031 8.80061 11.684L9.00837 11.8696C7.8962 13.5433 7.38147 15.6107 7.68566 17.7172L7.41419 17.7962C7.34264 17.8886 7.24154 18.0339 7.13579 18.0773C6.80227 18.1824 6.42691 18.2209 5.97374 18.2685C5.76099 18.2861 5.57741 18.2756 5.35186 18.3183C5.30222 18.3277 5.23305 18.3457 5.17873 18.3585C5.17684 18.3589 5.17508 18.3594 5.17319 18.3599C5.17023 18.3606 5.16634 18.362 5.16349 18.3626C4.78144 18.4549 4.536 18.8061 4.61502 19.1521C4.69405 19.4982 5.06723 19.7086 5.45158 19.6258C5.45436 19.6252 5.45839 19.6251 5.46128 19.6244C5.46562 19.6234 5.46944 19.6213 5.47374 19.6203C5.52732 19.6085 5.59446 19.5954 5.64133 19.5829C5.86309 19.5235 6.02369 19.4363 6.22305 19.3599C6.65195 19.206 7.00717 19.0775 7.35324 19.0275C7.49778 19.0161 7.65007 19.1166 7.72582 19.159L8.00837 19.1106C8.65857 21.1264 10.0212 22.7558 11.7466 23.7782L11.6289 24.0607C11.6713 24.1704 11.7181 24.3189 11.6865 24.4272C11.5607 24.7535 11.3452 25.0978 11.0998 25.4818C10.981 25.6591 10.8594 25.7968 10.7521 25.9998C10.7265 26.0483 10.6938 26.1229 10.669 26.1743C10.5024 26.5307 10.6246 26.9413 10.9447 27.0953C11.2667 27.2504 11.6664 27.0868 11.8394 26.7297C11.8397 26.7292 11.8405 26.7288 11.8408 26.7283C11.841 26.7279 11.8406 26.7273 11.8408 26.7269C11.8654 26.6763 11.9003 26.6097 11.9211 26.5621C12.0129 26.3517 12.0435 26.1714 12.1081 25.9679C12.2796 25.5371 12.3738 25.0851 12.6099 24.8034C12.6746 24.7263 12.78 24.6966 12.8893 24.6674L13.0361 24.4014C14.5403 24.9788 16.224 25.1337 17.9059 24.7518C18.2896 24.6647 18.66 24.552 19.0181 24.4167C19.0593 24.4899 19.136 24.6305 19.1566 24.666C19.2676 24.7021 19.3888 24.7208 19.4876 24.8668C19.6642 25.1686 19.785 25.5256 19.9322 25.9568C19.9968 26.1603 20.0287 26.3406 20.1206 26.551C20.1415 26.599 20.1762 26.6665 20.2009 26.7172C20.3735 27.0755 20.7745 27.2396 21.097 27.0843C21.417 26.9301 21.5393 26.5196 21.3726 26.1632C21.3479 26.1119 21.3138 26.0373 21.2881 25.9887C21.1809 25.7857 21.0593 25.6494 20.9405 25.4721C20.6951 25.0882 20.4915 24.7692 20.3657 24.443C20.3131 24.2747 20.3746 24.1701 20.4156 24.0607C20.391 24.0326 20.3385 23.8737 20.3075 23.7989C22.1007 22.7402 23.4233 21.0501 24.0444 19.0981C24.1283 19.1113 24.274 19.1371 24.3214 19.1466C24.4189 19.0823 24.5085 18.9984 24.6843 19.0122C25.0303 19.0623 25.3856 19.1908 25.8145 19.3446C26.0138 19.421 26.1744 19.5097 26.3962 19.569C26.443 19.5816 26.5102 19.5933 26.5638 19.605C26.5681 19.6061 26.5719 19.6082 26.5762 19.6092C26.5791 19.6098 26.5832 19.6099 26.5859 19.6106C26.9703 19.6933 27.3436 19.483 27.4225 19.1369C27.5014 18.7909 27.2561 18.4396 26.874 18.3474C26.8184 18.3348 26.7396 18.3133 26.6857 18.3031C26.4601 18.2604 26.2765 18.2709 26.0638 18.2532C25.6106 18.2057 25.2352 18.1671 24.9017 18.0621C24.7657 18.0093 24.669 17.8475 24.6219 17.7809L24.3602 17.7047C24.4959 16.7228 24.4593 15.7009 24.2244 14.6784C23.9874 13.6464 23.5685 12.7025 23.0098 11.871C23.0769 11.8099 23.2037 11.6976 23.2397 11.6646C23.2502 11.5483 23.2411 11.4263 23.3616 11.2975C23.6165 11.0582 23.9379 10.8597 24.3255 10.6203C24.5095 10.512 24.6796 10.4422 24.8643 10.3059C24.9061 10.275 24.9631 10.2262 25.007 10.1909C25.3179 9.94286 25.3895 9.51507 25.1663 9.23522C24.943 8.95537 24.5104 8.92901 24.1995 9.17705C24.1552 9.2121 24.0952 9.25782 24.0555 9.292C23.8814 9.44172 23.774 9.5896 23.6275 9.74491C23.3078 10.0696 23.0436 10.3405 22.7535 10.5358C22.6278 10.6089 22.4437 10.5836 22.3602 10.5787L22.1136 10.7546C20.7078 9.28046 18.7938 8.33797 16.7327 8.15488C16.727 8.06851 16.7194 7.91239 16.7175 7.86541C16.6331 7.78467 16.5312 7.71574 16.5056 7.54131C16.4774 7.19277 16.5245 6.81778 16.579 6.36541C16.6091 6.15405 16.6591 5.97847 16.6677 5.74907C16.6696 5.69692 16.6665 5.62124 16.6663 5.56486C16.6662 5.16711 16.3761 4.8446 16.0181 4.84464H16.0181ZM15.2064 9.87234L15.0139 13.2726L15.0001 13.2795C14.9871 13.5837 14.7368 13.8266 14.4294 13.8266C14.3035 13.8266 14.1873 13.7862 14.0929 13.7172L14.0873 13.72L11.2992 11.7435C12.1561 10.9009 13.2522 10.2782 14.5153 9.99145C14.746 9.93906 14.9767 9.90019 15.2064 9.87234ZM16.8311 9.87234C18.3058 10.0537 19.6696 10.7215 20.7147 11.7449L17.9447 13.7089L17.935 13.7047C17.6891 13.8843 17.3427 13.8398 17.151 13.5995C17.0725 13.501 17.0313 13.3853 17.0264 13.2685L17.0236 13.2671L16.8311 9.87234ZM10.2881 13.0136L12.8339 15.2906L12.8311 15.3045C13.0609 15.5042 13.0947 15.8509 12.9031 16.0912C12.8246 16.1896 12.7195 16.2556 12.6067 16.2865L12.6039 16.2975L9.34078 17.2394C9.1747 15.7207 9.53263 14.2444 10.2881 13.0136ZM21.73 13.015C22.1082 13.6281 22.3946 14.3128 22.5652 15.0552C22.7336 15.7886 22.7759 16.5207 22.7064 17.2283L19.4267 16.2837L19.4239 16.2698C19.1302 16.1896 18.9497 15.8908 19.0181 15.5912C19.0461 15.4684 19.1112 15.3646 19.1995 15.2878L19.1981 15.2809L21.73 13.015H21.73ZM15.4959 15.4665H16.5388L17.187 16.2768L16.9544 17.2878L16.0181 17.738L15.079 17.2865L14.8463 16.2754L15.4959 15.4665ZM18.8394 18.2394C18.8837 18.2371 18.9278 18.2411 18.971 18.2491L18.9765 18.2421L22.3519 18.8128C21.8579 20.2006 20.9126 21.4029 19.6496 22.2075L18.3394 19.0427L18.3435 19.0372C18.2232 18.7575 18.3436 18.4295 18.6206 18.2962C18.6915 18.262 18.7655 18.2431 18.8394 18.2394H18.8394ZM13.1704 18.2532C13.428 18.2568 13.659 18.4356 13.7189 18.6978C13.7469 18.8206 13.7333 18.9422 13.687 19.0496L13.6967 19.0621L12.4003 22.195C11.1883 21.4173 10.2229 20.2527 9.70643 18.8239L13.0527 18.256L13.0582 18.2629C13.0957 18.256 13.1336 18.2527 13.1704 18.2532V18.2532ZM15.9973 19.6258C16.087 19.6225 16.1781 19.6409 16.2646 19.6826C16.378 19.7372 16.4657 19.8232 16.5208 19.9264H16.5333L18.1829 22.907C17.9688 22.9787 17.7487 23.0401 17.5236 23.0912C16.262 23.3776 15.0044 23.2908 13.8657 22.9028L15.5111 19.9277H15.5139C15.6126 19.7432 15.7999 19.6331 15.9973 19.6258Z" fill="white" stroke="white" stroke-width="0.25"/>
</svg>
