<svg width="32" height="32" viewBox="0 0 32 32" fill="none" xmlns="http://www.w3.org/2000/svg">
<path fill-rule="evenodd" clip-rule="evenodd" d="M13.0164 2C10.8193 2 9.03825 3.72453 9.03825 5.85185V8.51852H15.9235V9.25926H5.97814C3.78107 9.25926 2 10.9838 2 13.1111L2 18.8889C2 21.0162 3.78107 22.7407 5.97814 22.7407H8.27322V19.4815C8.27322 17.3542 10.0543 15.6296 12.2514 15.6296H19.5956C21.4547 15.6296 22.9617 14.1704 22.9617 12.3704V5.85185C22.9617 3.72453 21.1807 2 18.9836 2H13.0164ZM12.0984 6.74074C12.8589 6.74074 13.4754 6.14378 13.4754 5.40741C13.4754 4.67103 12.8589 4.07407 12.0984 4.07407C11.3378 4.07407 10.7213 4.67103 10.7213 5.40741C10.7213 6.14378 11.3378 6.74074 12.0984 6.74074Z" fill="url(#paint0_linear_206_1396)"/>
<path fill-rule="evenodd" clip-rule="evenodd" d="M18.9836 30C21.1807 30 22.9618 28.2755 22.9618 26.1482V23.4815L16.0765 23.4815L16.0765 22.7408L26.0219 22.7408C28.2189 22.7408 30 21.0162 30 18.8889V13.1111C30 10.9838 28.2189 9.25928 26.0219 9.25928L23.7268 9.25928V12.5185C23.7268 14.6459 21.9457 16.3704 19.7486 16.3704L12.4044 16.3704C10.5453 16.3704 9.03827 17.8296 9.03827 19.6296L9.03827 26.1482C9.03827 28.2755 10.8193 30 13.0164 30H18.9836ZM19.9017 25.2593C19.1411 25.2593 18.5246 25.8562 18.5246 26.5926C18.5246 27.329 19.1411 27.9259 19.9017 27.9259C20.6622 27.9259 21.2787 27.329 21.2787 26.5926C21.2787 25.8562 20.6622 25.2593 19.9017 25.2593Z" fill="url(#paint1_linear_206_1396)"/>
<defs>
<linearGradient id="paint0_linear_206_1396" x1="12.4809" y1="2" x2="12.4809" y2="22.7407" gradientUnits="userSpaceOnUse">
<stop stop-color="#327EBD"/>
<stop offset="1" stop-color="#1565A7"/>
</linearGradient>
<linearGradient id="paint1_linear_206_1396" x1="19.5191" y1="9.25928" x2="19.5191" y2="30" gradientUnits="userSpaceOnUse">
<stop stop-color="#FFDA4B"/>
<stop offset="1" stop-color="#F9C600"/>
</linearGradient>
</defs>
</svg>
