<svg width="32" height="32" viewBox="0 0 32 32" fill="none" xmlns="http://www.w3.org/2000/svg">
<path d="M30.9108 2.34563C30.5579 1.86367 30.132 1.43969 29.6484 1.08896C28.1535 0 26.0182 0 21.7478 0H10.2462C5.97614 0 3.84109 0 2.34563 1.08896C1.86264 1.43844 1.43844 1.86264 1.08896 2.34563C0 3.84081 0 5.97587 0 10.2519V21.7478C0 26.0179 0 28.1519 1.08896 29.6484C1.43969 30.132 1.86367 30.5579 2.34563 30.9108C3.84081 32 5.97587 32 10.2462 32H21.7478C26.0179 32 28.1519 32 29.6484 30.9108C30.1308 30.5565 30.5565 30.1308 30.9108 29.6484C32 28.1535 32 26.0182 32 21.7478V10.2519C31.9986 5.97587 31.9986 3.84081 30.9108 2.34563ZM14.8192 21.7654C14.8192 22.7662 14.8192 23.2723 14.6564 23.6677C14.438 24.1943 14.0195 24.6128 13.4928 24.8312C13.0971 24.9941 12.5973 24.9941 11.5903 24.9941C10.5895 24.9941 10.0834 24.9941 9.68806 24.8312C9.16137 24.6128 8.74288 24.1943 8.52447 23.6677C8.36165 23.2723 8.36165 22.7662 8.36165 21.7654V11.212C8.36165 10.0017 8.36165 9.39689 8.59448 8.93748C8.80199 8.53219 9.13168 8.2024 9.53691 7.99478C9.99551 7.76222 10.6017 7.76222 11.806 7.76222H14.8197L14.8192 21.7654ZM21.6846 15.487C19.5864 15.487 17.8855 13.7861 17.8855 11.688C17.8855 9.58983 19.5864 7.88895 21.6846 7.88895C23.7827 7.88895 25.4836 9.58983 25.4836 11.688C25.4843 12.6949 25.085 13.6608 24.3735 14.3733C23.662 15.0857 22.6966 15.4863 21.6897 15.487H21.6846Z" fill="#D44140"/>
</svg>
