<svg width="32" height="32" viewBox="0 0 32 32" fill="none" xmlns="http://www.w3.org/2000/svg">
<g clip-path="url(#clip0_311_230)">
<path d="M27.6068 4.2305C24.6509 -0.0271262 18.7661 -1.27458 14.5356 1.41016L7.07797 6.18304C5.04407 7.45762 3.6339 9.54576 3.22712 11.9051C2.87458 13.8847 3.17288 15.9186 4.12204 17.6813C3.47119 18.6576 3.03729 19.7424 2.84746 20.8813C2.41356 23.2949 2.98305 25.7898 4.39322 27.7695C7.37627 32.0271 13.2339 33.2746 17.4644 30.5898L24.922 25.8441C26.9559 24.5695 28.3661 22.4813 28.7729 20.122C29.1254 18.1424 28.8271 16.1085 27.878 14.3458C28.5288 13.3695 28.9627 12.2847 29.1525 11.1458C29.6136 8.70508 29.0441 6.21016 27.6068 4.2305Z" fill="#FF3E00"/>
<path d="M13.8034 28.1763C11.3898 28.8 8.86779 27.8509 7.45762 25.817C6.58982 24.6237 6.2644 23.1322 6.50847 21.6678C6.56271 21.4237 6.61694 21.2068 6.67118 20.9627L6.80677 20.5288L7.18643 20.8C8.08135 21.4509 9.05762 21.939 10.1152 22.2644L10.3864 22.3458L10.3593 22.617C10.3322 22.9966 10.4407 23.4034 10.6576 23.7288C11.0915 24.3526 11.8508 24.6509 12.583 24.461C12.7458 24.4068 12.9085 24.3526 13.0441 24.2712L20.4746 19.5254C20.8542 19.2814 21.0983 18.9288 21.1797 18.4949C21.261 18.061 21.1525 17.6 20.9085 17.2475C20.4746 16.6237 19.7152 16.3526 18.983 16.5424C18.8203 16.5966 18.6576 16.6509 18.522 16.7322L15.6746 18.5492C15.2136 18.8475 14.6983 19.0644 14.1559 19.2C11.7424 19.8237 9.22033 18.8746 7.81016 16.8407C6.96948 15.6475 6.61694 14.1559 6.88813 12.6915C7.1322 11.2814 7.99999 10.0068 9.22033 9.24747L16.678 4.50171C17.139 4.20341 17.6542 3.98646 18.1966 3.82374C20.6102 3.20002 23.1322 4.14917 24.5424 6.18307C25.4102 7.37629 25.7356 8.86781 25.4915 10.3322C25.4373 10.5763 25.383 10.7932 25.3017 11.0373L25.1661 11.4712L24.7864 11.2C23.8915 10.5492 22.9152 10.061 21.8576 9.73561L21.5864 9.65425L21.6136 9.38307C21.6407 9.00341 21.5322 8.59663 21.3152 8.2712C20.8813 7.64747 20.122 7.37629 19.3898 7.56612C19.2271 7.62035 19.0644 7.67459 18.9288 7.75595L11.4983 12.5017C11.1186 12.7458 10.8746 13.0983 10.7932 13.5322C10.7119 13.9661 10.8203 14.4271 11.0644 14.7797C11.4983 15.4034 12.2576 15.6746 12.9898 15.4848C13.1525 15.4305 13.3152 15.3763 13.4508 15.2949L16.2983 13.478C16.7593 13.1797 17.2746 12.9627 17.8169 12.8C20.2305 12.1763 22.7525 13.1254 24.1627 15.1593C25.0305 16.3526 25.3559 17.8441 25.1119 19.3085C24.8678 20.7187 24 21.9932 22.7797 22.7526L15.322 27.4983C14.861 27.7966 14.3458 28.0136 13.8034 28.1763Z" fill="white"/>
</g>
<defs>
<clipPath id="clip0_311_230">
<rect width="32" height="32" fill="white"/>
</clipPath>
</defs>
</svg>
