<svg xmlns="http://www.w3.org/2000/svg" height="800" width="1200" version="1.1" id="logo-typescript" viewBox="-32.475 -12.975 281.45 77.85"><style id="style4607">.st0{fill:#000}</style><path id="path4609" d="M26.7 4.7H15.6V39h-4.5V4.7H0V.6h26.6v4.1z" class="st0"/><path id="path4611" d="M48 11.6L35.4 43.4c-2.3 5.7-5.4 8.5-9.5 8.5-1.1 0-2.1-.1-2.9-.3v-3.9c.9.3 1.8.5 2.6.5 2.2 0 3.9-1.3 5-4l2.2-5.2-10.7-27.4H27l7.4 21.1c.1.3.3 1 .6 2.1h.2c.1-.4.3-1.1.5-2l7.8-21.2zm7.4 23.5h-.1v16.6h-4.4v-40h4.4v4.8h.1c2.2-3.6 5.3-5.5 9.5-5.5 3.5 0 6.3 1.2 8.3 3.7 2 2.5 3 5.7 3 9.9 0 4.6-1.1 8.3-3.3 11-2.2 2.7-5.3 4.1-9.2 4.1-3.6 0-6.3-1.5-8.3-4.6zM55.3 24v3.8c0 2.3.7 4.2 2.2 5.8 1.5 1.6 3.3 2.4 5.6 2.4 2.7 0 4.7-1 6.3-3.1 1.6-2.1 2.3-4.9 2.3-8.5 0-3.1-.7-5.4-2.1-7.2-1.4-1.7-3.3-2.6-5.7-2.6-2.6 0-4.6.9-6.2 2.7-1.6 1.8-2.4 4-2.4 6.7zm48 2.4H83.9c.1 3.1.9 5.4 2.5 7.1 1.6 1.7 3.7 2.5 6.5 2.5 3.1 0 5.9-1 8.5-3.1V37c-2.4 1.8-5.6 2.6-9.6 2.6-3.9 0-6.9-1.2-9.1-3.7-2.2-2.5-3.3-6-3.3-10.5 0-4.3 1.2-7.7 3.6-10.4 2.4-2.7 5.4-4 9-4 3.6 0 6.4 1.2 8.3 3.5 2 2.3 2.9 5.5 2.9 9.7v2.2zm-4.5-3.7c0-2.5-.6-4.5-1.8-5.9-1.2-1.4-2.9-2.1-5-2.1s-3.8.7-5.3 2.2c-1.4 1.5-2.3 3.4-2.7 5.8zm6.9 15v-3c2.8 1.8 5.5 2.6 8.4 2.6 3 0 5.3-.6 6.8-1.9 1.6-1.2 2.3-3 2.3-5.2 0-2-.5-3.5-1.6-4.7-1-1.2-3.3-2.8-6.8-4.8-3.9-2.3-6.4-4.2-7.4-5.7s-1.6-3.3-1.6-5.3c0-2.7 1.1-5 3.2-6.9 2.1-1.9 4.9-2.8 8.4-2.8 2.3 0 4.6.4 6.9 1.2V4c-2.3-1-4.7-1.5-7.2-1.5-2.6 0-4.7.7-6.2 2s-2.3 3-2.3 5 .5 3.5 1.6 4.7c1 1.2 3.3 2.7 6.8 4.7 3.6 2 6 3.8 7.2 5.4 1.2 1.6 1.8 3.4 1.8 5.5 0 2.9-1 5.3-3.1 7.2-2 1.9-4.9 2.8-8.7 2.8-1.3 0-2.8-.2-4.6-.6-1.6-.5-2.9-1-3.9-1.5zm43.5.1c-2 1.2-4.5 1.9-7.3 1.9-3.7 0-6.7-1.3-9-3.8-2.3-2.6-3.4-5.9-3.4-10.1 0-4.4 1.3-7.9 3.9-10.7 2.6-2.8 5.9-4.2 9.9-4.2 2.1 0 4.1.4 6.1 1.3V15c-2-1.2-4.1-1.8-6.5-1.8-3.2 0-5.8 1.2-7.8 3.5s-3 5.3-3 9c0 3.6.9 6.4 2.7 8.6 1.8 2.2 4.2 3.2 7.2 3.2 2.7 0 5.1-.7 7.2-2.2zm16.6-23.6c-.8-.6-1.8-.9-2.9-.9-2.2 0-4 1.1-5.4 3.3-1.5 2.2-2.2 5.4-2.2 9.5V39h-2.4V11.6h2.4v6.1h.1c.6-2.1 1.6-3.7 3-4.9 1.4-1.2 2.9-1.7 4.7-1.7 1 0 1.9.2 2.7.5zm4.2-9.5c-.5 0-1-.2-1.4-.6-.4-.4-.6-.9-.6-1.5s.2-1.1.6-1.4c.4-.4.9-.5 1.4-.5.6 0 1 .2 1.5.5.4.4.6.8.6 1.4 0 .6-.2 1.1-.6 1.5-.5.4-.9.6-1.5.6zm-1.2 34.4V11.7h2.5v27.4zm11.1-4.9h-.1v17.5h-2.5v-40h2.5v5.7h.1c1-2 2.4-3.6 4.2-4.7 1.8-1.1 3.8-1.6 6-1.6 3.5 0 6.2 1.2 8.2 3.6 2 2.4 2.9 5.7 2.9 9.8 0 4.6-1.1 8.3-3.4 11.1-2.2 2.8-5.2 4.2-8.9 4.2-4-.1-7-1.9-9-5.6zm-.1-10.2v3.5c0 2.8.9 5.1 2.6 7.1 1.7 2 4 3 6.8 3s5.1-1.2 6.8-3.6c1.7-2.4 2.6-5.6 2.6-9.5 0-3.4-.8-6.2-2.4-8.2-1.6-2-3.8-3-6.4-3-3.2 0-5.7 1.1-7.4 3.2-1.7 2.1-2.6 4.6-2.6 7.5zm36.7 14.7c-1.3.6-2.5.9-3.6.9-4.1 0-6.1-2.4-6.1-7.3V13.9h-4.9v-2.3h4.9V4.5c.4-.1.8-.3 1.2-.4.4-.1.8-.3 1.2-.4v8h7.2V14h-7.2v18.1c0 1.9.3 3.3.9 4.1.6.8 1.6 1.3 3 1.3 1 0 2.1-.3 3.3-1v2.2z" class="st0"/></svg>