<svg width="64" height="32" viewBox="0 0 64 32" fill="none" xmlns="http://www.w3.org/2000/svg">
<path fill-rule="evenodd" clip-rule="evenodd" d="M8 8C3.58096 8 0 11.581 0 16C0 20.419 3.58096 24 8 24C12.4191 24 16 20.419 16 16C16 11.581 12.4191 8 8 8Z" fill="black"/>
<path d="M0 7V4L8 0L16 4V7L8 3L0 7Z" fill="black"/>
<path d="M16 25V28L8 32L3.49691e-07 28L6.11959e-07 25L8 29L16 25Z" fill="black"/>
<path d="M56.0148 24H52.5926L56.608 16.0076L52.5926 8H56.0148L58.3039 12.6019L60.6538 8H64L56.0148 24Z" fill="black"/>
<path fill-rule="evenodd" clip-rule="evenodd" d="M45.803 17.7219C47.8635 17.1505 49.3806 15.2457 49.3957 12.9905V12.9524V12.9143C49.373 10.1943 47.1842 8 44.4897 8H38.0741V10.88L40.4894 14.8495H38.0816V24H41.1007V17.8971H42.3687L46.0799 24H49.6297L45.803 17.7219ZM44.0519 14.8571H44.4972C45.5388 14.8571 46.3841 14.0038 46.3841 12.9524C46.3841 11.901 45.5388 11.0476 44.4972 11.0476H41.7196L44.0519 14.8571Z" fill="black"/>
<path fill-rule="evenodd" clip-rule="evenodd" d="M28 8C23.581 8 20 11.581 20 16C20 20.419 23.581 24 28 24C32.4191 24 36 20.419 36 16C36 11.581 32.4191 8 28 8ZM23.0476 16C23.0476 18.7352 25.2648 20.9524 28 20.9524C30.7352 20.9524 32.9524 18.7352 32.9524 16C32.9524 13.2648 30.7352 11.0476 28 11.0476C25.2648 11.0476 23.0476 13.2648 23.0476 16Z" fill="black"/>
</svg>
