<svg preserveAspectRatio="none" width="100%" height="100%" overflow="visible" style="display: block;" viewBox="0 0 11.6667 11.6667" fill="none" xmlns="http://www.w3.org/2000/svg">
<path id="Vector" d="M8.5 3.16667V1.83333C8.5 1.47971 8.35952 1.14057 8.10948 0.890524C7.85943 0.640476 7.52029 0.5 7.16667 0.5H1.83333C1.47971 0.5 1.14057 0.640476 0.890524 0.890524C0.640476 1.14057 0.5 1.47971 0.5 1.83333V7.16667C0.5 7.52029 0.640476 7.85943 0.890524 8.10948C1.14057 8.35952 1.47971 8.5 1.83333 8.5H3.16667M3.16667 4.5C3.16667 4.14638 3.30714 3.80724 3.55719 3.55719C3.80724 3.30714 4.14638 3.16667 4.5 3.16667H9.83333C10.187 3.16667 10.5261 3.30714 10.7761 3.55719C11.0262 3.80724 11.1667 4.14638 11.1667 4.5V9.83333C11.1667 10.187 11.0262 10.5261 10.7761 10.7761C10.5261 11.0262 10.187 11.1667 9.83333 11.1667H4.5C4.14638 11.1667 3.80724 11.0262 3.55719 10.7761C3.30714 10.5261 3.16667 10.187 3.16667 9.83333V4.5Z" stroke="var(--stroke-0, #0F172A)" stroke-linecap="round" stroke-linejoin="round"/>
</svg>
