<svg preserveAspectRatio="xMidYMid meet" width="100%" height="100%" overflow="visible" style="display: block;" viewBox="0 0 13.6678 5.00234" fill="none" xmlns="http://www.w3.org/2000/svg">
  <path id="Vector" d="M7.62001 0.656502C6.89734 0.325168 5.92334 0.529169 5.22601 1.2205C4.37001 2.06917 4.25467 3.3305 4.96734 4.03784C5.68067 4.7445 6.95267 4.62983 7.80801 3.78183C8.1633 3.43507 8.40465 2.98839 8.50001 2.50117H6.88201M2.83333 4.50116H1.83333M3.16667 0.501163H1.83333M2.5 2.50116H0.5M9.63001 4.03783C10.3373 4.7445 11.5987 4.62983 12.4473 3.78183C13.2953 2.93317 13.41 1.67183 12.7033 0.964501C11.996 0.257834 10.7347 0.372502 9.88602 1.2205C9.03802 2.06917 8.92335 3.3305 9.63001 4.03783Z" stroke="var(--stroke-0, #0F172A)" stroke-linecap="round" stroke-linejoin="round"/>
</svg>
