<svg preserveAspectRatio="none" width="100%" height="100%" overflow="visible" style="display: block;" viewBox="0 0 13 13" fill="none" xmlns="http://www.w3.org/2000/svg">
<path id="Vector" d="M8.5 10.1667C8.71333 10.38 9.00267 10.5 9.30467 10.5H9.66667C10.1267 10.5 10.5 10.1267 10.5 9.66667V9.5C10.5 9.23478 10.3946 8.98043 10.2071 8.79289C10.0196 8.60536 9.76522 8.5 9.5 8.5C9.23478 8.5 8.98043 8.39464 8.79289 8.20711C8.60536 8.01957 8.5 7.76522 8.5 7.5V7.33333C8.5 6.87333 8.87333 6.5 9.33333 6.5H9.69533C9.99733 6.5 10.2867 6.62 10.5 6.83333M4.5 6.5H7.16667M5.83333 6.5V10.5M12.5 11.1667V1.83333C12.5 1.47971 12.3595 1.14057 12.1095 0.890524C11.8594 0.640476 11.5203 0.5 11.1667 0.5H1.83333C1.47971 0.5 1.14057 0.640476 0.890524 0.890524C0.640476 1.14057 0.5 1.47971 0.5 1.83333V11.1667C0.5 11.5203 0.640476 11.8594 0.890524 12.1095C1.14057 12.3595 1.47971 12.5 1.83333 12.5H11.1667C11.5203 12.5 11.8594 12.3595 12.1095 12.1095C12.3595 11.8594 12.5 11.5203 12.5 11.1667Z" stroke="var(--stroke-0, #0F172A)" stroke-linecap="round" stroke-linejoin="round"/>
</svg>
