<svg width="24" height="24" viewBox="0 0 24 24" fill="none" xmlns="http://www.w3.org/2000/svg">
<path fill-rule="evenodd" clip-rule="evenodd" d="M17.7071 6.29289C18.0676 6.65338 18.0953 7.22061 17.7903 7.6129L17.7071 7.70711L12.7071 12.7071C12.3166 13.0976 11.6834 13.0976 11.2929 12.7071C10.9324 12.3466 10.9047 11.7794 11.2097 11.3871L11.2929 11.2929L16.2929 6.29289C16.6834 5.90237 17.3166 5.90237 17.7071 6.29289ZM2.6129 11.2097L2.70711 11.2929L7.70711 16.2929C8.09763 16.6834 8.09763 17.3166 7.70711 17.7071C7.34662 18.0676 6.77939 18.0953 6.3871 17.7903L6.29289 17.7071L1.29289 12.7071C0.902369 12.3166 0.902369 11.6834 1.29289 11.2929C1.62334 10.9624 2.12751 10.9116 2.5114 11.1404L2.6129 11.2097ZM22.7071 6.29289C22.3166 5.90237 21.6834 5.90237 21.2929 6.29289L12 15.585L7.70711 11.2929L7.6129 11.2097C7.22061 10.9047 6.65338 10.9324 6.29289 11.2929C5.90237 11.6834 5.90237 12.3166 6.29289 12.7071L11.2929 17.7071L11.3871 17.7903C11.7794 18.0953 12.3466 18.0676 12.7071 17.7071L22.7071 7.70711L22.7903 7.6129C23.0953 7.22061 23.0676 6.65338 22.7071 6.29289Z" fill="#059669"/>
</svg>
