<svg width="16" height="16" viewBox="0 0 16 16" fill="none" xmlns="http://www.w3.org/2000/svg">
<path fill-rule="evenodd" clip-rule="evenodd" d="M2.67311 4.50861V11.7547C4.17033 11.1944 5.83007 11.1926 7.33724 11.7568V4.53539C5.86645 3.81046 4.14513 3.80154 2.67311 4.50861ZM8.33648 13.3863C8.30093 13.4058 8.26381 13.4219 8.22568 13.4346C8.15612 13.4594 8.08134 13.4729 8.00355 13.4729C7.9308 13.4729 7.8611 13.4615 7.79601 13.4405C7.75228 13.4269 7.71003 13.4088 7.67017 13.3863C6.01773 12.4343 3.98549 12.4343 2.3397 13.3863H2.33904C2.01255 13.566 1.6061 13.4595 1.4262 13.14C1.3483 13.0038 1.32151 12.8537 1.3405 12.7119V4.24806C1.33593 4.21678 1.33357 4.18482 1.33357 4.15234C1.32691 3.90603 1.46017 3.68635 1.66673 3.56652L1.66007 3.56053C3.60569 2.44216 5.97775 2.37559 7.99 3.38079C9.98893 2.36893 12.3743 2.4355 14.3199 3.56053C14.3819 3.59609 14.436 3.6405 14.4816 3.69134C14.5961 3.81026 14.6666 3.97229 14.6666 4.15311V12.8072C14.6666 13.1733 14.3668 13.4729 14.0003 13.4729C13.8988 13.4729 13.8032 13.4507 13.7178 13.4111C13.7005 13.4034 13.6836 13.3951 13.667 13.3863C12.0145 12.4343 9.98227 12.4343 8.33648 13.3863ZM13.334 11.7598V4.53537C11.8632 3.81046 10.1419 3.80154 8.66986 4.50863V11.7579C10.1768 11.1975 11.8318 11.2007 13.334 11.7598Z" fill="#212B36"/>
</svg>
