<svg width="1904" height="1232" viewBox="0 0 1904 1232" fill="none" xmlns="http://www.w3.org/2000/svg">
<g clip-path="url(#clip0_6187_43298)">
<rect width="1904" height="1232" fill="#F8FAFC"/>
<path d="M44.4169 487.665L0 513.333L44.4169 538.999M44.4169 487.665L0 461.999L44.4169 436.332M44.4169 487.665L88.8338 461.999M44.4169 538.999L0 564.666L44.4169 590.332M44.4169 538.999L88.8338 564.666M88.8338 461.999L44.4169 436.332M88.8338 461.999L133.25 436.332M88.8338 461.999L177.668 513.333M88.8338 564.666L44.4169 590.332M88.8338 564.666L177.668 513.333M88.8338 564.666L177.668 615.999M44.4169 436.332L0 410.666L44.4169 384.999M44.4169 436.332L88.8338 410.666M133.25 436.332L88.8338 410.666M133.25 436.332L177.668 410.666M177.668 513.333L266.501 564.666M177.668 513.333L266.501 461.999M177.668 410.666L133.251 384.999M177.668 410.666L266.501 461.999M177.668 410.666L266.501 359.333M44.4169 384.999L88.8338 359.333M44.4169 384.999L88.8338 410.666M88.8338 410.666L133.251 384.999M88.8338 359.333L133.251 384.999M88.8338 359.333L0 308L88.8338 256.667M88.8338 359.333L177.668 308M266.501 461.999L355.335 513.333M266.501 461.999L355.335 410.666M266.501 359.333L355.335 410.666M266.501 359.333L177.668 308M266.501 359.333L399.751 282.333M88.8338 256.667L177.668 308M88.8338 256.667L177.668 205.332M177.668 308L266.501 256.667M44.4169 590.332L0 615.999L88.8338 667.333M177.668 615.999L222.084 590.332L266.501 564.666M177.668 615.999L266.501 564.666M266.501 564.666L355.335 513.333M355.335 513.333L399.751 487.665M355.335 513.333L399.751 538.999M488.585 590.332L533.002 615.999M488.585 590.332L444.169 564.666M488.585 590.332L533.002 564.666M444.169 564.666L399.751 538.999M444.169 564.666L488.585 538.999M533.002 615.999L577.419 590.332M533.002 615.999L621.835 564.666M533.002 615.999L355.335 718.666M533.002 615.999L621.797 667.31M577.419 590.332L533.002 564.666M577.419 590.332L621.835 564.666M621.835 564.666L533.002 513.333M621.835 564.666L577.419 538.999M621.835 564.666L710.67 615.999M621.835 564.666L710.67 513.333M533.002 564.666L488.585 538.999M533.002 564.666L577.419 538.999M399.751 538.999L444.169 513.333M488.585 538.999L444.169 513.333M488.585 538.999L533.002 513.333M444.169 513.333L399.751 487.665M444.169 513.333L488.585 487.665M399.751 487.665L444.169 461.999M488.585 487.665L533.002 513.333M488.585 487.665L444.169 461.999M444.169 461.999L533.002 513.333M444.169 461.999L355.335 410.666M444.169 461.999L533.002 410.666M533.002 513.333L577.419 538.999M533.002 513.333L621.835 461.999M621.835 461.999L710.67 513.333M621.835 461.999L533.002 410.666M621.835 461.999L710.67 410.666M355.335 410.666L444.169 359.333M533.002 410.666L444.169 359.333M533.002 410.666L621.835 359.333M710.67 615.999L799.503 564.666M710.67 615.999L621.797 667.31M710.67 615.999L799.543 667.31M799.503 564.666L888.336 615.999M799.503 564.666L710.67 513.333M799.503 564.666L888.336 513.333M710.67 513.333L799.503 461.999M355.335 256.667L310.918 230.999M355.335 256.667L310.918 282.333M355.335 256.667L399.751 282.333M355.335 256.667L399.751 230.999M310.918 230.999L266.501 256.667M310.918 230.999L355.335 205.332M310.918 282.333L266.501 256.667M310.918 282.333L444.169 359.333M399.751 282.333L444.169 256.667M399.751 230.999L444.169 256.667M399.751 230.999L355.335 205.332M266.501 256.667L177.668 205.332M266.501 256.667L355.335 205.332M355.335 205.332L444.169 256.667M355.335 205.332L399.751 179.666M355.335 205.332L310.918 179.666M355.335 205.332L266.501 154M177.668 205.332L266.501 154M177.668 205.332L88.8338 154M444.169 256.667L533.002 308M444.169 256.667L533.002 205.333M444.169 359.333L533.002 308M533.002 308L621.835 359.333M533.002 308L621.835 256.667M533.002 205.333L621.835 256.667M533.002 205.333L710.67 102.666M533.002 205.333L444.188 154.011M399.751 179.666L355.335 154M399.751 179.666L444.188 154.011M310.918 179.666L355.335 154M310.918 179.666L266.501 154M266.501 154L310.918 128.333M266.501 154L177.668 102.666M355.335 154L310.918 128.333M355.335 154L399.752 128.333M310.918 128.333L355.335 102.666M355.335 102.666L266.501 51.3334M355.335 102.666L533.002 0L710.67 102.666M355.335 102.666L399.752 128.333M177.668 102.666L88.8338 51.3334M177.668 102.666L88.8338 154M177.668 102.666L266.501 51.3334M266.501 51.3334L177.668 0.000400592L88.8338 51.3334M710.67 102.666L888.336 0L1066 102.666M710.67 102.666L888.336 205.332M1465.76 590.332L1421.33 564.666M1465.76 590.332L1421.33 615.999M1465.76 590.332L1510.18 564.666M1421.33 564.666L1376.92 590.332M1421.33 564.666L1376.92 538.999M1421.33 564.666L1465.76 538.999M1421.33 615.999L1376.92 590.332M1421.33 615.999L1510.21 667.311M1421.33 615.999L1332.46 667.309M1376.92 590.332L1332.5 564.666M1510.18 564.666L1599.01 615.999M1510.18 564.666L1465.76 538.999M1510.18 564.666L1599.01 513.333M1376.92 538.999L1332.5 564.666M1376.92 538.999L1421.33 513.333M1465.76 538.999L1421.33 513.333M1332.5 564.666L1243.67 513.333M1332.5 564.666L1243.67 615.999M1599.01 513.333L1510.18 461.999M1599.01 513.333L1687.84 461.999M1599.01 513.333L1688.45 564.667M1421.33 513.333L1332.5 461.999M1421.33 513.333L1510.18 461.999M1421.33 513.333L1510.17 461.999M1243.67 513.333L1154.84 564.666M1243.67 513.333L1332.5 461.999M1243.67 513.333L1154.84 461.999M1243.67 615.999L1154.84 564.666M1243.67 615.999L1154.84 667.333M1243.67 615.999L1332.46 667.309M1154.84 564.666L1066 513.333M1332.5 461.999L1243.67 410.666M1510.18 461.999L1599.62 410.667M1243.67 410.666L1154.84 461.999M1243.67 410.666L1154.84 359.333M1243.67 410.666L1332.5 359.333M1154.84 102.666L1110.42 77.0001M1154.84 102.666L1110.42 128.333M1154.84 102.666L1199.26 77.0001M1154.84 102.666L1199.26 128.333M1110.42 77.0001L1066 102.666M1110.42 77.0001L1154.84 51.3334M1110.42 128.333L1066 102.666M1110.42 128.333L1154.84 154M1199.26 77.0001L1243.67 102.667M1199.26 77.0001L1154.84 51.3334M1199.26 128.333L1154.84 154M1199.26 128.333L1243.67 102.667M1066 102.666L1243.67 205.333M1066 102.666L888.336 205.332M1154.84 51.3334L1243.67 0L1332.5 51.3334M1243.67 205.333L1154.84 154M1243.67 205.333L1154.84 256.667M1243.67 205.333L1332.5 256.667M1243.67 205.333L1332.5 154M888.336 205.332L1066 308M888.336 205.332L710.67 308M1243.67 102.667L1332.5 154M1243.67 102.667L1332.5 51.3334M1332.5 154L1421.33 102.666M1332.5 51.3334L1421.33 102.666M888.336 615.999L977.17 564.666M888.336 615.999L1066 718.666M888.336 615.999L799.543 667.31M977.17 564.666L888.336 513.333M977.17 564.666L1066 513.333M888.336 513.333L977.17 461.999M888.336 513.333L799.503 461.999M799.503 461.999L888.336 410.666M799.503 461.999L710.67 410.666M710.67 410.666L799.503 359.333M710.67 410.666L621.835 359.333M1066 513.333L977.17 461.999M1066 513.333L1154.84 461.999M977.17 461.999L888.336 410.666M888.336 410.666L1066 308M888.336 410.666L710.67 308M888.336 410.666L799.503 359.333M1066 308L1154.84 359.333M1066 308L1154.84 256.667M710.67 308L799.503 359.333M710.67 308L621.835 359.333M710.67 308L621.835 256.667M1154.84 359.333L1243.67 308M1332.5 359.333L1243.67 308M1332.5 359.333L1421.33 308M1421.33 308L1332.5 256.667M1421.33 308L1599.01 205.332M1421.33 308L1599.62 410.667M1243.67 308L1154.84 256.667M1243.67 308L1332.5 256.667M1599.01 205.332L1777.28 102.668M1599.01 205.332L1777.28 308.001M1599.01 205.332L1421.33 102.666M1777.28 102.668L1866.12 154.001M1777.28 102.668L1866.12 51.3351M1777.28 102.668L1599.01 0.000400592L1421.33 102.666M1777.28 308.001L1954.95 410.667M1777.28 308.001L1866.12 359.334M1777.28 308.001L1866.12 256.668M1777.28 308.001L1954.95 205.335M1777.28 308.001L1599.62 410.667M88.8338 154L0.000396776 102.667L88.8338 51.3334M1687.84 461.999L1599.62 410.667M1687.84 461.999L1777.28 513.335M1777.28 616L1732.86 590.334L1688.45 564.667M1777.28 616L1821.7 590.334L1866.12 564.667M1777.28 616L1821.7 641.668M1777.28 616L1732.71 641.667M1688.45 564.667L1732.86 539.001L1777.28 513.335M1688.45 564.667L1599.01 616M1866.12 564.667L1821.7 539.001L1777.28 513.335M1866.12 564.667L1954.95 513.334M1866.12 564.667L1777.28 513.335M1866.12 564.667L1954.95 616L2043.78 564.667L1954.95 513.334M1777.28 513.335L1866.12 462M1777.28 513.335L1954.95 410.667M1954.95 513.334L1866.12 462M1954.95 513.334L2043.78 462M1866.12 462L1954.95 410.667M1954.95 410.667L2043.78 359.334L1954.95 308.001M1954.95 410.667L1866.12 359.334M1954.95 410.667L2043.94 462.048M1599.62 410.667L1510.79 359.334M1999.36 128.335L2043.78 154.001L1954.95 205.335M1999.36 128.335L2043.78 102.668L1999.36 77.0018M1999.36 128.335L1954.95 102.668M1954.95 205.335L2043.78 256.668L1954.95 308.001M1954.95 205.335L1866.12 256.668M1954.95 205.335L1866.12 154.001M1999.36 77.0018L1954.95 102.668M1999.36 77.0018L2043.78 51.3351L1954.95 0.00170156L1866.12 51.3351M1954.95 102.668L1866.12 154.001M1954.95 102.668L1866.12 51.3351M1866.12 359.334L1954.95 308.001M1954.95 308.001L1866.12 256.668M399.752 128.333L444.188 154.011M44.4169 1103.67L0 1129.33L44.4169 1155M44.4169 1103.67L0 1078L44.4169 1052.33M44.4169 1103.67L88.8338 1078M44.4169 1155L0 1180.67L44.4169 1206.33M44.4169 1155L88.8338 1180.67M88.8338 1078L44.4169 1052.33M88.8338 1078L133.25 1052.33M88.8338 1078L177.668 1129.33M88.8338 1180.67L44.4169 1206.33M88.8338 1180.67L177.668 1129.33M88.8338 1180.67L177.668 1232M44.4169 1052.33L0 1026.67L44.4169 1001M44.4169 1052.33L88.8338 1026.67M133.25 1052.33L88.8338 1026.67M133.25 1052.33L177.668 1026.67M177.668 1129.33L266.501 1180.67M177.668 1129.33L266.501 1078M177.668 1026.67L133.251 1001M177.668 1026.67L266.501 1078M177.668 1026.67L266.501 975.333M44.4169 1001L88.8338 975.333M44.4169 1001L88.8338 1026.67M88.8338 1026.67L133.251 1001M88.8338 975.333L133.251 1001M88.8338 975.333L0 924L88.8338 872.667M88.8338 975.333L177.668 924M266.501 1078L355.335 1129.33M266.501 1078L355.335 1026.67M266.501 975.333L355.335 1026.67M266.501 975.333L177.668 924M266.501 975.333L399.751 898.333M88.8338 872.667L177.668 924M88.8338 872.667L177.668 821.332M177.668 924L266.501 872.667M44.4169 1206.33L0 1232M177.668 1232L222.084 1206.33M177.668 1232L266.501 1180.67M222.084 1206.33L266.501 1180.67M222.084 1206.33L266.501 1232L310.918 1206.33M266.501 1180.67L310.918 1206.33M266.501 1180.67L355.335 1129.33M310.918 1206.33L355.335 1232L399.751 1206.33M355.335 1129.33L399.751 1103.67M355.335 1129.33L399.751 1155M399.751 1206.33L444.169 1232L488.585 1206.33M399.751 1206.33L444.169 1180.67M488.585 1206.33L533.002 1232M488.585 1206.33L444.169 1180.67M488.585 1206.33L533.002 1180.67M444.169 1180.67L399.751 1155M444.169 1180.67L488.585 1155M533.002 1232L577.419 1206.33M533.002 1232L621.835 1180.67M577.419 1206.33L533.002 1180.67M577.419 1206.33L621.835 1180.67M621.835 1180.67L533.002 1129.33M621.835 1180.67L577.419 1155M621.835 1180.67L710.67 1232L799.503 1180.67M621.835 1180.67L710.67 1129.33M533.002 1180.67L488.585 1155M533.002 1180.67L577.419 1155M399.751 1155L444.169 1129.33M488.585 1155L444.169 1129.33M488.585 1155L533.002 1129.33M444.169 1129.33L399.751 1103.67M444.169 1129.33L488.585 1103.67M399.751 1103.67L444.169 1078M488.585 1103.67L533.002 1129.33M488.585 1103.67L444.169 1078M444.169 1078L533.002 1129.33M444.169 1078L355.335 1026.67M444.169 1078L533.002 1026.67M533.002 1129.33L577.419 1155M533.002 1129.33L621.835 1078M621.835 1078L710.67 1129.33M621.835 1078L533.002 1026.67M621.835 1078L710.67 1026.67M355.335 1026.67L444.169 975.333M533.002 1026.67L444.169 975.333M533.002 1026.67L621.835 975.333M799.503 1180.67L888.336 1232L977.17 1180.67M799.503 1180.67L710.67 1129.33M799.503 1180.67L888.336 1129.33M710.67 1129.33L799.503 1078M310.918 846.999L266.501 872.667M310.918 846.999L355.335 821.332M310.918 846.999L399.751 898.333M310.918 898.333L266.501 872.667M310.918 898.333L444.169 975.333M310.918 898.333L399.751 846.999M399.751 898.333L444.169 872.667M399.751 846.999L444.169 872.667M399.751 846.999L355.335 821.332M266.501 872.667L177.668 821.332M266.501 872.667L355.335 821.332M355.335 821.332L399.751 795.666M355.335 821.332L310.918 795.666M355.335 821.332L266.501 770M177.668 821.332L266.501 770M177.668 821.332L88.8338 770M444.169 872.667L533.002 924M444.169 872.667L533.002 821.333M444.169 975.333L533.002 924M533.002 924L621.835 975.333M533.002 924L621.835 872.667M533.002 821.333L621.835 872.667M533.002 821.333L710.67 718.666M533.002 821.333L444.188 770.011M399.751 795.666L355.335 770M399.751 795.666L444.188 770.011M310.918 795.666L355.335 770M310.918 795.666L266.501 770M266.501 770L310.918 744.333M266.501 770L177.668 718.666M266.501 770L355.335 718.666M355.335 770L310.918 744.333M355.335 770L399.752 744.333M310.918 744.333L355.335 718.666M355.335 718.666L266.501 667.333M355.335 718.666L399.752 744.333M177.668 718.666L88.8338 667.333M177.668 718.666L88.8338 770M177.668 718.666L266.501 667.333M266.501 667.333L177.668 616L88.8338 667.333M710.67 718.666L888.336 821.332M710.67 718.666L621.797 667.31M710.67 718.666L799.543 667.31M1465.76 1206.33L1510.18 1232L1554.59 1206.33M1465.76 1206.33L1421.33 1180.67M1465.76 1206.33L1421.33 1232L1376.92 1206.33M1465.76 1206.33L1510.18 1180.67M1554.59 1206.33L1599.01 1232M1554.59 1206.33L1510.18 1180.67M1421.33 1180.67L1376.92 1206.33M1421.33 1180.67L1376.92 1155M1421.33 1180.67L1465.76 1155M1376.92 1206.33L1332.5 1180.67M1510.18 1180.67L1465.76 1155M1510.18 1180.67L1599.01 1129.33M1376.92 1155L1332.5 1180.67M1376.92 1155L1421.33 1129.33M1465.76 1155L1421.33 1129.33M1332.5 1180.67L1243.67 1129.33M1332.5 1180.67L1243.67 1232L1154.84 1180.67M1599.01 1129.33L1510.18 1078M1599.01 1129.33L1687.84 1078M1599.01 1129.33L1688.45 1180.67M1421.33 1129.33L1332.5 1078M1421.33 1129.33L1510.18 1078M1243.67 1129.33L1154.84 1180.67M1243.67 1129.33L1332.5 1078M1243.67 1129.33L1154.84 1078M1154.84 1180.67L1066 1232L977.17 1180.67M1154.84 1180.67L1066 1129.33M1332.5 1078L1243.67 1026.67M1510.18 1078L1599.01 1026.67M1243.67 1026.67L1154.84 1078M1243.67 1026.67L1154.84 975.333M1243.67 1026.67L1332.5 975.333M1599.01 1026.67L1687.84 1078M1599.01 1026.67L1421.33 924M1599.01 1026.67L1777.28 924.001M1154.84 718.666L1110.42 693M1154.84 718.666L1110.42 744.333M1154.84 718.666L1199.26 693M1154.84 718.666L1199.26 744.333M1110.42 693L1066 718.666M1110.42 693L1154.84 667.333M1110.42 744.333L1066 718.666M1110.42 744.333L1154.84 770M1199.26 693L1243.67 718.667M1199.26 693L1154.84 667.333M1199.26 744.333L1154.84 770M1199.26 744.333L1243.67 718.667M1066 718.666L1243.67 821.333M1066 718.666L888.336 821.332M1243.67 821.333L1154.84 770M1243.67 821.333L1154.84 872.667M1243.67 821.333L1421.33 924M1243.67 821.333L1332.5 872.667M1243.67 821.333L1332.5 770M888.336 821.332L1066 924M888.336 821.332L710.67 924M1243.67 718.667L1332.5 770M1243.67 718.667L1332.46 667.309M1332.5 770L1421.33 718.666M977.17 1180.67L888.336 1129.33M977.17 1180.67L1066 1129.33M888.336 1129.33L977.17 1078M888.336 1129.33L799.503 1078M799.503 1078L888.336 1026.67M799.503 1078L710.67 1026.67M710.67 1026.67L799.503 975.333M710.67 1026.67L621.835 975.333M1066 1129.33L977.17 1078M1066 1129.33L1154.84 1078M977.17 1078L888.336 1026.67M888.336 1026.67L1066 924M888.336 1026.67L710.67 924M888.336 1026.67L799.503 975.333M1066 924L1154.84 975.333M1066 924L1154.84 872.667M710.67 924L799.503 975.333M710.67 924L621.835 975.333M710.67 924L621.835 872.667M1154.84 975.333L1243.67 924M1421.33 924L1332.5 872.667M1421.33 924L1599.01 821.332M1421.33 924L1332.5 975.333M1243.67 924L1154.84 872.667M1243.67 924L1332.5 872.667M1243.67 924L1332.5 975.333M1599.01 821.332L1777.28 718.668M1599.01 821.332L1777.28 924.001M1599.01 821.332L1421.33 718.666M1777.28 718.668L1866.12 770.001M1777.28 718.668L1732.71 693.001M1777.28 718.668L1821.7 693.002M1777.28 924.001L1954.95 1026.67M1777.28 924.001L1866.12 975.334M1777.28 924.001L1866.12 872.668M1777.28 924.001L1954.95 821.335M1421.33 718.666L1510.21 667.311M1421.33 718.666L1332.46 667.309M1599.01 616L1510.21 667.311M1599.01 616L1688.14 667.334M88.8338 770L0.000396776 718.667L88.8338 667.333M1687.84 1078L1777.28 1129.33M1732.86 1206.33L1688.45 1232L1644.03 1206.33M1732.86 1206.33L1777.28 1180.67M1732.86 1206.33L1777.28 1232L1821.7 1206.33M1732.86 1206.33L1688.45 1180.67M1644.03 1206.33L1599.62 1232L1510.79 1180.67M1644.03 1206.33L1688.45 1180.67M1777.28 1180.67L1821.7 1206.33M1777.28 1180.67L1821.7 1155M1777.28 1180.67L1732.86 1155M1688.45 1180.67L1732.86 1155M1821.7 1206.33L1866.12 1180.67M1821.7 1155L1866.12 1180.67M1821.7 1155L1777.28 1129.33M1732.86 1155L1777.28 1129.33M1866.12 1180.67L1954.95 1129.33M1866.12 1180.67L1777.28 1129.33M1866.12 1180.67L1954.95 1232L2043.78 1180.67L1954.95 1129.33M1777.28 1129.33L1866.12 1078M1777.28 1129.33L1954.95 1026.67M1954.95 1129.33L1866.12 1078M1954.95 1129.33L2043.78 1078M1866.12 1078L1954.95 1026.67M1954.95 1026.67L2043.78 975.334L1954.95 924.001M1954.95 1026.67L1866.12 975.334M1954.95 1026.67L2043.94 1078.05M1999.36 744.335L2043.78 770.001L1954.95 821.335M1999.36 744.335L2043.78 718.668L1999.36 693.002M1999.36 744.335L1954.95 718.669M1954.95 821.335L2043.78 872.668L1954.95 924.001M1954.95 821.335L1866.12 872.668M1954.95 821.335L1866.12 770.001M1999.36 693.002L1954.95 718.669M1999.36 693.002L2043.78 667.335L1954.95 616.002L1866.12 667.335M1954.95 718.669L1866.12 770.001M1954.95 718.669L1866.12 667.335M1866.12 667.335L1821.7 641.668M1866.12 667.335L1821.7 693.002M1866.12 975.334L1954.95 924.001M1954.95 924.001L1866.12 872.668M399.752 744.333L444.188 770.011M1688.14 667.334L1732.71 693.001M1688.14 667.334L1732.71 641.667M1821.7 641.668L1732.71 693.001M1732.71 641.667L1821.7 693.002" stroke="#CBD5E1" stroke-width="0.5" stroke-linejoin="round"/>
</g>
<defs>
<clipPath id="clip0_6187_43298">
<rect width="1904" height="1232" fill="white"/>
</clipPath>
</defs>
</svg>
