<svg xmlns="http://www.w3.org/2000/svg" fill="none" viewBox="0 0 130 24" height="24" width="130">
<path fill="#0F172A" d="M36.0148 20H32.5926L36.608 12.0076L32.5926 4H36.0148L38.3039 8.6019L40.6538 4H44L36.0148 20Z"></path>
<path fill="#0F172A" d="M25.803 13.7219C27.8635 13.1505 29.3806 11.2457 29.3957 8.99048V8.95238V8.91428C29.373 6.19428 27.1842 4 24.4897 4H18.0741V6.88L20.4894 10.8495H18.0816V20H21.1007V13.8971H22.3687L26.0799 20H29.6297L25.803 13.7219ZM24.0519 10.8571H24.4972C25.5388 10.8571 26.3841 10.0038 26.3841 8.95238C26.3841 7.90095 25.5388 7.04762 24.4972 7.04762H21.7196L24.0519 10.8571Z" clip-rule="evenodd" fill-rule="evenodd"></path>
<path fill="#0F172A" d="M8 4C3.58096 4 0 7.58095 0 12C0 16.419 3.58096 20 8 20C12.4191 20 16 16.419 16 12C16 7.58095 12.4191 4 8 4ZM3.04762 12C3.04762 14.7352 5.26476 16.9524 8 16.9524C10.7352 16.9524 12.9524 14.7352 12.9524 12C12.9524 9.26476 10.7352 7.04762 8 7.04762C5.26476 7.04762 3.04762 9.26476 3.04762 12Z" clip-rule="evenodd" fill-rule="evenodd"></path>
<path fill="#020617" d="M50.5 20H48L56.0612 4H58.5L50.5 20Z"></path>
<path fill="#F97316" d="M64.0781 20V4H66.9766V11.3516H67.1719L73.4141 4H76.9531L70.7656 11.1797L77.0078 20H73.5234L68.75 13.1406L66.9766 15.2344V20H64.0781ZM78.1818 20V8H80.924V10H81.049C81.2677 9.30729 81.6427 8.77344 82.174 8.39844C82.7104 8.01823 83.3224 7.82812 84.0099 7.82812C84.1662 7.82812 84.3407 7.83594 84.5334 7.85156C84.7313 7.86198 84.8953 7.88021 85.0255 7.90625V10.5078C84.9058 10.4661 84.7157 10.4297 84.4552 10.3984C84.2 10.362 83.9526 10.3437 83.713 10.3437C83.1974 10.3437 82.7339 10.4557 82.3224 10.6797C81.9162 10.8984 81.5959 11.2031 81.3615 11.5937C81.1271 11.9844 81.0099 12.4349 81.0099 12.9453V20H78.1818ZM89.4827 20.2422C88.7223 20.2422 88.0374 20.1068 87.428 19.8359C86.8239 19.5599 86.3447 19.1536 85.9905 18.6172C85.6416 18.0807 85.4671 17.4193 85.4671 16.6328C85.4671 15.9557 85.5921 15.3958 85.8421 14.9531C86.0921 14.5104 86.4333 14.1562 86.8655 13.8906C87.2978 13.625 87.7848 13.4245 88.3265 13.2891C88.8734 13.1484 89.4385 13.0469 90.0218 12.9844C90.7249 12.9115 91.2952 12.8464 91.7327 12.7891C92.1702 12.7266 92.4879 12.6328 92.6859 12.5078C92.889 12.3776 92.9905 12.1771 92.9905 11.9062V11.8594C92.9905 11.2708 92.8161 10.8151 92.4671 10.4922C92.1182 10.1693 91.6155 10.0078 90.9593 10.0078C90.2666 10.0078 89.7171 10.1589 89.3109 10.4609C88.9098 10.763 88.639 11.1198 88.4984 11.5312L85.8577 11.1562C86.0661 10.4271 86.4098 9.81771 86.889 9.32812C87.3682 8.83333 87.9541 8.46354 88.6468 8.21875C89.3395 7.96875 90.1051 7.84375 90.9437 7.84375C91.5218 7.84375 92.0973 7.91146 92.6702 8.04687C93.2432 8.18229 93.7666 8.40625 94.2405 8.71875C94.7145 9.02604 95.0947 9.44531 95.3812 9.97656C95.6728 10.5078 95.8187 11.1719 95.8187 11.9687V20H93.0999V18.3516H93.0062C92.8343 18.6849 92.5921 18.9974 92.2796 19.2891C91.9723 19.5755 91.5843 19.8073 91.1155 19.9844C90.652 20.1563 90.1077 20.2422 89.4827 20.2422ZM90.2171 18.1641C90.7848 18.1641 91.277 18.0521 91.6937 17.8281C92.1103 17.599 92.4307 17.2969 92.6546 16.9219C92.8838 16.5469 92.9984 16.138 92.9984 15.6953V14.2812C92.9098 14.3542 92.7588 14.4219 92.5452 14.4844C92.3369 14.5469 92.1025 14.6016 91.8421 14.6484C91.5817 14.6953 91.3239 14.737 91.0687 14.7734C90.8135 14.8099 90.5921 14.8411 90.4046 14.8672C89.9827 14.9245 89.6051 15.0182 89.2718 15.1484C88.9385 15.2786 88.6754 15.4609 88.4827 15.6953C88.29 15.9245 88.1937 16.2214 88.1937 16.5859C88.1937 17.1068 88.3838 17.5 88.764 17.7656C89.1442 18.0312 89.6286 18.1641 90.2171 18.1641ZM103.995 8V10.1875H97.0962V8H103.995ZM98.7993 5.125H101.627V16.3906C101.627 16.7708 101.685 17.0625 101.799 17.2656C101.919 17.4635 102.075 17.599 102.268 17.6719C102.461 17.7448 102.674 17.7812 102.909 17.7812C103.086 17.7812 103.247 17.7682 103.393 17.7422C103.544 17.7161 103.659 17.6927 103.737 17.6719L104.213 19.8828C104.062 19.9349 103.846 19.9922 103.565 20.0547C103.289 20.1172 102.95 20.1536 102.549 20.1641C101.841 20.1849 101.203 20.0781 100.635 19.8437C100.068 19.6042 99.617 19.2344 99.2837 18.7344C98.9555 18.2344 98.7941 17.6094 98.7993 16.8594V5.125ZM110.805 20.2344C109.633 20.2344 108.618 19.9766 107.758 19.4609C106.899 18.9453 106.232 18.224 105.758 17.2969C105.29 16.3698 105.055 15.2865 105.055 14.0469C105.055 12.8073 105.29 11.7214 105.758 10.7891C106.232 9.85677 106.899 9.13281 107.758 8.61719C108.618 8.10156 109.633 7.84375 110.805 7.84375C111.977 7.84375 112.993 8.10156 113.852 8.61719C114.712 9.13281 115.376 9.85677 115.844 10.7891C116.318 11.7214 116.555 12.8073 116.555 14.0469C116.555 15.2865 116.318 16.3698 115.844 17.2969C115.376 18.224 114.712 18.9453 113.852 19.4609C112.993 19.9766 111.977 20.2344 110.805 20.2344ZM110.821 17.9687C111.456 17.9687 111.988 17.7943 112.415 17.4453C112.842 17.0911 113.159 16.6172 113.368 16.0234C113.581 15.4297 113.688 14.7682 113.688 14.0391C113.688 13.3047 113.581 12.6406 113.368 12.0469C113.159 11.4479 112.842 10.9714 112.415 10.6172C111.988 10.263 111.456 10.0859 110.821 10.0859C110.17 10.0859 109.628 10.263 109.196 10.6172C108.769 10.9714 108.449 11.4479 108.235 12.0469C108.027 12.6406 107.923 13.3047 107.923 14.0391C107.923 14.7682 108.027 15.4297 108.235 16.0234C108.449 16.6172 108.769 17.0911 109.196 17.4453C109.628 17.7943 110.17 17.9687 110.821 17.9687ZM127.78 11.1719L125.202 11.4531C125.129 11.1927 125.001 10.9479 124.819 10.7188C124.642 10.4896 124.402 10.3047 124.1 10.1641C123.798 10.0234 123.429 9.95312 122.991 9.95312C122.402 9.95312 121.908 10.0807 121.507 10.3359C121.111 10.5911 120.915 10.9219 120.921 11.3281C120.915 11.6771 121.043 11.9609 121.304 12.1797C121.569 12.3984 122.007 12.5781 122.616 12.7188L124.663 13.1562C125.798 13.401 126.642 13.7891 127.194 14.3203C127.751 14.8516 128.033 15.5469 128.038 16.4062C128.033 17.1615 127.811 17.8281 127.374 18.4062C126.942 18.9792 126.34 19.4271 125.569 19.75C124.798 20.0729 123.913 20.2344 122.913 20.2344C121.444 20.2344 120.262 19.9271 119.366 19.3125C118.47 18.6927 117.936 17.8307 117.764 16.7266L120.522 16.4609C120.647 17.0026 120.913 17.4115 121.319 17.6875C121.725 17.9635 122.254 18.1016 122.905 18.1016C123.577 18.1016 124.116 17.9635 124.522 17.6875C124.934 17.4115 125.139 17.0703 125.139 16.6641C125.139 16.3203 125.007 16.0365 124.741 15.8125C124.481 15.5885 124.074 15.4167 123.522 15.2969L121.475 14.8672C120.324 14.6276 119.473 14.224 118.921 13.6562C118.369 13.0833 118.095 12.3594 118.1 11.4844C118.095 10.7448 118.296 10.1042 118.702 9.5625C119.113 9.01562 119.684 8.59375 120.413 8.29687C121.147 7.99479 121.994 7.84375 122.952 7.84375C124.358 7.84375 125.465 8.14323 126.272 8.74219C127.085 9.34115 127.587 10.151 127.78 11.1719Z"></path>
</svg>
