<svg width="157" height="24" viewBox="0 0 157 24" fill="none" xmlns="http://www.w3.org/2000/svg">
<path d="M36.0148 20H32.5926L36.608 12.0076L32.5926 4H36.0148L38.3039 8.6019L40.6538 4H44L36.0148 20Z" fill="#0F172A"/>
<path fill-rule="evenodd" clip-rule="evenodd" d="M25.803 13.7219C27.8635 13.1505 29.3806 11.2457 29.3957 8.99048V8.95238V8.91428C29.373 6.19428 27.1842 4 24.4897 4H18.0741V6.88L20.4894 10.8495H18.0816V20H21.1007V13.8971H22.3687L26.0799 20H29.6297L25.803 13.7219ZM24.0519 10.8571H24.4972C25.5388 10.8571 26.3841 10.0038 26.3841 8.95238C26.3841 7.90095 25.5388 7.04762 24.4972 7.04762H21.7196L24.0519 10.8571Z" fill="#0F172A"/>
<path fill-rule="evenodd" clip-rule="evenodd" d="M8 4C3.58096 4 0 7.58095 0 12C0 16.419 3.58096 20 8 20C12.4191 20 16 16.419 16 12C16 7.58095 12.4191 4 8 4ZM3.04762 12C3.04762 14.7352 5.26476 16.9524 8 16.9524C10.7352 16.9524 12.9524 14.7352 12.9524 12C12.9524 9.26476 10.7352 7.04762 8 7.04762C5.26476 7.04762 3.04762 9.26476 3.04762 12Z" fill="#0F172A"/>
<path d="M50.5 20H48L56.0612 4H58.5L50.5 20Z" fill="#020617"/>
<path d="M69.2656 20.2344C68.0625 20.2344 67.0234 19.9844 66.1484 19.4844C65.2786 18.9792 64.6094 18.2656 64.1406 17.3437C63.6719 16.4167 63.4375 15.3255 63.4375 14.0703C63.4375 12.8359 63.6719 11.7526 64.1406 10.8203C64.6146 9.88281 65.276 9.15365 66.125 8.63281C66.974 8.10677 67.9714 7.84375 69.1172 7.84375C69.8568 7.84375 70.5547 7.96354 71.2109 8.20312C71.8724 8.4375 72.4557 8.80208 72.9609 9.29687C73.4714 9.79167 73.8724 10.4219 74.1641 11.1875C74.4557 11.9479 74.6016 12.8542 74.6016 13.9062V14.7734H64.7656V12.8672H71.8906C71.8854 12.3255 71.7682 11.8437 71.5391 11.4219C71.3099 10.9948 70.9896 10.6589 70.5781 10.4141C70.1719 10.1693 69.6979 10.0469 69.1562 10.0469C68.5781 10.0469 68.0703 10.1875 67.6328 10.4687C67.1953 10.7448 66.8542 11.1094 66.6094 11.5625C66.3698 12.0104 66.2474 12.5026 66.2422 13.0391V14.7031C66.2422 15.401 66.3698 16 66.625 16.5C66.8802 16.9948 67.237 17.375 67.6953 17.6406C68.1536 17.901 68.6901 18.0312 69.3047 18.0312C69.7161 18.0312 70.0885 17.974 70.4219 17.8594C70.7552 17.7396 71.0443 17.5651 71.2891 17.3359C71.5339 17.1068 71.7188 16.8229 71.8438 16.4844L74.4844 16.7812C74.3177 17.4792 74 18.0885 73.5313 18.6094C73.0677 19.125 72.474 19.526 71.75 19.8125C71.026 20.0937 70.1979 20.2344 69.2656 20.2344ZM79.1623 4V20H76.3341V4H79.1623ZM86.723 20.2344C85.5198 20.2344 84.4808 19.9844 83.6058 19.4844C82.736 18.9792 82.0667 18.2656 81.598 17.3437C81.1292 16.4167 80.8948 15.3255 80.8948 14.0703C80.8948 12.8359 81.1292 11.7526 81.598 10.8203C82.0719 9.88281 82.7334 9.15365 83.5823 8.63281C84.4313 8.10677 85.4287 7.84375 86.5745 7.84375C87.3141 7.84375 88.012 7.96354 88.6683 8.20312C89.3297 8.4375 89.9131 8.80208 90.4183 9.29687C90.9287 9.79167 91.3297 10.4219 91.6214 11.1875C91.9131 11.9479 92.0589 12.8542 92.0589 13.9062V14.7734H82.223V12.8672H89.348C89.3428 12.3255 89.2256 11.8437 88.9964 11.4219C88.7672 10.9948 88.4469 10.6589 88.0355 10.4141C87.6292 10.1693 87.1553 10.0469 86.6136 10.0469C86.0355 10.0469 85.5277 10.1875 85.0902 10.4687C84.6527 10.7448 84.3115 11.1094 84.0667 11.5625C83.8271 12.0104 83.7047 12.5026 83.6995 13.0391V14.7031C83.6995 15.401 83.8271 16 84.0823 16.5C84.3376 16.9948 84.6943 17.375 85.1527 17.6406C85.611 17.901 86.1474 18.0312 86.762 18.0312C87.1735 18.0312 87.5459 17.974 87.8792 17.8594C88.2126 17.7396 88.5016 17.5651 88.7464 17.3359C88.9912 17.1068 89.1761 16.8229 89.3011 16.4844L91.9417 16.7812C91.7751 17.4792 91.4573 18.0885 90.9886 18.6094C90.5251 19.125 89.9313 19.526 89.2073 19.8125C88.4834 20.0937 87.6553 20.2344 86.723 20.2344ZM93.7915 20V8H96.4946V10.0391H96.6352C96.8852 9.35156 97.2993 8.8151 97.8774 8.42969C98.4555 8.03906 99.1457 7.84375 99.9477 7.84375C100.76 7.84375 101.445 8.04167 102.002 8.4375C102.565 8.82812 102.961 9.36198 103.19 10.0391H103.315C103.581 9.3724 104.028 8.84115 104.659 8.44531C105.294 8.04427 106.047 7.84375 106.916 7.84375C108.021 7.84375 108.922 8.19271 109.62 8.89062C110.318 9.58854 110.666 10.6068 110.666 11.9453V20H107.831V12.3828C107.831 11.638 107.633 11.0937 107.237 10.75C106.841 10.401 106.357 10.2266 105.784 10.2266C105.101 10.2266 104.568 10.4401 104.182 10.8672C103.802 11.2891 103.612 11.8385 103.612 12.5156V20H100.838V12.2656C100.838 11.6458 100.651 11.151 100.276 10.7812C99.9061 10.4115 99.4217 10.2266 98.8227 10.2266C98.4165 10.2266 98.0467 10.3307 97.7134 10.5391C97.38 10.7422 97.1144 11.0312 96.9165 11.4062C96.7186 11.776 96.6196 12.2083 96.6196 12.7031V20H93.7915ZM118.188 20.2344C116.985 20.2344 115.946 19.9844 115.071 19.4844C114.201 18.9792 113.532 18.2656 113.063 17.3437C112.594 16.4167 112.36 15.3255 112.36 14.0703C112.36 12.8359 112.594 11.7526 113.063 10.8203C113.537 9.88281 114.199 9.15365 115.048 8.63281C115.896 8.10677 116.894 7.84375 118.04 7.84375C118.779 7.84375 119.477 7.96354 120.133 8.20312C120.795 8.4375 121.378 8.80208 121.883 9.29687C122.394 9.79167 122.795 10.4219 123.087 11.1875C123.378 11.9479 123.524 12.8542 123.524 13.9062V14.7734H113.688V12.8672H120.813C120.808 12.3255 120.691 11.8437 120.462 11.4219C120.232 10.9948 119.912 10.6589 119.501 10.4141C119.094 10.1693 118.62 10.0469 118.079 10.0469C117.501 10.0469 116.993 10.1875 116.555 10.4687C116.118 10.7448 115.777 11.1094 115.532 11.5625C115.292 12.0104 115.17 12.5026 115.165 13.0391V14.7031C115.165 15.401 115.292 16 115.548 16.5C115.803 16.9948 116.159 17.375 116.618 17.6406C117.076 17.901 117.613 18.0312 118.227 18.0312C118.639 18.0312 119.011 17.974 119.344 17.8594C119.678 17.7396 119.967 17.5651 120.212 17.3359C120.456 17.1068 120.641 16.8229 120.766 16.4844L123.407 16.7812C123.24 17.4792 122.923 18.0885 122.454 18.6094C121.99 19.125 121.396 19.526 120.673 19.8125C119.949 20.0937 119.12 20.2344 118.188 20.2344ZM128.085 12.9687V20H125.257V8H127.96V10.0391H128.1C128.376 9.36719 128.817 8.83333 129.421 8.4375C130.03 8.04167 130.783 7.84375 131.679 7.84375C132.507 7.84375 133.228 8.02083 133.843 8.375C134.462 8.72917 134.942 9.24219 135.28 9.91406C135.624 10.5859 135.793 11.401 135.788 12.3594V20H132.96V12.7969C132.96 11.9948 132.751 11.3672 132.335 10.9141C131.923 10.4609 131.353 10.2344 130.624 10.2344C130.129 10.2344 129.689 10.3437 129.304 10.5625C128.923 10.776 128.624 11.0859 128.405 11.4922C128.192 11.8984 128.085 12.3906 128.085 12.9687ZM143.995 8V10.1875H137.097V8H143.995ZM138.8 5.125H141.628V16.3906C141.628 16.7708 141.685 17.0625 141.8 17.2656C141.92 17.4635 142.076 17.599 142.269 17.6719C142.461 17.7448 142.675 17.7812 142.909 17.7812C143.086 17.7812 143.248 17.7682 143.394 17.7422C143.545 17.7161 143.659 17.6927 143.737 17.6719L144.214 19.8828C144.063 19.9349 143.847 19.9922 143.565 20.0547C143.289 20.1172 142.951 20.1536 142.55 20.1641C141.841 20.1849 141.203 20.0781 140.636 19.8437C140.068 19.6042 139.617 19.2344 139.284 18.7344C138.956 18.2344 138.795 17.6094 138.8 16.8594V5.125ZM155.013 11.1719L152.435 11.4531C152.362 11.1927 152.234 10.9479 152.052 10.7188C151.875 10.4896 151.635 10.3047 151.333 10.1641C151.031 10.0234 150.661 9.95312 150.224 9.95312C149.635 9.95312 149.14 10.0807 148.739 10.3359C148.344 10.5911 148.148 10.9219 148.153 11.3281C148.148 11.6771 148.276 11.9609 148.536 12.1797C148.802 12.3984 149.239 12.5781 149.849 12.7188L151.896 13.1562C153.031 13.401 153.875 13.7891 154.427 14.3203C154.984 14.8516 155.265 15.5469 155.271 16.4062C155.265 17.1615 155.044 17.8281 154.607 18.4062C154.174 18.9792 153.573 19.4271 152.802 19.75C152.031 20.0729 151.146 20.2344 150.146 20.2344C148.677 20.2344 147.495 19.9271 146.599 19.3125C145.703 18.6927 145.169 17.8307 144.997 16.7266L147.755 16.4609C147.88 17.0026 148.146 17.4115 148.552 17.6875C148.958 17.9635 149.487 18.1016 150.138 18.1016C150.81 18.1016 151.349 17.9635 151.755 17.6875C152.166 17.4115 152.372 17.0703 152.372 16.6641C152.372 16.3203 152.239 16.0365 151.974 15.8125C151.713 15.5885 151.307 15.4167 150.755 15.2969L148.708 14.8672C147.557 14.6276 146.706 14.224 146.153 13.6562C145.601 13.0833 145.328 12.3594 145.333 11.4844C145.328 10.7448 145.528 10.1042 145.935 9.5625C146.346 9.01562 146.916 8.59375 147.646 8.29687C148.38 7.99479 149.226 7.84375 150.185 7.84375C151.591 7.84375 152.698 8.14323 153.505 8.74219C154.317 9.34115 154.82 10.151 155.013 11.1719Z" fill="#EF4444"/>
</svg>
