
<svg xmlns="http://www.w3.org/2000/svg" fill="none" viewBox="0 0 110 24" height="24" width="110">
<path fill="#0F172A" d="M36.0148 20H32.5926L36.608 12.0076L32.5926 4H36.0148L38.3039 8.6019L40.6538 4H44L36.0148 20Z"></path>
<path fill="#0F172A" d="M25.803 13.7219C27.8635 13.1505 29.3806 11.2457 29.3957 8.99048V8.95238V8.91428C29.373 6.19428 27.1842 4 24.4897 4H18.0741V6.88L20.4894 10.8495H18.0816V20H21.1007V13.8971H22.3687L26.0799 20H29.6297L25.803 13.7219ZM24.0519 10.8571H24.4972C25.5388 10.8571 26.3841 10.0038 26.3841 8.95238C26.3841 7.90095 25.5388 7.04762 24.4972 7.04762H21.7196L24.0519 10.8571Z" clip-rule="evenodd" fill-rule="evenodd"></path>
<path fill="#0F172A" d="M8 4C3.58096 4 0 7.58095 0 12C0 16.419 3.58096 20 8 20C12.4191 20 16 16.419 16 12C16 7.58095 12.4191 4 8 4ZM3.04762 12C3.04762 14.7352 5.26476 16.9524 8 16.9524C10.7352 16.9524 12.9524 14.7352 12.9524 12C12.9524 9.26476 10.7352 7.04762 8 7.04762C5.26476 7.04762 3.04762 9.26476 3.04762 12Z" clip-rule="evenodd" fill-rule="evenodd"></path>
<path fill="#020617" d="M50.5 20H48L56.0612 4H58.5L50.5 20Z"></path>
<path fill="#22C55E" d="M64.0781 20V4H66.9766V11.3516H67.1719L73.4141 4H76.9531L70.7656 11.1797L77.0078 20H73.5234L68.75 13.1406L66.9766 15.2344V20H64.0781ZM82.6134 20.2344C81.4103 20.2344 80.3713 19.9844 79.4963 19.4844C78.6265 18.9792 77.9572 18.2656 77.4884 17.3437C77.0197 16.4167 76.7853 15.3255 76.7853 14.0703C76.7853 12.8359 77.0197 11.7526 77.4884 10.8203C77.9624 9.88281 78.6239 9.15365 79.4728 8.63281C80.3218 8.10677 81.3192 7.84375 82.465 7.84375C83.2046 7.84375 83.9025 7.96354 84.5588 8.20312C85.2202 8.4375 85.8035 8.80208 86.3088 9.29687C86.8192 9.79167 87.2202 10.4219 87.5119 11.1875C87.8035 11.9479 87.9494 12.8542 87.9494 13.9062V14.7734H78.1134V12.8672H85.2384C85.2332 12.3255 85.116 11.8437 84.8869 11.4219C84.6577 10.9948 84.3374 10.6589 83.9259 10.4141C83.5197 10.1693 83.0457 10.0469 82.5041 10.0469C81.9259 10.0469 81.4181 10.1875 80.9806 10.4687C80.5431 10.7448 80.202 11.1094 79.9572 11.5625C79.7176 12.0104 79.5952 12.5026 79.59 13.0391V14.7031C79.59 15.401 79.7176 16 79.9728 16.5C80.228 16.9948 80.5848 17.375 81.0431 17.6406C81.5015 17.901 82.0379 18.0312 82.6525 18.0312C83.064 18.0312 83.4364 17.974 83.7697 17.8594C84.103 17.7396 84.3921 17.5651 84.6369 17.3359C84.8817 17.1068 85.0666 16.8229 85.1916 16.4844L87.8322 16.7812C87.6655 17.4792 87.3478 18.0885 86.8791 18.6094C86.4155 19.125 85.8218 19.526 85.0978 19.8125C84.3739 20.0937 83.5457 20.2344 82.6134 20.2344ZM95.6741 8V10.1875H88.7757V8H95.6741ZM90.4788 5.125H93.307V16.3906C93.307 16.7708 93.3642 17.0625 93.4788 17.2656C93.5986 17.4635 93.7549 17.599 93.9476 17.6719C94.1403 17.7448 94.3538 17.7812 94.5882 17.7812C94.7653 17.7812 94.9267 17.7682 95.0726 17.7422C95.2236 17.7161 95.3382 17.6927 95.4163 17.6719L95.8929 19.8828C95.7418 19.9349 95.5257 19.9922 95.2445 20.0547C94.9684 20.1172 94.6299 20.1536 94.2288 20.1641C93.5205 20.1849 92.8825 20.0781 92.3148 19.8437C91.7471 19.6042 91.2965 19.2344 90.9632 18.7344C90.6351 18.2344 90.4736 17.6094 90.4788 16.8594V5.125ZM102.485 20.2344C101.313 20.2344 100.297 19.9766 99.438 19.4609C98.5786 18.9453 97.9119 18.224 97.438 17.2969C96.9692 16.3698 96.7348 15.2865 96.7348 14.0469C96.7348 12.8073 96.9692 11.7214 97.438 10.7891C97.9119 9.85677 98.5786 9.13281 99.438 8.61719C100.297 8.10156 101.313 7.84375 102.485 7.84375C103.657 7.84375 104.672 8.10156 105.532 8.61719C106.391 9.13281 107.055 9.85677 107.524 10.7891C107.998 11.7214 108.235 12.8073 108.235 14.0469C108.235 15.2865 107.998 16.3698 107.524 17.2969C107.055 18.224 106.391 18.9453 105.532 19.4609C104.672 19.9766 103.657 20.2344 102.485 20.2344ZM102.5 17.9687C103.136 17.9687 103.667 17.7943 104.094 17.4453C104.521 17.0911 104.839 16.6172 105.047 16.0234C105.261 15.4297 105.368 14.7682 105.368 14.0391C105.368 13.3047 105.261 12.6406 105.047 12.0469C104.839 11.4479 104.521 10.9714 104.094 10.6172C103.667 10.263 103.136 10.0859 102.5 10.0859C101.849 10.0859 101.308 10.263 100.875 10.6172C100.448 10.9714 100.128 11.4479 99.9145 12.0469C99.7062 12.6406 99.602 13.3047 99.602 14.0391C99.602 14.7682 99.7062 15.4297 99.9145 16.0234C100.128 16.6172 100.448 17.0911 100.875 17.4453C101.308 17.7943 101.849 17.9687 102.5 17.9687Z"></path>
</svg>
