<svg xmlns="http://www.w3.org/2000/svg" fill="none" viewBox="0 0 124 25" >
<path fill="#0F172A" d="M36.0148 20H32.5926L36.608 12.0076L32.5926 4H36.0148L38.3039 8.6019L40.6538 4H44L36.0148 20Z"></path>
<path fill="#0F172A" d="M25.803 13.7219C27.8635 13.1505 29.3806 11.2457 29.3957 8.99048V8.95238V8.91428C29.373 6.19428 27.1842 4 24.4897 4H18.0741V6.88L20.4894 10.8495H18.0816V20H21.1007V13.8971H22.3687L26.0799 20H29.6297L25.803 13.7219ZM24.0519 10.8571H24.4972C25.5388 10.8571 26.3841 10.0038 26.3841 8.95238C26.3841 7.90095 25.5388 7.04762 24.4972 7.04762H21.7196L24.0519 10.8571Z" clip-rule="evenodd" fill-rule="evenodd"></path>
<path fill="#0F172A" d="M8 4C3.58096 4 0 7.58095 0 12C0 16.419 3.58096 20 8 20C12.4191 20 16 16.419 16 12C16 7.58095 12.4191 4 8 4ZM3.04762 12C3.04762 14.7352 5.26476 16.9524 8 16.9524C10.7352 16.9524 12.9524 14.7352 12.9524 12C12.9524 9.26476 10.7352 7.04762 8 7.04762C5.26476 7.04762 3.04762 9.26476 3.04762 12Z" clip-rule="evenodd" fill-rule="evenodd"></path>
<path fill="#020617" d="M50.5 20H48L56.0612 4H58.5L50.5 20Z"></path>
<path fill="#EF4444" d="M64.0781 20V4H66.9766V10.7734H74.3906V4H77.2969V20H74.3906V13.2031H66.9766V20H64.0781ZM81.422 24.5C81.0366 24.5 80.6798 24.4688 80.3517 24.4063C80.0288 24.349 79.771 24.2813 79.5783 24.2031L80.2345 22C80.646 22.1198 81.0132 22.1771 81.3361 22.1719C81.659 22.1667 81.9429 22.0651 82.1877 21.8672C82.4377 21.6745 82.6486 21.3516 82.8205 20.8984L83.0627 20.25L78.7111 8H81.7111L84.4767 17.0625H84.6017L87.3752 8H90.383L85.5783 21.4531C85.3543 22.0885 85.0574 22.6328 84.6877 23.0859C84.3179 23.5443 83.8647 23.8932 83.3283 24.1328C82.797 24.3776 82.1616 24.5 81.422 24.5ZM95.7249 20.2109C94.7822 20.2109 93.9385 19.9688 93.1937 19.4844C92.4489 19 91.8603 18.2969 91.428 17.375C90.9958 16.4531 90.7796 15.3333 90.7796 14.0156C90.7796 12.6823 90.9984 11.5573 91.4359 10.6406C91.8786 9.71875 92.4749 9.02344 93.2249 8.55469C93.9749 8.08073 94.8109 7.84375 95.7327 7.84375C96.4359 7.84375 97.014 7.96354 97.4671 8.20312C97.9202 8.4375 98.2796 8.72135 98.5452 9.05469C98.8109 9.38281 99.0166 9.69271 99.1624 9.98437H99.2796V4H102.116V20H99.3343V18.1094H99.1624C99.0166 18.401 98.8057 18.7109 98.5296 19.0391C98.2536 19.362 97.889 19.638 97.4359 19.8672C96.9827 20.0964 96.4124 20.2109 95.7249 20.2109ZM96.514 17.8906C97.1129 17.8906 97.6234 17.7292 98.0452 17.4062C98.4671 17.0781 98.7874 16.6224 99.0062 16.0391C99.2249 15.4557 99.3343 14.776 99.3343 14C99.3343 13.224 99.2249 12.5495 99.0062 11.9766C98.7926 11.4036 98.4749 10.9583 98.053 10.6406C97.6364 10.3229 97.1234 10.1641 96.514 10.1641C95.8838 10.1641 95.3577 10.3281 94.9359 10.6562C94.514 10.9844 94.1963 11.4375 93.9827 12.0156C93.7692 12.5937 93.6624 13.2552 93.6624 14C93.6624 14.75 93.7692 15.4193 93.9827 16.0078C94.2015 16.5911 94.5218 17.0521 94.9437 17.3906C95.3708 17.724 95.8942 17.8906 96.514 17.8906ZM104.469 20V8H107.211V10H107.336C107.555 9.30729 107.93 8.77344 108.461 8.39844C108.998 8.01823 109.61 7.82812 110.297 7.82812C110.454 7.82812 110.628 7.83594 110.821 7.85156C111.019 7.86198 111.183 7.88021 111.313 7.90625V10.5078C111.193 10.4661 111.003 10.4297 110.743 10.3984C110.487 10.362 110.24 10.3437 110 10.3437C109.485 10.3437 109.021 10.4557 108.61 10.6797C108.204 10.8984 107.883 11.2031 107.649 11.5937C107.415 11.9844 107.297 12.4349 107.297 12.9453V20H104.469ZM115.77 20.2422C115.01 20.2422 114.325 20.1068 113.715 19.8359C113.111 19.5599 112.632 19.1536 112.278 18.6172C111.929 18.0807 111.755 17.4193 111.755 16.6328C111.755 15.9557 111.88 15.3958 112.13 14.9531C112.38 14.5104 112.721 14.1562 113.153 13.8906C113.585 13.625 114.072 13.4245 114.614 13.2891C115.161 13.1484 115.726 13.0469 116.309 12.9844C117.012 12.9115 117.583 12.8464 118.02 12.7891C118.458 12.7266 118.775 12.6328 118.973 12.5078C119.176 12.3776 119.278 12.1771 119.278 11.9062V11.8594C119.278 11.2708 119.103 10.8151 118.755 10.4922C118.406 10.1693 117.903 10.0078 117.247 10.0078C116.554 10.0078 116.005 10.1589 115.598 10.4609C115.197 10.763 114.926 11.1198 114.786 11.5312L112.145 11.1562C112.353 10.4271 112.697 9.81771 113.176 9.32812C113.656 8.83333 114.242 8.46354 114.934 8.21875C115.627 7.96875 116.393 7.84375 117.231 7.84375C117.809 7.84375 118.385 7.91146 118.958 8.04687C119.531 8.18229 120.054 8.40625 120.528 8.71875C121.002 9.02604 121.382 9.44531 121.669 9.97656C121.96 10.5078 122.106 11.1719 122.106 11.9687V20H119.387V18.3516H119.294C119.122 18.6849 118.88 18.9974 118.567 19.2891C118.26 19.5755 117.872 19.8073 117.403 19.9844C116.939 20.1563 116.395 20.2422 115.77 20.2422ZM116.505 18.1641C117.072 18.1641 117.564 18.0521 117.981 17.8281C118.398 17.599 118.718 17.2969 118.942 16.9219C119.171 16.5469 119.286 16.138 119.286 15.6953V14.2812C119.197 14.3542 119.046 14.4219 118.833 14.4844C118.624 14.5469 118.39 14.6016 118.13 14.6484C117.869 14.6953 117.611 14.737 117.356 14.7734C117.101 14.8099 116.88 14.8411 116.692 14.8672C116.27 14.9245 115.893 15.0182 115.559 15.1484C115.226 15.2786 114.963 15.4609 114.77 15.6953C114.577 15.9245 114.481 16.2214 114.481 16.5859C114.481 17.1068 114.671 17.5 115.051 17.7656C115.432 18.0312 115.916 18.1641 116.505 18.1641Z"></path>
</svg>
