<svg width="375" height="96" viewBox="0 0 375 96" fill="none" xmlns="http://www.w3.org/2000/svg">
<path d="M104.03 64H97.1852L105.216 48.0152L97.1852 32H104.03L108.608 41.2038L113.308 32H120L104.03 64Z" fill="#0F172A"/>
<path fill-rule="evenodd" clip-rule="evenodd" d="M83.6059 51.4438C87.727 50.301 90.7612 46.4914 90.7913 41.981V41.9048V41.8286C90.7461 36.3886 86.3684 32 80.9793 32H68.1482V37.76L72.9787 45.699H68.1633V64H74.2015V51.7943H76.7375L84.1598 64H91.2593L83.6059 51.4438ZM80.1038 45.7143H80.9944C83.0776 45.7143 84.7683 44.0076 84.7683 41.9048C84.7683 39.8019 83.0776 38.0952 80.9944 38.0952H75.4393L80.1038 45.7143Z" fill="#0F172A"/>
<path fill-rule="evenodd" clip-rule="evenodd" d="M48 32C39.1619 32 32 39.1619 32 48C32 56.8381 39.1619 64 48 64C56.8381 64 64 56.8381 64 48C64 39.1619 56.8381 32 48 32ZM38.0952 48C38.0952 53.4705 42.5295 57.9048 48 57.9048C53.4705 57.9048 57.9048 53.4705 57.9048 48C57.9048 42.5295 53.4705 38.0952 48 38.0952C42.5295 38.0952 38.0952 42.5295 38.0952 48Z" fill="#0F172A"/>
<path d="M141 64H136L152.122 32H157L141 64Z" fill="#0F172A"/>
<path d="M199.453 32V64H194.297L179.219 42.2031H178.953V64H173.156V32H178.344L193.406 53.8125H193.688V32H199.453ZM214.825 64.4688C212.418 64.4688 210.34 63.9688 208.59 62.9688C206.851 61.9583 205.512 60.5312 204.575 58.6875C203.637 56.8333 203.168 54.651 203.168 52.1406C203.168 49.6719 203.637 47.5052 204.575 45.6406C205.522 43.7656 206.845 42.3073 208.543 41.2656C210.241 40.2135 212.236 39.6875 214.528 39.6875C216.007 39.6875 217.403 39.9271 218.715 40.4062C220.038 40.875 221.205 41.6042 222.215 42.5937C223.236 43.5833 224.038 44.8437 224.621 46.375C225.205 47.8958 225.496 49.7083 225.496 51.8125V53.5469H205.825V49.7344H220.075C220.064 48.651 219.83 47.6875 219.371 46.8437C218.913 45.9896 218.272 45.3177 217.45 44.8281C216.637 44.3385 215.689 44.0937 214.606 44.0937C213.45 44.0937 212.434 44.375 211.559 44.9375C210.684 45.4896 210.002 46.2187 209.512 47.125C209.033 48.0208 208.788 49.0052 208.778 50.0781V53.4062C208.778 54.8021 209.033 56 209.543 57C210.054 57.9896 210.767 58.75 211.684 59.2812C212.601 59.8021 213.673 60.0625 214.903 60.0625C215.726 60.0625 216.47 59.9479 217.137 59.7187C217.804 59.4792 218.382 59.1302 218.871 58.6719C219.361 58.2135 219.731 57.6458 219.981 56.9687L225.262 57.5625C224.929 58.9583 224.293 60.1771 223.356 61.2188C222.429 62.25 221.241 63.0521 219.793 63.625C218.345 64.1875 216.689 64.4688 214.825 64.4688ZM240.946 40V44.375H227.149V40H240.946ZM230.555 34.25H236.212V56.7812C236.212 57.5417 236.326 58.125 236.555 58.5312C236.795 58.9271 237.107 59.1979 237.493 59.3437C237.878 59.4896 238.305 59.5625 238.774 59.5625C239.128 59.5625 239.451 59.5365 239.743 59.4844C240.045 59.4323 240.274 59.3854 240.43 59.3437L241.383 63.7656C241.081 63.8698 240.649 63.9844 240.087 64.1094C239.534 64.2344 238.857 64.3073 238.055 64.3281C236.639 64.3698 235.363 64.1562 234.227 63.6875C233.092 63.2083 232.191 62.4687 231.524 61.4687C230.868 60.4687 230.545 59.2187 230.555 57.7187V34.25ZM249.31 64L242.528 40H248.294L252.513 56.875H252.731L257.044 40H262.747L267.06 56.7812H267.294L271.45 40H277.231L270.435 64H264.544L260.044 47.7812H259.716L255.216 64H249.31ZM289.642 64.4688C287.298 64.4688 285.267 63.9531 283.548 62.9219C281.829 61.8906 280.496 60.4479 279.548 58.5937C278.611 56.7396 278.142 54.5729 278.142 52.0937C278.142 49.6146 278.611 47.4427 279.548 45.5781C280.496 43.7135 281.829 42.2656 283.548 41.2344C285.267 40.2031 287.298 39.6875 289.642 39.6875C291.986 39.6875 294.017 40.2031 295.736 41.2344C297.454 42.2656 298.783 43.7135 299.72 45.5781C300.668 47.4427 301.142 49.6146 301.142 52.0937C301.142 54.5729 300.668 56.7396 299.72 58.5937C298.783 60.4479 297.454 61.8906 295.736 62.9219C294.017 63.9531 291.986 64.4688 289.642 64.4688ZM289.673 59.9375C290.944 59.9375 292.006 59.5885 292.861 58.8906C293.715 58.1823 294.35 57.2344 294.767 56.0469C295.194 54.8594 295.408 53.5365 295.408 52.0781C295.408 50.6094 295.194 49.2812 294.767 48.0937C294.35 46.8958 293.715 45.9427 292.861 45.2344C292.006 44.526 290.944 44.1719 289.673 44.1719C288.371 44.1719 287.288 44.526 286.423 45.2344C285.569 45.9427 284.928 46.8958 284.501 48.0937C284.085 49.2812 283.876 50.6094 283.876 52.0781C283.876 53.5365 284.085 54.8594 284.501 56.0469C284.928 57.2344 285.569 58.1823 286.423 58.8906C287.288 59.5885 288.371 59.9375 289.673 59.9375ZM304.623 64V40H310.107V44H310.357C310.795 42.6146 311.545 41.5469 312.607 40.7969C313.68 40.0365 314.904 39.6562 316.279 39.6562C316.591 39.6562 316.94 39.6719 317.326 39.7031C317.722 39.724 318.05 39.7604 318.31 39.8125V45.0156C318.071 44.9323 317.69 44.8594 317.17 44.7969C316.659 44.724 316.164 44.6875 315.685 44.6875C314.654 44.6875 313.727 44.9115 312.904 45.3594C312.091 45.7969 311.451 46.4062 310.982 47.1875C310.513 47.9687 310.279 48.8698 310.279 49.8906V64H304.623ZM325.904 56.4687L325.889 49.6406H326.795L335.42 40H342.029L331.42 51.8125H330.248L325.904 56.4687ZM320.748 64V32H326.404V64H320.748ZM335.81 64L327.998 53.0781L331.81 49.0938L342.576 64H335.81Z" fill="#4F46E5"/>
</svg>
