<svg width="441" height="96" viewBox="0 0 441 96" fill="none" xmlns="http://www.w3.org/2000/svg">
<path d="M104.03 64H97.1852L105.216 48.0152L97.1852 32H104.03L108.608 41.2038L113.308 32H120L104.03 64Z" fill="#0F172A"/>
<path fill-rule="evenodd" clip-rule="evenodd" d="M83.6059 51.4438C87.727 50.301 90.7612 46.4914 90.7913 41.981V41.9048V41.8286C90.7461 36.3886 86.3684 32 80.9793 32H68.1482V37.76L72.9787 45.699H68.1633V64H74.2015V51.7943H76.7375L84.1598 64H91.2593L83.6059 51.4438ZM80.1038 45.7143H80.9944C83.0776 45.7143 84.7683 44.0076 84.7683 41.9048C84.7683 39.8019 83.0776 38.0952 80.9944 38.0952H75.4393L80.1038 45.7143Z" fill="#0F172A"/>
<path fill-rule="evenodd" clip-rule="evenodd" d="M48 32C39.1619 32 32 39.1619 32 48C32 56.8381 39.1619 64 48 64C56.8381 64 64 56.8381 64 48C64 39.1619 56.8381 32 48 32ZM38.0952 48C38.0952 53.4705 42.5295 57.9048 48 57.9048C53.4705 57.9048 57.9048 53.4705 57.9048 48C57.9048 42.5295 53.4705 38.0952 48 38.0952C42.5295 38.0952 38.0952 42.5295 38.0952 48Z" fill="#0F172A"/>
<path d="M141 64H136L152.122 32H157L141 64Z" fill="#0F172A"/>
<path d="M201.75 48C201.75 51.4479 201.104 54.401 199.812 56.8594C198.531 59.3073 196.781 61.1823 194.562 62.4844C192.354 63.7865 189.849 64.4375 187.047 64.4375C184.245 64.4375 181.734 63.7865 179.516 62.4844C177.307 61.1719 175.557 59.2917 174.266 56.8437C172.984 54.3854 172.344 51.4375 172.344 48C172.344 44.5521 172.984 41.6042 174.266 39.1562C175.557 36.6979 177.307 34.8177 179.516 33.5156C181.734 32.2135 184.245 31.5625 187.047 31.5625C189.849 31.5625 192.354 32.2135 194.562 33.5156C196.781 34.8177 198.531 36.6979 199.812 39.1562C201.104 41.6042 201.75 44.5521 201.75 48ZM195.922 48C195.922 45.5729 195.542 43.526 194.781 41.8594C194.031 40.1823 192.99 38.9167 191.656 38.0625C190.323 37.1979 188.786 36.7656 187.047 36.7656C185.307 36.7656 183.771 37.1979 182.438 38.0625C181.104 38.9167 180.057 40.1823 179.297 41.8594C178.547 43.526 178.172 45.5729 178.172 48C178.172 50.4271 178.547 52.4792 179.297 54.1562C180.057 55.8229 181.104 57.0885 182.438 57.9531C183.771 58.8073 185.307 59.2344 187.047 59.2344C188.786 59.2344 190.323 58.8073 191.656 57.9531C192.99 57.0885 194.031 55.8229 194.781 54.1562C195.542 52.4792 195.922 50.4271 195.922 48ZM212.567 64.4844C211.046 64.4844 209.676 64.2135 208.457 63.6719C207.249 63.1198 206.291 62.3073 205.582 61.2344C204.884 60.1615 204.535 58.8385 204.535 57.2656C204.535 55.9115 204.785 54.7917 205.285 53.9062C205.785 53.0208 206.468 52.3125 207.332 51.7812C208.197 51.25 209.171 50.849 210.254 50.5781C211.348 50.2969 212.478 50.0937 213.645 49.9687C215.051 49.8229 216.192 49.6927 217.067 49.5781C217.942 49.4531 218.577 49.2656 218.973 49.0156C219.379 48.7552 219.582 48.3542 219.582 47.8125V47.7188C219.582 46.5417 219.233 45.6302 218.535 44.9844C217.838 44.3385 216.832 44.0156 215.52 44.0156C214.134 44.0156 213.035 44.3177 212.223 44.9219C211.421 45.526 210.879 46.2396 210.598 47.0625L205.317 46.3125C205.733 44.8542 206.421 43.6354 207.379 42.6562C208.338 41.6667 209.509 40.9271 210.895 40.4375C212.28 39.9375 213.812 39.6875 215.489 39.6875C216.645 39.6875 217.796 39.8229 218.942 40.0937C220.088 40.3646 221.134 40.8125 222.082 41.4375C223.03 42.0521 223.791 42.8906 224.364 43.9531C224.947 45.0156 225.239 46.3437 225.239 47.9375V64H219.801V60.7031H219.614C219.27 61.3698 218.785 61.9948 218.16 62.5781C217.546 63.151 216.77 63.6146 215.832 63.9687C214.905 64.3125 213.817 64.4844 212.567 64.4844ZM214.035 60.3281C215.171 60.3281 216.155 60.1042 216.989 59.6562C217.822 59.1979 218.463 58.5937 218.91 57.8437C219.369 57.0937 219.598 56.276 219.598 55.3906V52.5625C219.421 52.7083 219.119 52.8437 218.692 52.9687C218.275 53.0937 217.806 53.2031 217.285 53.2969C216.765 53.3906 216.249 53.474 215.739 53.5469C215.228 53.6198 214.785 53.6823 214.41 53.7344C213.567 53.849 212.812 54.0365 212.145 54.2969C211.478 54.5573 210.952 54.9219 210.567 55.3906C210.181 55.849 209.989 56.4427 209.989 57.1719C209.989 58.2135 210.369 59 211.129 59.5312C211.89 60.0625 212.858 60.3281 214.035 60.3281ZM241.59 40V44.375H227.794V40H241.59ZM231.2 34.25H236.856V56.7812C236.856 57.5417 236.971 58.125 237.2 58.5312C237.439 58.9271 237.752 59.1979 238.137 59.3437C238.523 59.4896 238.95 59.5625 239.419 59.5625C239.773 59.5625 240.096 59.5365 240.387 59.4844C240.689 59.4323 240.919 59.3854 241.075 59.3437L242.028 63.7656C241.726 63.8698 241.294 63.9844 240.731 64.1094C240.179 64.2344 239.502 64.3073 238.7 64.3281C237.283 64.3698 236.007 64.1562 234.872 63.6875C233.736 63.2083 232.835 62.4687 232.169 61.4687C231.512 60.4687 231.189 59.2187 231.2 57.7187V34.25ZM251.173 49.9375V64H245.517V32H251.048V44.0781H251.329C251.892 42.724 252.761 41.6562 253.938 40.875C255.126 40.0833 256.636 39.6875 258.47 39.6875C260.136 39.6875 261.589 40.0365 262.829 40.7344C264.069 41.4323 265.027 42.4531 265.704 43.7969C266.392 45.1406 266.735 46.7812 266.735 48.7187V64H261.079V49.5937C261.079 47.9792 260.662 46.724 259.829 45.8281C259.006 44.9219 257.85 44.4687 256.36 44.4687C255.36 44.4687 254.464 44.6875 253.673 45.125C252.892 45.5521 252.277 46.1719 251.829 46.9844C251.392 47.7969 251.173 48.7812 251.173 49.9375ZM276.337 56.4687L276.322 49.6406H277.228L285.853 40H292.462L281.853 51.8125H280.681L276.337 56.4687ZM271.181 64V32H276.837V64H271.181ZM286.243 64L278.431 53.0781L282.243 49.0938L293.009 64H286.243ZM304.548 64.4688C302.142 64.4688 300.064 63.9688 298.314 62.9688C296.574 61.9583 295.236 60.5312 294.298 58.6875C293.361 56.8333 292.892 54.651 292.892 52.1406C292.892 49.6719 293.361 47.5052 294.298 45.6406C295.246 43.7656 296.569 42.3073 298.267 41.2656C299.965 40.2135 301.96 39.6875 304.252 39.6875C305.731 39.6875 307.127 39.9271 308.439 40.4062C309.762 40.875 310.929 41.6042 311.939 42.5937C312.96 43.5833 313.762 44.8437 314.345 46.375C314.929 47.8958 315.22 49.7083 315.22 51.8125V53.5469H295.548V49.7344H309.798C309.788 48.651 309.554 47.6875 309.095 46.8437C308.637 45.9896 307.996 45.3177 307.173 44.8281C306.361 44.3385 305.413 44.0937 304.33 44.0937C303.173 44.0937 302.158 44.375 301.283 44.9375C300.408 45.4896 299.726 46.2187 299.236 47.125C298.757 48.0208 298.512 49.0052 298.502 50.0781V53.4062C298.502 54.8021 298.757 56 299.267 57C299.778 57.9896 300.491 58.75 301.408 59.2812C302.324 59.8021 303.397 60.0625 304.627 60.0625C305.449 60.0625 306.194 59.9479 306.861 59.7187C307.528 59.4792 308.106 59.1302 308.595 58.6719C309.085 58.2135 309.455 57.6458 309.705 56.9687L314.986 57.5625C314.653 58.9583 314.017 60.1771 313.08 61.2188C312.153 62.25 310.965 63.0521 309.517 63.625C308.069 64.1875 306.413 64.4688 304.548 64.4688ZM329.31 64.4688C326.904 64.4688 324.826 63.9688 323.076 62.9688C321.337 61.9583 319.998 60.5312 319.06 58.6875C318.123 56.8333 317.654 54.651 317.654 52.1406C317.654 49.6719 318.123 47.5052 319.06 45.6406C320.008 43.7656 321.331 42.3073 323.029 41.2656C324.727 40.2135 326.722 39.6875 329.014 39.6875C330.493 39.6875 331.889 39.9271 333.201 40.4062C334.524 40.875 335.691 41.6042 336.701 42.5937C337.722 43.5833 338.524 44.8437 339.107 46.375C339.691 47.8958 339.982 49.7083 339.982 51.8125V53.5469H320.31V49.7344H334.56C334.55 48.651 334.316 47.6875 333.857 46.8437C333.399 45.9896 332.758 45.3177 331.935 44.8281C331.123 44.3385 330.175 44.0937 329.092 44.0937C327.935 44.0937 326.92 44.375 326.045 44.9375C325.17 45.4896 324.488 46.2187 323.998 47.125C323.519 48.0208 323.274 49.0052 323.264 50.0781V53.4062C323.264 54.8021 323.519 56 324.029 57C324.54 57.9896 325.253 58.75 326.17 59.2812C327.087 59.8021 328.159 60.0625 329.389 60.0625C330.212 60.0625 330.956 59.9479 331.623 59.7187C332.29 59.4792 332.868 59.1302 333.357 58.6719C333.847 58.2135 334.217 57.6458 334.467 56.9687L339.748 57.5625C339.415 58.9583 338.779 60.1771 337.842 61.2188C336.915 62.25 335.727 63.0521 334.279 63.625C332.831 64.1875 331.175 64.4688 329.31 64.4688ZM343.447 73V40H349.01V43.9687H349.338C349.63 43.3854 350.041 42.7656 350.572 42.1094C351.104 41.4427 351.822 40.875 352.729 40.4062C353.635 39.9271 354.791 39.6875 356.197 39.6875C358.052 39.6875 359.724 40.1615 361.213 41.1094C362.713 42.0469 363.901 43.4375 364.776 45.2812C365.661 47.1146 366.104 49.3646 366.104 52.0312C366.104 54.6667 365.671 56.9062 364.807 58.75C363.942 60.5937 362.765 62 361.276 62.9688C359.786 63.9375 358.099 64.4219 356.213 64.4219C354.838 64.4219 353.697 64.1927 352.791 63.7344C351.885 63.276 351.156 62.724 350.604 62.0781C350.062 61.4219 349.64 60.8021 349.338 60.2188H349.104V73H343.447ZM348.994 52C348.994 53.5521 349.213 54.9115 349.651 56.0781C350.099 57.2448 350.739 58.1562 351.572 58.8125C352.416 59.4583 353.437 59.7812 354.635 59.7812C355.885 59.7812 356.932 59.4479 357.776 58.7812C358.619 58.1042 359.255 57.1823 359.682 56.0156C360.119 54.8385 360.338 53.5 360.338 52C360.338 50.5104 360.125 49.1875 359.697 48.0312C359.27 46.875 358.635 45.9687 357.791 45.3125C356.947 44.6562 355.895 44.3281 354.635 44.3281C353.427 44.3281 352.401 44.6458 351.557 45.2812C350.713 45.9167 350.072 46.8073 349.635 47.9531C349.208 49.099 348.994 50.4479 348.994 52ZM380.253 64.4688C377.846 64.4688 375.768 63.9688 374.018 62.9688C372.279 61.9583 370.94 60.5312 370.003 58.6875C369.065 56.8333 368.596 54.651 368.596 52.1406C368.596 49.6719 369.065 47.5052 370.003 45.6406C370.95 43.7656 372.273 42.3073 373.971 41.2656C375.669 40.2135 377.664 39.6875 379.956 39.6875C381.435 39.6875 382.831 39.9271 384.143 40.4062C385.466 40.875 386.633 41.6042 387.643 42.5937C388.664 43.5833 389.466 44.8437 390.049 46.375C390.633 47.8958 390.924 49.7083 390.924 51.8125V53.5469H371.253V49.7344H385.503C385.492 48.651 385.258 47.6875 384.799 46.8437C384.341 45.9896 383.7 45.3177 382.878 44.8281C382.065 44.3385 381.117 44.0937 380.034 44.0937C378.878 44.0937 377.862 44.375 376.987 44.9375C376.112 45.4896 375.43 46.2187 374.94 47.125C374.461 48.0208 374.216 49.0052 374.206 50.0781V53.4062C374.206 54.8021 374.461 56 374.971 57C375.482 57.9896 376.195 58.75 377.112 59.2812C378.029 59.8021 379.101 60.0625 380.331 60.0625C381.154 60.0625 381.898 59.9479 382.565 59.7187C383.232 59.4792 383.81 59.1302 384.299 58.6719C384.789 58.2135 385.159 57.6458 385.409 56.9687L390.69 57.5625C390.357 58.9583 389.721 60.1771 388.784 61.2188C387.857 62.25 386.669 63.0521 385.221 63.625C383.773 64.1875 382.117 64.4688 380.253 64.4688ZM394.39 64V40H399.874V44H400.124C400.561 42.6146 401.311 41.5469 402.374 40.7969C403.447 40.0365 404.671 39.6562 406.046 39.6562C406.358 39.6562 406.707 39.6719 407.093 39.7031C407.488 39.724 407.817 39.7604 408.077 39.8125V45.0156C407.837 44.9323 407.457 44.8594 406.936 44.7969C406.426 44.724 405.931 44.6875 405.452 44.6875C404.421 44.6875 403.494 44.9115 402.671 45.3594C401.858 45.7969 401.218 46.4062 400.749 47.1875C400.28 47.9687 400.046 48.8698 400.046 49.8906V64H394.39Z" fill="#EC4899"/>
</svg>
