<svg width="68" height="20" viewBox="0 0 324 96" fill="none" xmlns="http://www.w3.org/2000/svg">
<path d="M104.03 64H97.1852L105.216 48.0152L97.1852 32H104.03L108.608 41.2038L113.308 32H120L104.03 64Z" fill="#0F172A"/>
<path fill-rule="evenodd" clip-rule="evenodd" d="M83.6059 51.4438C87.727 50.301 90.7612 46.4914 90.7913 41.981V41.9048V41.8286C90.7461 36.3886 86.3684 32 80.9793 32H68.1482V37.76L72.9787 45.699H68.1633V64H74.2015V51.7943H76.7375L84.1598 64H91.2593L83.6059 51.4438ZM80.1038 45.7143H80.9944C83.0776 45.7143 84.7683 44.0076 84.7683 41.9048C84.7683 39.8019 83.0776 38.0952 80.9944 38.0952H75.4393L80.1038 45.7143Z" fill="#0F172A"/>
<path fill-rule="evenodd" clip-rule="evenodd" d="M48 32C39.1619 32 32 39.1619 32 48C32 56.8381 39.1619 64 48 64C56.8381 64 64 56.8381 64 48C64 39.1619 56.8381 32 48 32ZM38.0952 48C38.0952 53.4705 42.5295 57.9048 48 57.9048C53.4705 57.9048 57.9048 53.4705 57.9048 48C57.9048 42.5295 53.4705 38.0952 48 38.0952C42.5295 38.0952 38.0952 42.5295 38.0952 48Z" fill="#0F172A"/>
<path d="M141 64H136L152.122 32H157L141 64Z" fill="#0F172A"/>
<path d="M173.156 64V32H178.953V45.5469H193.781V32H199.594V64H193.781V50.4062H178.953V64H173.156ZM207.844 73C207.073 73 206.36 72.9375 205.703 72.8125C205.058 72.6979 204.542 72.5625 204.157 72.4063L205.469 68C206.292 68.2396 207.026 68.3542 207.672 68.3438C208.318 68.3333 208.886 68.1302 209.375 67.7344C209.875 67.349 210.297 66.7031 210.641 65.7969L211.125 64.5L202.422 40H208.422L213.953 58.125H214.203L219.75 40H225.766L216.157 66.9063C215.709 68.1771 215.115 69.2656 214.375 70.1719C213.636 71.0885 212.729 71.7865 211.657 72.2656C210.594 72.7552 209.323 73 207.844 73ZM236.45 64.4219C234.564 64.4219 232.877 63.9375 231.387 62.9688C229.898 62 228.721 60.5937 227.856 58.75C226.992 56.9062 226.559 54.6667 226.559 52.0312C226.559 49.3646 226.997 47.1146 227.872 45.2812C228.757 43.4375 229.95 42.0469 231.45 41.1094C232.95 40.1615 234.622 39.6875 236.465 39.6875C237.872 39.6875 239.028 39.9271 239.934 40.4062C240.84 40.875 241.559 41.4427 242.09 42.1094C242.622 42.7656 243.033 43.3854 243.325 43.9687H243.559V32H249.231V64H243.669V60.2188H243.325C243.033 60.8021 242.611 61.4219 242.059 62.0781C241.507 62.724 240.778 63.276 239.872 63.7344C238.965 64.1927 237.825 64.4219 236.45 64.4219ZM238.028 59.7812C239.226 59.7812 240.247 59.4583 241.09 58.8125C241.934 58.1562 242.575 57.2448 243.012 56.0781C243.45 54.9115 243.669 53.5521 243.669 52C243.669 50.4479 243.45 49.099 243.012 47.9531C242.585 46.8073 241.95 45.9167 241.106 45.2812C240.273 44.6458 239.247 44.3281 238.028 44.3281C236.768 44.3281 235.715 44.6562 234.872 45.3125C234.028 45.9687 233.393 46.875 232.965 48.0312C232.538 49.1875 232.325 50.5104 232.325 52C232.325 53.5 232.538 54.8385 232.965 56.0156C233.403 57.1823 234.044 58.1042 234.887 58.7812C235.742 59.4479 236.788 59.7812 238.028 59.7812ZM253.938 64V40H259.423V44H259.673C260.11 42.6146 260.86 41.5469 261.923 40.7969C262.996 40.0365 264.22 39.6562 265.595 39.6562C265.907 39.6562 266.256 39.6719 266.642 39.7031C267.037 39.724 267.366 39.7604 267.626 39.8125V45.0156C267.386 44.9323 267.006 44.8594 266.485 44.7969C265.975 44.724 265.48 44.6875 265.001 44.6875C263.97 44.6875 263.043 44.9115 262.22 45.3594C261.407 45.7969 260.767 46.4062 260.298 47.1875C259.829 47.9687 259.595 48.8698 259.595 49.8906V64H253.938ZM276.54 64.4844C275.019 64.4844 273.65 64.2135 272.431 63.6719C271.223 63.1198 270.264 62.3073 269.556 61.2344C268.858 60.1615 268.509 58.8385 268.509 57.2656C268.509 55.9115 268.759 54.7917 269.259 53.9062C269.759 53.0208 270.441 52.3125 271.306 51.7812C272.171 51.25 273.144 50.849 274.228 50.5781C275.322 50.2969 276.452 50.0937 277.618 49.9687C279.025 49.8229 280.165 49.6927 281.04 49.5781C281.915 49.4531 282.551 49.2656 282.947 49.0156C283.353 48.7552 283.556 48.3542 283.556 47.8125V47.7188C283.556 46.5417 283.207 45.6302 282.509 44.9844C281.811 44.3385 280.806 44.0156 279.493 44.0156C278.108 44.0156 277.009 44.3177 276.197 44.9219C275.394 45.526 274.853 46.2396 274.572 47.0625L269.29 46.3125C269.707 44.8542 270.394 43.6354 271.353 42.6562C272.311 41.6667 273.483 40.9271 274.868 40.4375C276.254 39.9375 277.785 39.6875 279.462 39.6875C280.618 39.6875 281.769 39.8229 282.915 40.0937C284.061 40.3646 285.108 40.8125 286.056 41.4375C287.004 42.0521 287.764 42.8906 288.337 43.9531C288.921 45.0156 289.212 46.3437 289.212 47.9375V64H283.775V60.7031H283.587C283.243 61.3698 282.759 61.9948 282.134 62.5781C281.519 63.151 280.743 63.6146 279.806 63.9687C278.879 64.3125 277.79 64.4844 276.54 64.4844ZM278.009 60.3281C279.144 60.3281 280.129 60.1042 280.962 59.6562C281.796 59.1979 282.436 58.5937 282.884 57.8437C283.342 57.0937 283.572 56.276 283.572 55.3906V52.5625C283.394 52.7083 283.092 52.8437 282.665 52.9687C282.249 53.0937 281.78 53.2031 281.259 53.2969C280.738 53.3906 280.223 53.474 279.712 53.5469C279.202 53.6198 278.759 53.6823 278.384 53.7344C277.54 53.849 276.785 54.0365 276.118 54.2969C275.452 54.5573 274.926 54.9219 274.54 55.3906C274.155 55.849 273.962 56.4427 273.962 57.1719C273.962 58.2135 274.342 59 275.103 59.5312C275.863 60.0625 276.832 60.3281 278.009 60.3281Z" fill="#F43F5E"/>
</svg>
