<svg width="296" height="96" viewBox="0 0 296 96" fill="none" xmlns="http://www.w3.org/2000/svg">
<path d="M104.03 64H97.1852L105.216 48.0152L97.1852 32H104.03L108.608 41.2038L113.308 32H120L104.03 64Z" fill="#0F172A"/>
<path fill-rule="evenodd" clip-rule="evenodd" d="M83.6059 51.4438C87.727 50.301 90.7612 46.4914 90.7913 41.981V41.9048V41.8286C90.7461 36.3886 86.3684 32 80.9793 32H68.1482V37.76L72.9787 45.699H68.1633V64H74.2015V51.7943H76.7375L84.1598 64H91.2593L83.6059 51.4438ZM80.1038 45.7143H80.9944C83.0776 45.7143 84.7683 44.0076 84.7683 41.9048C84.7683 39.8019 83.0776 38.0952 80.9944 38.0952H75.4393L80.1038 45.7143Z" fill="#0F172A"/>
<path fill-rule="evenodd" clip-rule="evenodd" d="M48 32C39.1619 32 32 39.1619 32 48C32 56.8381 39.1619 64 48 64C56.8381 64 64 56.8381 64 48C64 39.1619 56.8381 32 48 32ZM38.0952 48C38.0952 53.4705 42.5295 57.9048 48 57.9048C53.4705 57.9048 57.9048 53.4705 57.9048 48C57.9048 42.5295 53.4705 38.0952 48 38.0952C42.5295 38.0952 38.0952 42.5295 38.0952 48Z" fill="#0F172A"/>
<path d="M141 64H136L152.122 32H157L141 64Z" fill="#0F172A"/>
<path d="M173.156 64V32H178.953V46.7031H179.344L191.828 32H198.906L186.531 46.3594L199.016 64H192.047L182.5 50.2812L178.953 54.4687V64H173.156ZM210.227 64.4688C207.821 64.4688 205.743 63.9688 203.993 62.9688C202.253 61.9583 200.914 60.5312 199.977 58.6875C199.039 56.8333 198.571 54.651 198.571 52.1406C198.571 49.6719 199.039 47.5052 199.977 45.6406C200.925 43.7656 202.248 42.3073 203.946 41.2656C205.644 40.2135 207.638 39.6875 209.93 39.6875C211.409 39.6875 212.805 39.9271 214.118 40.4062C215.44 40.875 216.607 41.6042 217.618 42.5937C218.638 43.5833 219.44 44.8437 220.024 46.375C220.607 47.8958 220.899 49.7083 220.899 51.8125V53.5469H201.227V49.7344H215.477C215.466 48.651 215.232 47.6875 214.774 46.8437C214.315 45.9896 213.675 45.3177 212.852 44.8281C212.039 44.3385 211.091 44.0937 210.008 44.0937C208.852 44.0937 207.836 44.375 206.961 44.9375C206.086 45.4896 205.404 46.2187 204.914 47.125C204.435 48.0208 204.19 49.0052 204.18 50.0781V53.4062C204.18 54.8021 204.435 56 204.946 57C205.456 57.9896 206.17 58.75 207.086 59.2812C208.003 59.8021 209.076 60.0625 210.305 60.0625C211.128 60.0625 211.873 59.9479 212.539 59.7187C213.206 59.4792 213.784 59.1302 214.274 58.6719C214.763 58.2135 215.133 57.6458 215.383 56.9687L220.664 57.5625C220.331 58.9583 219.696 60.1771 218.758 61.2188C217.831 62.25 216.644 63.0521 215.196 63.625C213.748 64.1875 212.091 64.4688 210.227 64.4688ZM236.348 40V44.375H222.551V40H236.348ZM225.958 34.25H231.614V56.7812C231.614 57.5417 231.728 58.125 231.958 58.5312C232.197 58.9271 232.51 59.1979 232.895 59.3437C233.281 59.4896 233.708 59.5625 234.176 59.5625C234.531 59.5625 234.853 59.5365 235.145 59.4844C235.447 59.4323 235.676 59.3854 235.833 59.3437L236.786 63.7656C236.484 63.8698 236.051 63.9844 235.489 64.1094C234.937 64.2344 234.26 64.3073 233.458 64.3281C232.041 64.3698 230.765 64.1562 229.63 63.6875C228.494 63.2083 227.593 62.4687 226.926 61.4687C226.27 60.4687 225.947 59.2187 225.958 57.7187V34.25ZM249.97 64.4688C247.626 64.4688 245.595 63.9531 243.876 62.9219C242.157 61.8906 240.824 60.4479 239.876 58.5937C238.938 56.7396 238.47 54.5729 238.47 52.0937C238.47 49.6146 238.938 47.4427 239.876 45.5781C240.824 43.7135 242.157 42.2656 243.876 41.2344C245.595 40.2031 247.626 39.6875 249.97 39.6875C252.313 39.6875 254.345 40.2031 256.063 41.2344C257.782 42.2656 259.11 43.7135 260.048 45.5781C260.996 47.4427 261.47 49.6146 261.47 52.0937C261.47 54.5729 260.996 56.7396 260.048 58.5937C259.11 60.4479 257.782 61.8906 256.063 62.9219C254.345 63.9531 252.313 64.4688 249.97 64.4688ZM250.001 59.9375C251.272 59.9375 252.334 59.5885 253.188 58.8906C254.043 58.1823 254.678 57.2344 255.095 56.0469C255.522 54.8594 255.735 53.5365 255.735 52.0781C255.735 50.6094 255.522 49.2812 255.095 48.0937C254.678 46.8958 254.043 45.9427 253.188 45.2344C252.334 44.526 251.272 44.1719 250.001 44.1719C248.699 44.1719 247.616 44.526 246.751 45.2344C245.897 45.9427 245.256 46.8958 244.829 48.0937C244.412 49.2812 244.204 50.6094 244.204 52.0781C244.204 53.5365 244.412 54.8594 244.829 56.0469C245.256 57.2344 245.897 58.1823 246.751 58.8906C247.616 59.5885 248.699 59.9375 250.001 59.9375Z" fill="#22C55E"/>
</svg>
