<svg width="335" height="96" viewBox="0 0 335 96" fill="none" xmlns="http://www.w3.org/2000/svg">
<path d="M104.03 64H97.1852L105.216 48.0152L97.1852 32H104.03L108.608 41.2038L113.308 32H120L104.03 64Z" fill="#0F172A"/>
<path fill-rule="evenodd" clip-rule="evenodd" d="M83.6059 51.4438C87.727 50.301 90.7612 46.4914 90.7913 41.981V41.9048V41.8286C90.7461 36.3886 86.3684 32 80.9793 32H68.1482V37.76L72.9787 45.699H68.1633V64H74.2015V51.7943H76.7375L84.1598 64H91.2593L83.6059 51.4438ZM80.1038 45.7143H80.9944C83.0776 45.7143 84.7683 44.0076 84.7683 41.9048C84.7683 39.8019 83.0776 38.0952 80.9944 38.0952H75.4393L80.1038 45.7143Z" fill="#0F172A"/>
<path fill-rule="evenodd" clip-rule="evenodd" d="M48 32C39.1619 32 32 39.1619 32 48C32 56.8381 39.1619 64 48 64C56.8381 64 64 56.8381 64 48C64 39.1619 56.8381 32 48 32ZM38.0952 48C38.0952 53.4705 42.5295 57.9048 48 57.9048C53.4705 57.9048 57.9048 53.4705 57.9048 48C57.9048 42.5295 53.4705 38.0952 48 38.0952C42.5295 38.0952 38.0952 42.5295 38.0952 48Z" fill="#0F172A"/>
<path d="M141 64H136L152.122 32H157L141 64Z" fill="#0F172A"/>
<path d="M173.156 64V32H178.953V46.7031H179.344L191.828 32H198.906L186.531 46.3594L199.016 64H192.047L182.5 50.2812L178.953 54.4687V64H173.156ZM201.364 64V40H206.848V44H207.098C207.535 42.6146 208.285 41.5469 209.348 40.7969C210.421 40.0365 211.645 39.6562 213.02 39.6562C213.332 39.6562 213.681 39.6719 214.067 39.7031C214.463 39.724 214.791 39.7604 215.051 39.8125V45.0156C214.812 44.9323 214.431 44.8594 213.91 44.7969C213.4 44.724 212.905 44.6875 212.426 44.6875C211.395 44.6875 210.468 44.9115 209.645 45.3594C208.832 45.7969 208.192 46.4062 207.723 47.1875C207.254 47.9687 207.02 48.8698 207.02 49.8906V64H201.364ZM223.965 64.4844C222.445 64.4844 221.075 64.2135 219.856 63.6719C218.648 63.1198 217.689 62.3073 216.981 61.2344C216.283 60.1615 215.934 58.8385 215.934 57.2656C215.934 55.9115 216.184 54.7917 216.684 53.9062C217.184 53.0208 217.867 52.3125 218.731 51.7812C219.596 51.25 220.57 50.849 221.653 50.5781C222.747 50.2969 223.877 50.0937 225.044 49.9687C226.45 49.8229 227.59 49.6927 228.465 49.5781C229.34 49.4531 229.976 49.2656 230.372 49.0156C230.778 48.7552 230.981 48.3542 230.981 47.8125V47.7188C230.981 46.5417 230.632 45.6302 229.934 44.9844C229.236 44.3385 228.231 44.0156 226.919 44.0156C225.533 44.0156 224.434 44.3177 223.622 44.9219C222.82 45.526 222.278 46.2396 221.997 47.0625L216.715 46.3125C217.132 44.8542 217.82 43.6354 218.778 42.6562C219.736 41.6667 220.908 40.9271 222.294 40.4375C223.679 39.9375 225.21 39.6875 226.887 39.6875C228.044 39.6875 229.195 39.8229 230.34 40.0937C231.486 40.3646 232.533 40.8125 233.481 41.4375C234.429 42.0521 235.189 42.8906 235.762 43.9531C236.346 45.0156 236.637 46.3437 236.637 47.9375V64H231.2V60.7031H231.012C230.669 61.3698 230.184 61.9948 229.559 62.5781C228.945 63.151 228.169 63.6146 227.231 63.9687C226.304 64.3125 225.215 64.4844 223.965 64.4844ZM225.434 60.3281C226.57 60.3281 227.554 60.1042 228.387 59.6562C229.221 59.1979 229.861 58.5937 230.309 57.8437C230.768 57.0937 230.997 56.276 230.997 55.3906V52.5625C230.82 52.7083 230.518 52.8437 230.09 52.9687C229.674 53.0937 229.205 53.2031 228.684 53.2969C228.163 53.3906 227.648 53.474 227.137 53.5469C226.627 53.6198 226.184 53.6823 225.809 53.7344C224.965 53.849 224.21 54.0365 223.544 54.2969C222.877 54.5573 222.351 54.9219 221.965 55.3906C221.58 55.849 221.387 56.4427 221.387 57.1719C221.387 58.2135 221.768 59 222.528 59.5312C223.288 60.0625 224.257 60.3281 225.434 60.3281ZM252.989 40V44.375H239.192V40H252.989ZM242.599 34.25H248.255V56.7812C248.255 57.5417 248.369 58.125 248.599 58.5312C248.838 58.9271 249.151 59.1979 249.536 59.3437C249.922 59.4896 250.349 59.5625 250.817 59.5625C251.172 59.5625 251.494 59.5365 251.786 59.4844C252.088 59.4323 252.317 59.3854 252.474 59.3437L253.427 63.7656C253.125 63.8698 252.692 63.9844 252.13 64.1094C251.578 64.2344 250.901 64.3073 250.099 64.3281C248.682 64.3698 247.406 64.1562 246.27 63.6875C245.135 63.2083 244.234 62.4687 243.567 61.4687C242.911 60.4687 242.588 59.2187 242.599 57.7187V34.25ZM266.611 64.4688C264.267 64.4688 262.236 63.9531 260.517 62.9219C258.798 61.8906 257.465 60.4479 256.517 58.5937C255.579 56.7396 255.111 54.5729 255.111 52.0937C255.111 49.6146 255.579 47.4427 256.517 45.5781C257.465 43.7135 258.798 42.2656 260.517 41.2344C262.236 40.2031 264.267 39.6875 266.611 39.6875C268.954 39.6875 270.986 40.2031 272.704 41.2344C274.423 42.2656 275.751 43.7135 276.689 45.5781C277.637 47.4427 278.111 49.6146 278.111 52.0937C278.111 54.5729 277.637 56.7396 276.689 58.5937C275.751 60.4479 274.423 61.8906 272.704 62.9219C270.986 63.9531 268.954 64.4688 266.611 64.4688ZM266.642 59.9375C267.913 59.9375 268.975 59.5885 269.829 58.8906C270.684 58.1823 271.319 57.2344 271.736 56.0469C272.163 54.8594 272.376 53.5365 272.376 52.0781C272.376 50.6094 272.163 49.2812 271.736 48.0937C271.319 46.8958 270.684 45.9427 269.829 45.2344C268.975 44.526 267.913 44.1719 266.642 44.1719C265.34 44.1719 264.256 44.526 263.392 45.2344C262.538 45.9427 261.897 46.8958 261.47 48.0937C261.053 49.2812 260.845 50.6094 260.845 52.0781C260.845 53.5365 261.053 54.8594 261.47 56.0469C261.897 57.2344 262.538 58.1823 263.392 58.8906C264.256 59.5885 265.34 59.9375 266.642 59.9375ZM300.56 46.3438L295.404 46.9062C295.258 46.3854 295.003 45.8958 294.638 45.4375C294.284 44.9792 293.805 44.6094 293.201 44.3281C292.597 44.0469 291.857 43.9062 290.982 43.9062C289.805 43.9062 288.815 44.1615 288.013 44.6719C287.222 45.1823 286.831 45.8437 286.841 46.6562C286.831 47.3542 287.086 47.9219 287.607 48.3594C288.138 48.7969 289.013 49.1562 290.232 49.4375L294.326 50.3125C296.597 50.8021 298.284 51.5781 299.388 52.6406C300.503 53.7031 301.065 55.0937 301.076 56.8125C301.065 58.3229 300.623 59.6562 299.748 60.8125C298.883 61.9583 297.68 62.8542 296.138 63.5C294.597 64.1458 292.826 64.4688 290.826 64.4688C287.888 64.4688 285.524 63.8542 283.732 62.625C281.94 61.3854 280.873 59.6615 280.529 57.4531L286.045 56.9219C286.295 58.0052 286.826 58.8229 287.638 59.375C288.451 59.9271 289.508 60.2031 290.81 60.2031C292.154 60.2031 293.232 59.9271 294.045 59.375C294.867 58.8229 295.279 58.1406 295.279 57.3281C295.279 56.6406 295.013 56.0729 294.482 55.625C293.961 55.1771 293.149 54.8333 292.045 54.5937L287.951 53.7344C285.649 53.2552 283.946 52.4479 282.841 51.3125C281.737 50.1667 281.19 48.7187 281.201 46.9687C281.19 45.4896 281.591 44.2083 282.404 43.125C283.227 42.0312 284.367 41.1875 285.826 40.5937C287.295 39.9896 288.987 39.6875 290.904 39.6875C293.716 39.6875 295.93 40.2865 297.545 41.4844C299.17 42.6823 300.175 44.3021 300.56 46.3438Z" fill="#F97316"/>
</svg>
