<svg width="299" height="96" viewBox="0 0 299 96" fill="none" xmlns="http://www.w3.org/2000/svg">
<path d="M104.03 64H97.1852L105.216 48.0152L97.1852 32H104.03L108.608 41.2038L113.308 32H120L104.03 64Z" fill="#0F172A"/>
<path fill-rule="evenodd" clip-rule="evenodd" d="M83.6059 51.4438C87.727 50.301 90.7612 46.4914 90.7913 41.981V41.9048V41.8286C90.7461 36.3886 86.3684 32 80.9793 32H68.1482V37.76L72.9787 45.699H68.1633V64H74.2015V51.7943H76.7375L84.1598 64H91.2593L83.6059 51.4438ZM80.1038 45.7143H80.9944C83.0776 45.7143 84.7683 44.0076 84.7683 41.9048C84.7683 39.8019 83.0776 38.0952 80.9944 38.0952H75.4393L80.1038 45.7143Z" fill="#0F172A"/>
<path fill-rule="evenodd" clip-rule="evenodd" d="M48 32C39.1619 32 32 39.1619 32 48C32 56.8381 39.1619 64 48 64C56.8381 64 64 56.8381 64 48C64 39.1619 56.8381 32 48 32ZM38.0952 48C38.0952 53.4705 42.5295 57.9048 48 57.9048C53.4705 57.9048 57.9048 53.4705 57.9048 48C57.9048 42.5295 53.4705 38.0952 48 38.0952C42.5295 38.0952 38.0952 42.5295 38.0952 48Z" fill="#0F172A"/>
<path d="M141 64H136L152.122 32H157L141 64Z" fill="#0F172A"/>
<path d="M173.156 64V32H185.156C187.615 32 189.677 32.4583 191.344 33.375C193.021 34.2917 194.286 35.5521 195.141 37.1562C196.005 38.75 196.438 40.5625 196.438 42.5937C196.438 44.6458 196.005 46.4687 195.141 48.0625C194.276 49.6562 193 50.9115 191.312 51.8281C189.625 52.7344 187.547 53.1875 185.078 53.1875H177.125V48.4219H184.297C185.734 48.4219 186.911 48.1719 187.828 47.6719C188.745 47.1719 189.422 46.4844 189.859 45.6094C190.307 44.7344 190.531 43.7292 190.531 42.5937C190.531 41.4583 190.307 40.4583 189.859 39.5938C189.422 38.7292 188.74 38.0573 187.813 37.5781C186.896 37.0885 185.714 36.8438 184.266 36.8438H178.953V64H173.156ZM210.028 64.4688C207.684 64.4688 205.653 63.9531 203.934 62.9219C202.215 61.8906 200.882 60.4479 199.934 58.5937C198.996 56.7396 198.528 54.5729 198.528 52.0937C198.528 49.6146 198.996 47.4427 199.934 45.5781C200.882 43.7135 202.215 42.2656 203.934 41.2344C205.653 40.2031 207.684 39.6875 210.028 39.6875C212.371 39.6875 214.403 40.2031 216.121 41.2344C217.84 42.2656 219.168 43.7135 220.106 45.5781C221.054 47.4427 221.528 49.6146 221.528 52.0937C221.528 54.5729 221.054 56.7396 220.106 58.5937C219.168 60.4479 217.84 61.8906 216.121 62.9219C214.403 63.9531 212.371 64.4688 210.028 64.4688ZM210.059 59.9375C211.33 59.9375 212.392 59.5885 213.246 58.8906C214.101 58.1823 214.736 57.2344 215.153 56.0469C215.58 54.8594 215.793 53.5365 215.793 52.0781C215.793 50.6094 215.58 49.2812 215.153 48.0937C214.736 46.8958 214.101 45.9427 213.246 45.2344C212.392 44.526 211.33 44.1719 210.059 44.1719C208.757 44.1719 207.673 44.526 206.809 45.2344C205.955 45.9427 205.314 46.8958 204.887 48.0937C204.47 49.2812 204.262 50.6094 204.262 52.0781C204.262 53.5365 204.47 54.8594 204.887 56.0469C205.314 57.2344 205.955 58.1823 206.809 58.8906C207.673 59.5885 208.757 59.9375 210.059 59.9375ZM230.665 32V64H225.008V32H230.665ZM235.161 64V40H240.817V64H235.161ZM238.005 36.5938C237.109 36.5938 236.338 36.2969 235.692 35.7031C235.047 35.099 234.724 34.375 234.724 33.5312C234.724 32.6771 235.047 31.9531 235.692 31.3594C236.338 30.7552 237.109 30.4531 238.005 30.4531C238.911 30.4531 239.682 30.7552 240.317 31.3594C240.963 31.9531 241.286 32.6771 241.286 33.5312C241.286 34.375 240.963 35.099 240.317 35.7031C239.682 36.2969 238.911 36.5938 238.005 36.5938ZM264.283 46.3438L259.126 46.9062C258.98 46.3854 258.725 45.8958 258.361 45.4375C258.006 44.9792 257.527 44.6094 256.923 44.3281C256.319 44.0469 255.579 43.9062 254.704 43.9062C253.527 43.9062 252.538 44.1615 251.736 44.6719C250.944 45.1823 250.553 45.8437 250.564 46.6562C250.553 47.3542 250.809 47.9219 251.329 48.3594C251.861 48.7969 252.736 49.1562 253.954 49.4375L258.048 50.3125C260.319 50.8021 262.006 51.5781 263.111 52.6406C264.225 53.7031 264.788 55.0937 264.798 56.8125C264.788 58.3229 264.345 59.6562 263.47 60.8125C262.605 61.9583 261.402 62.8542 259.861 63.5C258.319 64.1458 256.548 64.4688 254.548 64.4688C251.611 64.4688 249.246 63.8542 247.454 62.625C245.663 61.3854 244.595 59.6615 244.251 57.4531L249.767 56.9219C250.017 58.0052 250.548 58.8229 251.361 59.375C252.173 59.9271 253.23 60.2031 254.533 60.2031C255.876 60.2031 256.954 59.9271 257.767 59.375C258.59 58.8229 259.001 58.1406 259.001 57.3281C259.001 56.6406 258.736 56.0729 258.204 55.625C257.684 55.1771 256.871 54.8333 255.767 54.5937L251.673 53.7344C249.371 53.2552 247.668 52.4479 246.564 51.3125C245.46 50.1667 244.913 48.7187 244.923 46.9687C244.913 45.4896 245.314 44.2083 246.126 43.125C246.949 42.0312 248.09 41.1875 249.548 40.5937C251.017 39.9896 252.71 39.6875 254.626 39.6875C257.439 39.6875 259.652 40.2865 261.267 41.4844C262.892 42.6823 263.897 44.3021 264.283 46.3438Z" fill="#FACC15"/>
</svg>
