<?xml version="1.0" encoding="UTF-8" standalone="no"?>
<!-- Created with Keyshape -->
<svg xmlns="http://www.w3.org/2000/svg" id="Layer_1" width="156" height="30" viewBox="0 0 156 30" enable-background="new 0 0 123 30" style="white-space: preserve-spaces;">
    <defs>
        <clipPath id="SVGID_12_">
            <rect id="SVGID_23_" width="847.8" height="506.7" transform="translate(-3.5,-5.7) translate(-558.1,-128.4)"/>
        </clipPath>
        <clipPath id="SVGID_10_">
            <path id="SVGID_21_" d="M8,10L8,21L17,15.6Z" transform="translate(12.5,15.5) translate(-12.5,-15.5)"/>
        </clipPath>
    </defs>
    <path fill="#000000" d="M156,27C156,28.657,154.296,30,152.195,30L3.80487,30C1.70332,30,0,28.657,0,27L0,3C0,1.343,1.70332,0,3.80487,0L152.195,0C154.296,0,156,1.343,156,3L156,27Z" transform="translate(61.5,15) translate(-61.5,-15)"/>
    <path fill="#FFFFFF" d="M23.463,16.375L23.463,19.951L22,19.951L22,11L24.528,11C25.682,11,26.538,11.218,27.093,11.65C27.648,12.082,27.925,12.736,27.925,13.608C27.925,14.722,27.346,15.516,26.187,15.99L28.715,19.951L27.05,19.951L24.908,16.375L23.463,16.375ZM23.463,15.163L24.48,15.163C25.162,15.163,25.655,15.037,25.96,14.784C26.267,14.531,26.419,14.155,26.419,13.658C26.419,13.151,26.255,12.788,25.924,12.568C25.593,12.347,25.096,12.237,24.431,12.237L23.463,12.237L23.463,15.163Z" transform="translate(22.3575,14.8755) translate(-25.3575,-15.4755)"/>
    <path fill="#FFFFFF" d="M34.836,19.771L34.633,18.883L34.561,18.883C34.36,19.196,34.076,19.444,33.707,19.623C33.337,19.803,32.917,19.893,32.442,19.893C31.622,19.893,31.01,19.689,30.606,19.281C30.202,18.873,30,18.255,30,17.427L30,13L31.449,13L31.449,17.176C31.449,17.695,31.556,18.081,31.768,18.341C31.98,18.6,32.313,18.731,32.766,18.731C33.37,18.731,33.813,18.549,34.098,18.188C34.381,17.827,34.522,17.223,34.522,16.374L34.522,13L35.967,13L35.967,19.771L34.836,19.771Z" transform="translate(29.9835,15.8465) translate(-32.9835,-16.4465)"/>
    <path fill="#FFFFFF" d="M43.957,20L42.512,20L42.512,15.837C42.512,15.315,42.407,14.925,42.197,14.668C41.987,14.41,41.654,14.282,41.197,14.282C40.589,14.282,40.143,14.462,39.862,14.821C39.58,15.179,39.439,15.781,39.439,16.627L39.439,20L38,20L38,13.229L39.127,13.229L39.328,14.117L39.402,14.117C39.605,13.796,39.895,13.547,40.27,13.371C40.646,13.195,41.062,13.107,41.519,13.107C43.144,13.107,43.957,13.933,43.957,15.586L43.957,20Z" transform="translate(37.9785,15.9535) translate(-40.9785,-16.5535)"/>
    <g transform="translate(9.5,15) translate(-12.5,-15.6)">
        <g clip-path="url(#SVGID_10_)" transform="translate(12.5,15.6) translate(-12.5,-15.6)">
            <rect fill="#FFFFFF" width="18" height="19.8" clip-path="url(#SVGID_12_)" transform="translate(12.5,15.6) translate(-9,-9.9)"/>
        </g>
    </g>
    <g fill="none" transform="translate(196.687,22.3917) scale(0.5,0.5) translate(-74.625,-14.8115)">
        <path d="M41.5,321.5C41.5,314.043,35.4571,308,28,308C20.5429,308,14.5,314.043,14.5,321.5C14.5,328.957,20.5429,335,28,335C35.4571,335,41.5,328.957,41.5,321.5Z" fill="#FF6B51" transform="translate(28,13.5) translate(-28,-321.5)"/>
        <path d="M2.26533e-07,321.5L6.43299,308L12,308L5.56701,321.5L12,335L6.43299,335L2.26533e-07,321.5Z" fill="#FF6B51" transform="translate(6,13.5) translate(-6,-321.5)"/>
        <path d="M48.499,332.25C48.301,332.25,48.229,332.151,48.283,331.953L54.628,313.566C54.682,313.422,54.79,313.35,54.952,313.35L56.977,313.35C57.175,313.35,57.247,313.449,57.193,313.647L50.848,332.034C50.794,332.178,50.686,332.25,50.524,332.25L48.499,332.25Z" fill="#ffffff" transform="translate(52.738,14.8) translate(-52.738,-322.8)"/>
        <path d="M72.9203,318.318C74.3963,318.318,75.5663,318.75,76.4303,319.614C77.2943,320.46,77.7263,321.612,77.7263,323.07L77.7263,331.98C77.7263,332.16,77.6363,332.25,77.4563,332.25L75.4043,332.25C75.2243,332.25,75.1343,332.16,75.1343,331.98L75.1343,323.583C75.1343,322.683,74.8733,321.954,74.3513,321.396C73.8293,320.838,73.1363,320.559,72.2723,320.559C71.4263,320.559,70.7333,320.838,70.1933,321.396C69.6533,321.954,69.3833,322.674,69.3833,323.556L69.3833,331.98C69.3833,332.16,69.2933,332.25,69.1133,332.25L67.0613,332.25C66.8813,332.25,66.7913,332.16,66.7913,331.98L66.7913,313.62C66.7913,313.44,66.8813,313.35,67.0613,313.35L69.1133,313.35C69.2933,313.35,69.3833,313.44,69.3833,313.62L69.3833,319.749C69.3833,319.785,69.3923,319.812,69.4103,319.83C69.4463,319.848,69.4733,319.839,69.4913,319.803C70.2653,318.813,71.4083,318.318,72.9203,318.318Z" fill="#ffffff" transform="translate(72.2588,14.8) translate(-72.2588,-322.8)"/>
        <path d="M80.901,337.623C80.775,337.623,80.712,337.533,80.712,337.353L80.712,335.76C80.712,335.58,80.802,335.49,80.982,335.49L81.036,335.49C81.756,335.472,82.323,335.382,82.737,335.22C83.151,335.058,83.493,334.752,83.763,334.302C84.033,333.87,84.294,333.213,84.546,332.331C84.564,332.313,84.564,332.286,84.546,332.25C84.546,332.196,84.546,332.169,84.546,332.169L80.037,318.804L80.01,318.696C80.01,318.57,80.091,318.507,80.253,318.507L82.44,318.507C82.602,318.507,82.71,318.579,82.764,318.723L85.815,328.902C85.833,328.938,85.86,328.956,85.896,328.956C85.932,328.956,85.959,328.938,85.977,328.902L89.001,318.723C89.055,318.579,89.163,318.507,89.325,318.507L91.458,318.507C91.656,318.507,91.728,318.606,91.674,318.804L86.76,333.195C86.346,334.437,85.932,335.355,85.518,335.949C85.104,336.561,84.564,336.993,83.898,337.245C83.232,337.497,82.296,337.623,81.09,337.623L80.901,337.623Z" fill="#ffffff" transform="translate(85.8507,20.065) translate(-85.8507,-328.065)"/>
        <path d="M102.322,313.62C102.322,313.44,102.412,313.35,102.592,313.35L104.644,313.35C104.824,313.35,104.914,313.44,104.914,313.62L104.914,331.98C104.914,332.16,104.824,332.25,104.644,332.25L102.592,332.25C102.412,332.25,102.322,332.16,102.322,331.98L102.322,331.089C102.322,331.053,102.304,331.026,102.268,331.008C102.25,330.99,102.223,330.999,102.187,331.035C101.791,331.485,101.323,331.836,100.783,332.088C100.243,332.34,99.6583,332.466,99.0284,332.466C97.7323,332.466,96.6523,332.151,95.7883,331.521C94.9423,330.873,94.3214,329.964,93.9254,328.794C93.5834,327.84,93.4123,326.688,93.4123,325.338C93.4123,324.078,93.5564,322.989,93.8443,322.071C94.2224,320.883,94.8434,319.956,95.7074,319.29C96.5714,318.624,97.6783,318.291,99.0284,318.291C99.6404,318.291,100.216,318.417,100.756,318.669C101.314,318.903,101.791,319.245,102.187,319.695C102.223,319.731,102.25,319.74,102.268,319.722C102.304,319.704,102.322,319.677,102.322,319.641L102.322,313.62ZM101.647,328.767C102.061,328.011,102.268,326.877,102.268,325.365C102.268,323.853,102.043,322.701,101.593,321.909C101.071,320.991,100.306,320.532,99.2984,320.532C98.2183,320.532,97.4174,320.964,96.8954,321.828C96.3194,322.728,96.0313,323.916,96.0313,325.392C96.0313,326.778,96.2563,327.894,96.7063,328.74C97.2283,329.73,98.0834,330.225,99.2714,330.225C100.315,330.225,101.107,329.739,101.647,328.767Z" fill="#ffffff" transform="translate(99.1631,14.908) translate(-99.1632,-322.908)"/>
        <path d="M114.985,318.372C115.561,318.372,116.083,318.489,116.551,318.723C116.677,318.777,116.722,318.885,116.686,319.047L116.254,321.072C116.236,321.234,116.128,321.288,115.93,321.234C115.624,321.108,115.264,321.045,114.85,321.045L114.472,321.072C113.626,321.108,112.924,321.405,112.366,321.963C111.826,322.503,111.556,323.214,111.556,324.096L111.556,331.98C111.556,332.16,111.466,332.25,111.286,332.25L109.234,332.25C109.054,332.25,108.964,332.16,108.964,331.98L108.964,318.777C108.964,318.597,109.054,318.507,109.234,318.507L111.286,318.507C111.466,318.507,111.556,318.597,111.556,318.777L111.556,320.208C111.556,320.262,111.565,320.298,111.583,320.316C111.619,320.316,111.646,320.298,111.664,320.262C112.474,319.002,113.581,318.372,114.985,318.372Z" fill="#ffffff" transform="translate(112.831,17.311) translate(-112.831,-325.311)"/>
        <path d="M124.15,318.291C125.248,318.291,126.202,318.489,127.012,318.885C127.84,319.263,128.47,319.803,128.902,320.505C129.352,321.189,129.577,321.972,129.577,322.854L129.577,331.98C129.577,332.16,129.487,332.25,129.307,332.25L127.255,332.25C127.075,332.25,126.985,332.16,126.985,331.98L126.985,331.008C126.985,330.918,126.94,330.9,126.85,330.954C126.382,331.44,125.806,331.818,125.122,332.088C124.456,332.34,123.709,332.466,122.881,332.466C121.549,332.466,120.442,332.133,119.56,331.467C118.696,330.783,118.264,329.757,118.264,328.389C118.264,326.985,118.75,325.887,119.722,325.095C120.712,324.285,122.089,323.88,123.853,323.88L126.877,323.88C126.949,323.88,126.985,323.844,126.985,323.772L126.985,323.043C126.985,322.251,126.751,321.639,126.283,321.207C125.833,320.757,125.14,320.532,124.204,320.532C123.448,320.532,122.827,320.685,122.341,320.991C121.873,321.279,121.585,321.675,121.477,322.179C121.423,322.359,121.315,322.44,121.153,322.422L118.966,322.125C118.786,322.089,118.705,322.017,118.723,321.909C118.867,320.847,119.434,319.983,120.424,319.317C121.414,318.633,122.656,318.291,124.15,318.291ZM123.448,330.279C124.402,330.279,125.23,330.027,125.932,329.523C126.634,329.019,126.985,328.38,126.985,327.606L126.985,326.013C126.985,325.941,126.949,325.905,126.877,325.905L124.339,325.905C123.277,325.905,122.431,326.112,121.801,326.526C121.171,326.94,120.856,327.516,120.856,328.254C120.856,328.92,121.09,329.424,121.558,329.766C122.044,330.108,122.674,330.279,123.448,330.279Z" fill="#ffffff" transform="translate(123.92,17.3785) translate(-123.921,-325.378)"/>
        <path d="M149.25,321.5L142.817,335L137.25,335L143.683,321.5L137.25,308L142.817,308L149.25,321.5Z" fill="#FF6B51" transform="translate(143.25,13.5) translate(-143.25,-321.5)"/>
    </g>
    <g fill="none" transform="translate(180.125,49.4472) scale(0.5,0.5) translate(-79.75,-13.5)">
        <path d="M41.5,244.5C41.5,237.043,35.4571,231,28,231C20.5428,231,14.5,237.043,14.5,244.5C14.5,251.957,20.5428,258,28,258C35.4571,258,41.5,251.957,41.5,244.5Z" fill="#FF871F" transform="translate(28,13.5) translate(-28,-244.5)"/>
        <path d="M2.26533e-07,244.5L6.43299,231L12,231L5.56701,244.5L12,258L6.43299,258L2.26533e-07,244.5Z" fill="#FF871F" transform="translate(6,13.5) translate(-6,-244.5)"/>
        <path d="M48.499,255.25C48.301,255.25,48.229,255.151,48.283,254.953L54.628,236.566C54.682,236.422,54.79,236.35,54.952,236.35L56.977,236.35C57.175,236.35,57.247,236.449,57.193,236.647L50.848,255.034C50.794,255.178,50.686,255.25,50.524,255.25L48.499,255.25Z" fill="#ffffff" transform="translate(52.738,14.8) translate(-52.738,-245.8)"/>
        <path d="M67.0613,255.25C66.8813,255.25,66.7913,255.16,66.7913,254.98L66.7913,236.62C66.7913,236.44,66.8813,236.35,67.0613,236.35L69.1133,236.35C69.2933,236.35,69.3833,236.44,69.3833,236.62L69.3833,247.015C69.3833,247.051,69.4013,247.078,69.4373,247.096C69.4733,247.114,69.5003,247.105,69.5183,247.069L74.5133,241.642C74.5853,241.552,74.6933,241.507,74.8373,241.507L77.2403,241.507C77.3483,241.507,77.4113,241.543,77.4293,241.615C77.4653,241.669,77.4473,241.741,77.3753,241.831L73.8923,245.854C73.8563,245.926,73.8473,245.98,73.8653,246.016L77.9963,254.926L78.0233,255.034C78.0233,255.178,77.9423,255.25,77.7803,255.25L75.6203,255.25C75.4763,255.25,75.3773,255.178,75.3233,255.034L72.1103,247.69C72.0743,247.6,72.0293,247.591,71.9753,247.663L69.4373,250.471C69.4013,250.543,69.3833,250.588,69.3833,250.606L69.3833,254.98C69.3833,255.16,69.2933,255.25,69.1133,255.25L67.0613,255.25Z" fill="#ffffff" transform="translate(72.4073,14.8) translate(-72.4073,-245.8)"/>
        <path d="M86.8787,241.372C87.4548,241.372,87.9767,241.489,88.4447,241.723C88.5707,241.777,88.6157,241.885,88.5797,242.047L88.1477,244.072C88.1297,244.234,88.0218,244.288,87.8237,244.234C87.5177,244.108,87.1577,244.045,86.7437,244.045L86.3657,244.072C85.5197,244.108,84.8177,244.405,84.2597,244.963C83.7197,245.503,83.4497,246.214,83.4497,247.096L83.4497,254.98C83.4497,255.16,83.3597,255.25,83.1797,255.25L81.1277,255.25C80.9478,255.25,80.8577,255.16,80.8577,254.98L80.8577,241.777C80.8577,241.597,80.9478,241.507,81.1277,241.507L83.1797,241.507C83.3597,241.507,83.4497,241.597,83.4497,241.777L83.4497,243.208C83.4497,243.262,83.4588,243.298,83.4767,243.316C83.5128,243.316,83.5397,243.298,83.5577,243.262C84.3677,242.002,85.4748,241.372,86.8787,241.372Z" fill="#ffffff" transform="translate(84.7247,17.311) translate(-84.7247,-248.311)"/>
        <path d="M96.0438,241.291C97.1418,241.291,98.0958,241.489,98.9058,241.885C99.7338,242.263,100.364,242.803,100.796,243.505C101.246,244.189,101.471,244.972,101.471,245.854L101.471,254.98C101.471,255.16,101.381,255.25,101.201,255.25L99.1488,255.25C98.9688,255.25,98.8788,255.16,98.8788,254.98L98.8788,254.008C98.8788,253.918,98.8338,253.9,98.7438,253.954C98.2758,254.44,97.6998,254.818,97.0158,255.088C96.3498,255.34,95.6028,255.466,94.7748,255.466C93.4428,255.466,92.3358,255.133,91.4538,254.467C90.5898,253.783,90.1578,252.757,90.1578,251.389C90.1578,249.985,90.6438,248.887,91.6158,248.095C92.6058,247.285,93.9828,246.88,95.7468,246.88L98.7708,246.88C98.8428,246.88,98.8788,246.844,98.8788,246.772L98.8788,246.043C98.8788,245.251,98.6448,244.639,98.1768,244.207C97.7268,243.757,97.0338,243.532,96.0978,243.532C95.3418,243.532,94.7208,243.685,94.2348,243.991C93.7668,244.279,93.4788,244.675,93.3708,245.179C93.3168,245.359,93.2088,245.44,93.0468,245.422L90.8598,245.125C90.6798,245.089,90.5988,245.017,90.6168,244.909C90.7608,243.847,91.3278,242.983,92.3178,242.317C93.3078,241.633,94.5498,241.291,96.0438,241.291ZM95.3418,253.279C96.2958,253.279,97.1238,253.027,97.8258,252.523C98.5278,252.019,98.8788,251.38,98.8788,250.606L98.8788,249.013C98.8788,248.941,98.8428,248.905,98.7708,248.905L96.2328,248.905C95.1708,248.905,94.3248,249.112,93.6948,249.526C93.0648,249.94,92.7498,250.516,92.7498,251.254C92.7498,251.92,92.9838,252.424,93.4518,252.766C93.9378,253.108,94.5678,253.279,95.3418,253.279Z" fill="#ffffff" transform="translate(95.8144,17.3785) translate(-95.8144,-248.379)"/>
        <path d="M111.812,243.37C111.812,243.55,111.722,243.64,111.542,243.64L108.626,243.64C108.554,243.64,108.518,243.676,108.518,243.748L108.518,250.903C108.518,251.659,108.689,252.208,109.031,252.55C109.373,252.874,109.904,253.036,110.624,253.036L111.407,253.036C111.587,253.036,111.677,253.126,111.677,253.306L111.677,254.98C111.677,255.16,111.587,255.25,111.407,255.25C110.831,255.286,110.417,255.304,110.165,255.304C108.797,255.304,107.762,255.061,107.06,254.575C106.376,254.071,106.034,253.153,106.034,251.821L106.034,243.748C106.034,243.676,105.998,243.64,105.926,243.64L104.279,243.64C104.099,243.64,104.009,243.55,104.009,243.37L104.009,241.777C104.009,241.597,104.099,241.507,104.279,241.507L105.926,241.507C105.998,241.507,106.034,241.471,106.034,241.399L106.034,238.213C106.034,238.033,106.124,237.943,106.304,237.943L108.248,237.943C108.428,237.943,108.518,238.033,108.518,238.213L108.518,241.399C108.518,241.471,108.554,241.507,108.626,241.507L111.542,241.507C111.722,241.507,111.812,241.597,111.812,241.777L111.812,243.37Z" fill="#ffffff" transform="translate(107.91,15.6235) translate(-107.91,-246.623)"/>
        <path d="M120.552,255.466C119.22,255.466,118.059,255.133,117.069,254.467C116.079,253.783,115.386,252.838,114.99,251.632C114.666,250.66,114.504,249.562,114.504,248.338C114.504,247.06,114.657,245.98,114.963,245.098C115.359,243.91,116.052,242.983,117.042,242.317C118.032,241.633,119.211,241.291,120.579,241.291C121.875,241.291,123,241.633,123.954,242.317C124.926,242.983,125.619,243.901,126.033,245.071C126.357,245.989,126.519,247.069,126.519,248.311C126.519,249.571,126.357,250.678,126.033,251.632C125.637,252.838,124.953,253.783,123.981,254.467C123.009,255.133,121.866,255.466,120.552,255.466ZM120.552,253.225C121.272,253.225,121.902,253.027,122.442,252.631C122.982,252.217,123.369,251.641,123.603,250.903C123.801,250.219,123.9,249.373,123.9,248.365C123.9,247.357,123.81,246.52,123.63,245.854C123.396,245.116,123.009,244.549,122.469,244.153C121.929,243.739,121.272,243.532,120.498,243.532C119.76,243.532,119.121,243.739,118.581,244.153C118.041,244.549,117.654,245.116,117.42,245.854C117.222,246.484,117.123,247.321,117.123,248.365C117.123,249.409,117.222,250.255,117.42,250.903C117.636,251.641,118.014,252.217,118.554,252.631C119.112,253.027,119.778,253.225,120.552,253.225Z" fill="#ffffff" transform="translate(120.511,17.3785) translate(-120.512,-248.379)"/>
        <path d="M134.995,255.412C133.915,255.412,132.961,255.25,132.133,254.926C131.323,254.602,130.693,254.161,130.243,253.603C129.793,253.027,129.568,252.397,129.568,251.713L129.568,251.416C129.568,251.236,129.658,251.146,129.838,251.146L131.782,251.146C131.962,251.146,132.052,251.236,132.052,251.416L132.052,251.551C132.052,252.055,132.322,252.496,132.862,252.874C133.42,253.252,134.122,253.441,134.968,253.441C135.778,253.441,136.435,253.27,136.939,252.928C137.443,252.568,137.695,252.118,137.695,251.578C137.695,251.056,137.461,250.669,136.993,250.417C136.525,250.147,135.769,249.868,134.725,249.58C133.699,249.292,132.835,249.004,132.133,248.716C131.449,248.41,130.864,247.987,130.378,247.447C129.91,246.889,129.676,246.178,129.676,245.314C129.676,244.108,130.144,243.154,131.08,242.452C132.034,241.732,133.294,241.372,134.86,241.372C135.904,241.372,136.822,241.543,137.614,241.885C138.424,242.209,139.045,242.668,139.477,243.262C139.909,243.856,140.125,244.522,140.125,245.26L140.125,245.341C140.125,245.521,140.035,245.611,139.855,245.611L137.965,245.611C137.785,245.611,137.695,245.521,137.695,245.341L137.695,245.26C137.695,244.738,137.434,244.306,136.912,243.964C136.408,243.604,135.715,243.424,134.833,243.424C134.041,243.424,133.393,243.577,132.889,243.883C132.403,244.189,132.16,244.603,132.16,245.125C132.16,245.647,132.394,246.043,132.862,246.313C133.348,246.583,134.122,246.871,135.184,247.177C136.228,247.465,137.092,247.753,137.776,248.041C138.478,248.311,139.072,248.725,139.558,249.283C140.044,249.823,140.287,250.534,140.287,251.416C140.287,252.64,139.801,253.612,138.829,254.332C137.875,255.052,136.597,255.412,134.995,255.412Z" fill="#ffffff" transform="translate(134.927,17.392) translate(-134.928,-248.392)"/>
        <path d="M159.5,244.5L153.067,258L147.5,258L153.933,244.5L147.5,231L153.067,231L159.5,244.5Z" fill="#FF871F" transform="translate(153.5,13.5) translate(-153.5,-244.5)"/>
    </g>
    <g fill="none" transform="translate(161,76.39) scale(0.5,0.5) translate(-67.875,-13.5)">
        <path d="M41.5,167.5C41.5,160.043,35.4571,154,28,154C20.5429,154,14.5,160.043,14.5,167.5C14.5,174.957,20.5429,181,28,181C35.4571,181,41.5,174.957,41.5,167.5Z" fill="#00E078" transform="translate(28,13.5) translate(-28,-167.5)"/>
        <path d="M4.04123e-06,167.5L6.43299,154L12,154L5.56701,167.5L12,181L6.43299,181L4.04123e-06,167.5Z" fill="#00E078" transform="translate(6,13.5) translate(-6,-167.5)"/>
        <path d="M48.499,178.25C48.301,178.25,48.229,178.151,48.283,177.953L54.628,159.566C54.682,159.422,54.79,159.35,54.952,159.35L56.977,159.35C57.175,159.35,57.247,159.449,57.193,159.647L50.848,178.034C50.794,178.178,50.686,178.25,50.524,178.25L48.499,178.25Z" fill="#ffffff" transform="translate(52.738,14.8) translate(-52.738,-168.8)"/>
        <path d="M67.0613,178.25C66.8813,178.25,66.7913,178.16,66.7913,177.98L66.7913,159.62C66.7913,159.44,66.8813,159.35,67.0613,159.35L69.1133,159.35C69.2933,159.35,69.3833,159.44,69.3833,159.62L69.3833,170.015C69.3833,170.051,69.4013,170.078,69.4373,170.096C69.4733,170.114,69.5003,170.105,69.5183,170.069L74.5133,164.642C74.5853,164.552,74.6933,164.507,74.8373,164.507L77.2403,164.507C77.3483,164.507,77.4113,164.543,77.4293,164.615C77.4653,164.669,77.4473,164.741,77.3753,164.831L73.8923,168.854C73.8563,168.926,73.8473,168.98,73.8653,169.016L77.9963,177.926L78.0233,178.034C78.0233,178.178,77.9423,178.25,77.7803,178.25L75.6203,178.25C75.4763,178.25,75.3773,178.178,75.3233,178.034L72.1103,170.69C72.0743,170.6,72.0293,170.591,71.9753,170.663L69.4373,173.471C69.4013,173.543,69.3833,173.588,69.3833,173.606L69.3833,177.98C69.3833,178.16,69.2933,178.25,69.1133,178.25L67.0613,178.25Z" fill="#ffffff" transform="translate(72.4073,14.8) translate(-72.4073,-168.8)"/>
        <path d="M91.1907,169.664C91.2627,170.402,91.2897,171.23,91.2717,172.148C91.2717,172.328,91.1817,172.418,91.0017,172.418L82.3887,172.418C82.3167,172.418,82.2807,172.454,82.2807,172.526C82.2807,173.138,82.3347,173.606,82.4427,173.93C82.6407,174.65,83.0367,175.217,83.6307,175.631C84.2427,176.027,85.0077,176.225,85.9257,176.225C87.2577,176.225,88.2837,175.676,89.0037,174.578C89.0937,174.398,89.2107,174.371,89.3547,174.497L90.8937,175.523C91.0197,175.631,91.0467,175.748,90.9747,175.874C90.4707,176.684,89.7507,177.323,88.8147,177.791C87.8967,178.259,86.8527,178.493,85.6827,178.493C84.3687,178.493,83.2617,178.205,82.3617,177.629C81.4617,177.053,80.7867,176.234,80.3367,175.172C79.9047,174.11,79.6887,172.823,79.6887,171.311C79.6887,169.997,79.7877,168.998,79.9857,168.314C80.3097,167.072,80.9577,166.091,81.9297,165.371C82.9017,164.651,84.0807,164.291,85.4667,164.291C87.2847,164.291,88.6437,164.75,89.5437,165.668C90.4437,166.568,90.9927,167.9,91.1907,169.664ZM85.4667,166.532C84.6927,166.532,84.0537,166.73,83.5497,167.126C83.0457,167.504,82.7037,168.017,82.5237,168.665C82.3977,169.061,82.3167,169.565,82.2807,170.177C82.2807,170.249,82.3167,170.285,82.3887,170.285L88.5717,170.285C88.6437,170.285,88.6797,170.249,88.6797,170.177C88.6437,169.583,88.5897,169.142,88.5177,168.854C88.3377,168.152,87.9777,167.594,87.4377,167.18C86.9157,166.748,86.2587,166.532,85.4667,166.532Z" fill="#ffffff" transform="translate(85.4829,17.392) translate(-85.4829,-171.392)"/>
        <path d="M101.358,166.37C101.358,166.55,101.268,166.64,101.088,166.64L98.1724,166.64C98.1004,166.64,98.0644,166.676,98.0644,166.748L98.0644,173.903C98.0644,174.659,98.2354,175.208,98.5774,175.55C98.9194,175.874,99.4504,176.036,100.17,176.036L100.953,176.036C101.133,176.036,101.223,176.126,101.223,176.306L101.223,177.98C101.223,178.16,101.133,178.25,100.953,178.25C100.377,178.286,99.9634,178.304,99.7114,178.304C98.3434,178.304,97.3084,178.061,96.6064,177.575C95.9224,177.071,95.5804,176.153,95.5804,174.821L95.5804,166.748C95.5804,166.676,95.5444,166.64,95.4724,166.64L93.8254,166.64C93.6454,166.64,93.5554,166.55,93.5554,166.37L93.5554,164.777C93.5554,164.597,93.6454,164.507,93.8254,164.507L95.4724,164.507C95.5444,164.507,95.5804,164.471,95.5804,164.399L95.5804,161.213C95.5804,161.033,95.6704,160.943,95.8504,160.943L97.7944,160.943C97.9744,160.943,98.0644,161.033,98.0644,161.213L98.0644,164.399C98.0644,164.471,98.1004,164.507,98.1724,164.507L101.088,164.507C101.268,164.507,101.358,164.597,101.358,164.777L101.358,166.37Z" fill="#ffffff" transform="translate(97.4567,15.6235) translate(-97.4567,-169.623)"/>
        <path d="M110.098,178.466C108.766,178.466,107.605,178.133,106.615,177.467C105.625,176.783,104.932,175.838,104.536,174.632C104.212,173.66,104.05,172.562,104.05,171.338C104.05,170.06,104.203,168.98,104.509,168.098C104.905,166.91,105.598,165.983,106.588,165.317C107.578,164.633,108.757,164.291,110.125,164.291C111.421,164.291,112.546,164.633,113.5,165.317C114.472,165.983,115.165,166.901,115.579,168.071C115.903,168.989,116.065,170.069,116.065,171.311C116.065,172.571,115.903,173.678,115.579,174.632C115.183,175.838,114.499,176.783,113.527,177.467C112.555,178.133,111.412,178.466,110.098,178.466ZM110.098,176.225C110.818,176.225,111.448,176.027,111.988,175.631C112.528,175.217,112.915,174.641,113.149,173.903C113.347,173.219,113.446,172.373,113.446,171.365C113.446,170.357,113.356,169.52,113.176,168.854C112.942,168.116,112.555,167.549,112.015,167.153C111.475,166.739,110.818,166.532,110.044,166.532C109.306,166.532,108.667,166.739,108.127,167.153C107.587,167.549,107.2,168.116,106.966,168.854C106.768,169.484,106.669,170.321,106.669,171.365C106.669,172.409,106.768,173.255,106.966,173.903C107.182,174.641,107.56,175.217,108.1,175.631C108.658,176.027,109.324,176.225,110.098,176.225Z" fill="#ffffff" transform="translate(110.057,17.3785) translate(-110.058,-171.379)"/>
        <path d="M135.75,167.5L129.317,181L123.75,181L130.183,167.5L123.75,154L129.317,154L135.75,167.5Z" fill="#00E078" transform="translate(129.75,13.5) translate(-129.75,-167.5)"/>
    </g>
    <g fill="none" transform="translate(99.3765,16.576) scale(0.5,0.5) translate(-110,-14.7033)">
        <path d="M41.5,13.5C41.5,6.04286,35.4571,-2.64142e-07,28,-5.90104e-07C20.5429,-9.16066e-07,14.5,6.04286,14.5,13.5C14.5,20.9571,20.5429,27,28,27C35.4571,27,41.5,20.9571,41.5,13.5Z" fill="#B93DEE" transform="translate(28,13.5) translate(-28,-13.5)"/>
        <path d="M4.04123e-06,13.5L6.43299,3.32801e-06L12,3.8147e-06L5.56701,13.5L12,27L6.43299,27L4.04123e-06,13.5Z" fill="#B93DEE" transform="translate(6,13.5) translate(-6,-13.5)"/>
        <path d="M48.499,24.2496C48.301,24.2496,48.229,24.1506,48.283,23.9526L54.628,5.56561C54.682,5.42161,54.79,5.34961,54.952,5.34961L56.977,5.34961C57.175,5.34961,57.247,5.44861,57.193,5.64661L50.848,24.0336C50.794,24.1776,50.686,24.2496,50.524,24.2496L48.499,24.2496Z" fill="#ffffff" transform="translate(48.2656,15.7716) translate(-52.738,-14.7996)"/>
        <path d="M72.4073,24.4656C71.0753,24.4656,69.9143,24.1326,68.9243,23.4666C67.9343,22.7826,67.2413,21.8376,66.8453,20.6316C66.5213,19.6596,66.3593,18.5616,66.3593,17.3376C66.3593,16.0596,66.5123,14.9796,66.8183,14.0976C67.2143,12.9096,67.9073,11.9826,68.8973,11.3166C69.8873,10.6326,71.0663,10.2906,72.4343,10.2906C73.7303,10.2906,74.8553,10.6326,75.8093,11.3166C76.7813,11.9826,77.4743,12.9006,77.8883,14.0706C78.2123,14.9886,78.3743,16.0686,78.3743,17.3106C78.3743,18.5706,78.2123,19.6776,77.8883,20.6316C77.4923,21.8376,76.8083,22.7826,75.8363,23.4666C74.8643,24.1326,73.7213,24.4656,72.4073,24.4656ZM72.4073,22.2246C73.1273,22.2246,73.7573,22.0266,74.2973,21.6306C74.8373,21.2166,75.2243,20.6406,75.4583,19.9026C75.6563,19.2186,75.7553,18.3726,75.7553,17.3646C75.7553,16.3566,75.6653,15.5196,75.4853,14.8536C75.2513,14.1156,74.8643,13.5486,74.3243,13.1526C73.7843,12.7386,73.1273,12.5316,72.3533,12.5316C71.6153,12.5316,70.9763,12.7386,70.4363,13.1526C69.8963,13.5486,69.5093,14.1156,69.2753,14.8536C69.0773,15.4836,68.9783,16.3206,68.9783,17.3646C68.9783,18.4086,69.0773,19.2546,69.2753,19.9026C69.4913,20.6406,69.8693,21.2166,70.4093,21.6306C70.9673,22.0266,71.6333,22.2246,72.4073,22.2246Z" fill="#ffffff" transform="translate(72.3668,17.3781) translate(-72.3668,-17.3781)"/>
        <path d="M87.0399,10.2906C88.1379,10.2906,89.0919,10.4886,89.9019,10.8846C90.7299,11.2626,91.3599,11.8026,91.7919,12.5046C92.2419,13.1886,92.4669,13.9716,92.4669,14.8536L92.4669,23.9796C92.4669,24.1596,92.3769,24.2496,92.1969,24.2496L90.1449,24.2496C89.9649,24.2496,89.8749,24.1596,89.8749,23.9796L89.8749,23.0076C89.8749,22.9176,89.8299,22.8996,89.7399,22.9536C89.2719,23.4396,88.6959,23.8176,88.0119,24.0876C87.3459,24.3396,86.5989,24.4656,85.7709,24.4656C84.4389,24.4656,83.3319,24.1326,82.4499,23.4666C81.5859,22.7826,81.1539,21.7566,81.1539,20.3886C81.1539,18.9846,81.6399,17.8866,82.6119,17.0946C83.6019,16.2846,84.9789,15.8796,86.7429,15.8796L89.7669,15.8796C89.8389,15.8796,89.8749,15.8436,89.8749,15.7716L89.8749,15.0426C89.8749,14.2506,89.6409,13.6386,89.1729,13.2066C88.7229,12.7566,88.0299,12.5316,87.0939,12.5316C86.3379,12.5316,85.7169,12.6846,85.2309,12.9906C84.7629,13.2786,84.4749,13.6746,84.3669,14.1786C84.3129,14.3586,84.2049,14.4396,84.0429,14.4216L81.8559,14.1246C81.6759,14.0886,81.5949,14.0166,81.6129,13.9086C81.7569,12.8466,82.3239,11.9826,83.3139,11.3166C84.3039,10.6326,85.5459,10.2906,87.0399,10.2906ZM86.3379,22.2786C87.2919,22.2786,88.1199,22.0266,88.8219,21.5226C89.5239,21.0186,89.8749,20.3796,89.8749,19.6056L89.8749,18.0126C89.8749,17.9406,89.8389,17.9046,89.7669,17.9046L87.2289,17.9046C86.1669,17.9046,85.3209,18.1116,84.6909,18.5256C84.0609,18.9396,83.7459,19.5156,83.7459,20.2536C83.7459,20.9196,83.9799,21.4236,84.4479,21.7656C84.9339,22.1076,85.5639,22.2786,86.3379,22.2786Z" fill="#ffffff" transform="translate(86.8104,17.3781) translate(-86.8104,-17.3781)"/>
        <path d="M102.809,12.3696C102.809,12.5496,102.719,12.6396,102.539,12.6396L99.6226,12.6396C99.5506,12.6396,99.5146,12.6756,99.5146,12.7476L99.5146,19.9026C99.5146,20.6586,99.6856,21.2076,100.028,21.5496C100.37,21.8736,100.901,22.0356,101.621,22.0356L102.404,22.0356C102.584,22.0356,102.674,22.1256,102.674,22.3056L102.674,23.9796C102.674,24.1596,102.584,24.2496,102.404,24.2496C101.828,24.2856,101.414,24.3036,101.162,24.3036C99.7936,24.3036,98.7586,24.0606,98.0566,23.5746C97.3726,23.0706,97.0306,22.1526,97.0306,20.8206L97.0306,12.7476C97.0306,12.6756,96.9946,12.6396,96.9226,12.6396L95.2756,12.6396C95.0956,12.6396,95.0056,12.5496,95.0056,12.3696L95.0056,10.7766C95.0056,10.5966,95.0956,10.5066,95.2756,10.5066L96.9226,10.5066C96.9946,10.5066,97.0306,10.4706,97.0306,10.3986L97.0306,7.21261C97.0306,7.03261,97.1206,6.94261,97.3006,6.94261L99.2446,6.94261C99.4246,6.94261,99.5146,7.03261,99.5146,7.21261L99.5146,10.3986C99.5146,10.4706,99.5506,10.5066,99.6226,10.5066L102.539,10.5066C102.719,10.5066,102.809,10.5966,102.809,10.7766L102.809,12.3696Z" fill="#ffffff" transform="translate(98.9073,15.6231) translate(-98.9073,-15.6231)"/>
        <path d="M112.377,10.3176C113.853,10.3176,115.023,10.7496,115.887,11.6136C116.751,12.4596,117.183,13.6116,117.183,15.0696L117.183,23.9796C117.183,24.1596,117.093,24.2496,116.913,24.2496L114.861,24.2496C114.681,24.2496,114.591,24.1596,114.591,23.9796L114.591,15.5826C114.591,14.6826,114.33,13.9536,113.808,13.3956C113.286,12.8376,112.593,12.5586,111.729,12.5586C110.883,12.5586,110.19,12.8376,109.65,13.3956C109.11,13.9536,108.84,14.6736,108.84,15.5556L108.84,23.9796C108.84,24.1596,108.75,24.2496,108.57,24.2496L106.518,24.2496C106.338,24.2496,106.248,24.1596,106.248,23.9796L106.248,5.61961C106.248,5.43961,106.338,5.34961,106.518,5.34961L108.57,5.34961C108.75,5.34961,108.84,5.43961,108.84,5.61961L108.84,11.7486C108.84,11.7846,108.849,11.8116,108.867,11.8296C108.903,11.8476,108.93,11.8386,108.948,11.8026C109.722,10.8126,110.865,10.3176,112.377,10.3176Z" fill="#ffffff" transform="translate(111.715,14.7996) translate(-111.715,-14.7996)"/>
        <path d="M121.376,24.2496C121.196,24.2496,121.106,24.1596,121.106,23.9796L121.106,5.61961C121.106,5.43961,121.196,5.34961,121.376,5.34961L123.428,5.34961C123.608,5.34961,123.698,5.43961,123.698,5.61961L123.698,16.0146C123.698,16.0506,123.716,16.0776,123.752,16.0956C123.788,16.1136,123.815,16.1046,123.833,16.0686L128.828,10.6416C128.9,10.5516,129.008,10.5066,129.152,10.5066L131.555,10.5066C131.663,10.5066,131.726,10.5426,131.744,10.6146C131.78,10.6686,131.762,10.7406,131.69,10.8306L128.207,14.8536C128.171,14.9256,128.162,14.9796,128.18,15.0156L132.311,23.9256L132.338,24.0336C132.338,24.1776,132.257,24.2496,132.095,24.2496L129.935,24.2496C129.791,24.2496,129.692,24.1776,129.638,24.0336L126.425,16.6896C126.389,16.5996,126.344,16.5906,126.29,16.6626L123.752,19.4706C123.716,19.5426,123.698,19.5876,123.698,19.6056L123.698,23.9796C123.698,24.1596,123.608,24.2496,123.428,24.2496L121.376,24.2496Z" fill="#ffffff" transform="translate(126.722,14.7996) translate(-126.722,-14.7996)"/>
        <path d="M145.505,15.6636C145.577,16.4016,145.604,17.2296,145.586,18.1476C145.586,18.3276,145.496,18.4176,145.316,18.4176L136.703,18.4176C136.631,18.4176,136.595,18.4536,136.595,18.5256C136.595,19.1376,136.649,19.6056,136.757,19.9296C136.955,20.6496,137.351,21.2166,137.945,21.6306C138.557,22.0266,139.322,22.2246,140.24,22.2246C141.572,22.2246,142.598,21.6756,143.318,20.5776C143.408,20.3976,143.525,20.3706,143.669,20.4966L145.208,21.5226C145.334,21.6306,145.361,21.7476,145.289,21.8736C144.785,22.6836,144.065,23.3226,143.129,23.7906C142.211,24.2586,141.167,24.4926,139.997,24.4926C138.683,24.4926,137.576,24.2046,136.676,23.6286C135.776,23.0526,135.101,22.2336,134.651,21.1716C134.219,20.1096,134.003,18.8226,134.003,17.3106C134.003,15.9966,134.102,14.9976,134.3,14.3136C134.624,13.0716,135.272,12.0906,136.244,11.3706C137.216,10.6506,138.395,10.2906,139.781,10.2906C141.599,10.2906,142.958,10.7496,143.858,11.6676C144.758,12.5676,145.307,13.8996,145.505,15.6636ZM139.781,12.5316C139.007,12.5316,138.368,12.7296,137.864,13.1256C137.36,13.5036,137.018,14.0166,136.838,14.6646C136.712,15.0606,136.631,15.5646,136.595,16.1766C136.595,16.2486,136.631,16.2846,136.703,16.2846L142.886,16.2846C142.958,16.2846,142.994,16.2486,142.994,16.1766C142.958,15.5826,142.904,15.1416,142.832,14.8536C142.652,14.1516,142.292,13.5936,141.752,13.1796C141.23,12.7476,140.573,12.5316,139.781,12.5316Z" fill="#ffffff" transform="translate(139.797,17.3916) translate(-139.797,-17.3916)"/>
        <path d="M160.231,15.6636C160.303,16.4016,160.33,17.2296,160.312,18.1476C160.312,18.3276,160.222,18.4176,160.042,18.4176L151.429,18.4176C151.357,18.4176,151.321,18.4536,151.321,18.5256C151.321,19.1376,151.375,19.6056,151.483,19.9296C151.681,20.6496,152.077,21.2166,152.671,21.6306C153.283,22.0266,154.048,22.2246,154.966,22.2246C156.298,22.2246,157.324,21.6756,158.044,20.5776C158.134,20.3976,158.251,20.3706,158.395,20.4966L159.934,21.5226C160.06,21.6306,160.087,21.7476,160.015,21.8736C159.511,22.6836,158.791,23.3226,157.855,23.7906C156.937,24.2586,155.893,24.4926,154.723,24.4926C153.409,24.4926,152.302,24.2046,151.402,23.6286C150.502,23.0526,149.827,22.2336,149.377,21.1716C148.945,20.1096,148.729,18.8226,148.729,17.3106C148.729,15.9966,148.828,14.9976,149.026,14.3136C149.35,13.0716,149.998,12.0906,150.97,11.3706C151.942,10.6506,153.121,10.2906,154.507,10.2906C156.325,10.2906,157.684,10.7496,158.584,11.6676C159.484,12.5676,160.033,13.8996,160.231,15.6636ZM154.507,12.5316C153.733,12.5316,153.094,12.7296,152.59,13.1256C152.086,13.5036,151.744,14.0166,151.564,14.6646C151.438,15.0606,151.357,15.5646,151.321,16.1766C151.321,16.2486,151.357,16.2846,151.429,16.2846L157.612,16.2846C157.684,16.2846,157.72,16.2486,157.72,16.1766C157.684,15.5826,157.63,15.1416,157.558,14.8536C157.378,14.1516,157.018,13.5936,156.478,13.1796C155.956,12.7476,155.299,12.5316,154.507,12.5316Z" fill="#ffffff" transform="translate(154.523,17.3916) translate(-154.523,-17.3916)"/>
        <path d="M174.983,13.9626C175.325,14.9346,175.496,16.0866,175.496,17.4186C175.496,18.6786,175.352,19.7676,175.064,20.6856C174.686,21.8916,174.065,22.8276,173.201,23.4936C172.337,24.1416,171.23,24.4656,169.88,24.4656C169.268,24.4656,168.683,24.3486,168.125,24.1146C167.585,23.8626,167.117,23.5116,166.721,23.0616C166.685,23.0256,166.649,23.0166,166.613,23.0346C166.595,23.0526,166.586,23.0796,166.586,23.1156L166.586,29.1366C166.586,29.3166,166.496,29.4066,166.316,29.4066L164.264,29.4066C164.084,29.4066,163.994,29.3166,163.994,29.1366L163.994,10.7766C163.994,10.5966,164.084,10.5066,164.264,10.5066L166.316,10.5066C166.496,10.5066,166.586,10.5966,166.586,10.7766L166.586,11.6676C166.586,11.7036,166.595,11.7306,166.613,11.7486C166.649,11.7666,166.685,11.7576,166.721,11.7216C167.117,11.2716,167.585,10.9206,168.125,10.6686C168.665,10.4166,169.25,10.2906,169.88,10.2906C171.176,10.2906,172.247,10.6146,173.093,11.2626C173.957,11.8926,174.587,12.7926,174.983,13.9626ZM172.013,20.9286C172.589,20.0646,172.877,18.8766,172.877,17.3646C172.877,15.9786,172.652,14.8626,172.202,14.0166C171.68,13.0266,170.825,12.5316,169.637,12.5316C168.593,12.5316,167.801,13.0176,167.261,13.9896C166.829,14.7636,166.613,15.8976,166.613,17.3916C166.613,18.9036,166.847,20.0556,167.315,20.8476C167.837,21.7656,168.602,22.2246,169.61,22.2246C170.69,22.2246,171.491,21.7926,172.013,20.9286Z" fill="#ffffff" transform="translate(169.745,19.8486) translate(-169.745,-19.8486)"/>
        <path d="M190.104,15.6636C190.176,16.4016,190.203,17.2296,190.185,18.1476C190.185,18.3276,190.095,18.4176,189.915,18.4176L181.302,18.4176C181.23,18.4176,181.194,18.4536,181.194,18.5256C181.194,19.1376,181.248,19.6056,181.356,19.9296C181.554,20.6496,181.95,21.2166,182.544,21.6306C183.156,22.0266,183.921,22.2246,184.839,22.2246C186.171,22.2246,187.197,21.6756,187.917,20.5776C188.007,20.3976,188.124,20.3706,188.268,20.4966L189.807,21.5226C189.933,21.6306,189.96,21.7476,189.888,21.8736C189.384,22.6836,188.664,23.3226,187.728,23.7906C186.81,24.2586,185.766,24.4926,184.596,24.4926C183.282,24.4926,182.175,24.2046,181.275,23.6286C180.375,23.0526,179.7,22.2336,179.25,21.1716C178.818,20.1096,178.602,18.8226,178.602,17.3106C178.602,15.9966,178.701,14.9976,178.899,14.3136C179.223,13.0716,179.871,12.0906,180.843,11.3706C181.815,10.6506,182.994,10.2906,184.38,10.2906C186.198,10.2906,187.557,10.7496,188.457,11.6676C189.357,12.5676,189.906,13.8996,190.104,15.6636ZM184.38,12.5316C183.606,12.5316,182.967,12.7296,182.463,13.1256C181.959,13.5036,181.617,14.0166,181.437,14.6646C181.311,15.0606,181.23,15.5646,181.194,16.1766C181.194,16.2486,181.23,16.2846,181.302,16.2846L187.485,16.2846C187.557,16.2846,187.593,16.2486,187.593,16.1766C187.557,15.5826,187.503,15.1416,187.431,14.8536C187.251,14.1516,186.891,13.5936,186.351,13.1796C185.829,12.7476,185.172,12.5316,184.38,12.5316Z" fill="#ffffff" transform="translate(184.396,17.3916) translate(-184.396,-17.3916)"/>
        <path d="M199.726,10.3716C200.302,10.3716,200.824,10.4886,201.292,10.7226C201.418,10.7766,201.463,10.8846,201.427,11.0466L200.995,13.0716C200.977,13.2336,200.869,13.2876,200.671,13.2336C200.365,13.1076,200.005,13.0446,199.591,13.0446L199.213,13.0716C198.367,13.1076,197.665,13.4046,197.107,13.9626C196.567,14.5026,196.297,15.2136,196.297,16.0956L196.297,23.9796C196.297,24.1596,196.207,24.2496,196.027,24.2496L193.975,24.2496C193.795,24.2496,193.705,24.1596,193.705,23.9796L193.705,10.7766C193.705,10.5966,193.795,10.5066,193.975,10.5066L196.027,10.5066C196.207,10.5066,196.297,10.5966,196.297,10.7766L196.297,12.2076C196.297,12.2616,196.306,12.2976,196.324,12.3156C196.36,12.3156,196.387,12.2976,196.405,12.2616C197.215,11.0016,198.322,10.3716,199.726,10.3716Z" fill="#ffffff" transform="translate(197.572,17.3106) translate(-197.572,-17.3106)"/>
        <path d="M220,13.5L213.567,27L208,27L214.433,13.5L208,0L213.567,0L220,13.5Z" fill="#B93DEE" transform="translate(214,13.5) translate(-214,-13.5)"/>
    </g>
</svg>
