<?xml version="1.0" encoding="UTF-8" standalone="no"?>
<!-- Created with Keyshape -->
<svg xmlns="http://www.w3.org/2000/svg" id="Layer_1" width="123px" height="30px" viewBox="0 0 123 30" enable-background="new 0 0 123 30" style="white-space: preserve-spaces;">
    <defs>
        <clipPath id="SVGID_12_">
            <rect id="SVGID_23_" width="847.8" height="506.7" transform="translate(-3.5,-5.7) translate(-558.1,-128.4)"/>
        </clipPath>
        <clipPath id="SVGID_10_">
            <path id="SVGID_21_" d="M8,10L8,21L17,15.6Z" transform="translate(12.5,15.5) translate(-12.5,-15.5)"/>
        </clipPath>
    </defs>
    <path fill="#000000" d="M123,27C123,28.657,121.657,30,120,30L3,30C1.343,30,0,28.657,0,27L0,3C0,1.343,1.343,0,3,0L120,0C121.657,0,123,1.343,123,3L123,27Z" transform="translate(61.5,15) translate(-61.5,-15)"/>
    <path fill="#FFFFFF" d="M23.463,16.375L23.463,19.951L22,19.951L22,11L24.528,11C25.682,11,26.538,11.218,27.093,11.65C27.648,12.082,27.925,12.736,27.925,13.608C27.925,14.722,27.346,15.516,26.187,15.99L28.715,19.951L27.05,19.951L24.908,16.375L23.463,16.375ZM23.463,15.163L24.48,15.163C25.162,15.163,25.655,15.037,25.96,14.784C26.267,14.531,26.419,14.155,26.419,13.658C26.419,13.151,26.255,12.788,25.924,12.568C25.593,12.347,25.096,12.237,24.431,12.237L23.463,12.237L23.463,15.163Z" transform="translate(22.3575,14.8755) translate(-25.3575,-15.4755)"/>
    <path fill="#FFFFFF" d="M34.836,19.771L34.633,18.883L34.561,18.883C34.36,19.196,34.076,19.444,33.707,19.623C33.337,19.803,32.917,19.893,32.442,19.893C31.622,19.893,31.01,19.689,30.606,19.281C30.202,18.873,30,18.255,30,17.427L30,13L31.449,13L31.449,17.176C31.449,17.695,31.556,18.081,31.768,18.341C31.98,18.6,32.313,18.731,32.766,18.731C33.37,18.731,33.813,18.549,34.098,18.188C34.381,17.827,34.522,17.223,34.522,16.374L34.522,13L35.967,13L35.967,19.771L34.836,19.771Z" transform="translate(29.9835,15.8465) translate(-32.9835,-16.4465)"/>
    <path fill="#FFFFFF" d="M43.957,20L42.512,20L42.512,15.837C42.512,15.315,42.407,14.925,42.197,14.668C41.987,14.41,41.654,14.282,41.197,14.282C40.589,14.282,40.143,14.462,39.862,14.821C39.58,15.179,39.439,15.781,39.439,16.627L39.439,20L38,20L38,13.229L39.127,13.229L39.328,14.117L39.402,14.117C39.605,13.796,39.895,13.547,40.27,13.371C40.646,13.195,41.062,13.107,41.519,13.107C43.144,13.107,43.957,13.933,43.957,15.586L43.957,20Z" transform="translate(37.9785,15.9535) translate(-40.9785,-16.5535)"/>
    <g transform="translate(9.5,15) translate(-12.5,-15.6)">
        <g clip-path="url(#SVGID_10_)" transform="translate(12.5,15.6) translate(-12.5,-15.6)">
            <rect fill="#FFFFFF" width="18" height="19.8" clip-path="url(#SVGID_12_)" transform="translate(12.5,15.6) translate(-9,-9.9)"/>
        </g>
    </g>
    <g fill="none" transform="translate(82.6875,15.39) scale(0.5,0.5) translate(-74.625,-14.8115)">
        <path d="M41.5,321.5C41.5,314.043,35.4571,308,28,308C20.5429,308,14.5,314.043,14.5,321.5C14.5,328.957,20.5429,335,28,335C35.4571,335,41.5,328.957,41.5,321.5Z" fill="#FF6B51" transform="translate(28,13.5) translate(-28,-321.5)"/>
        <path d="M2.26533e-07,321.5L6.43299,308L12,308L5.56701,321.5L12,335L6.43299,335L2.26533e-07,321.5Z" fill="#FF6B51" transform="translate(6,13.5) translate(-6,-321.5)"/>
        <path d="M48.499,332.25C48.301,332.25,48.229,332.151,48.283,331.953L54.628,313.566C54.682,313.422,54.79,313.35,54.952,313.35L56.977,313.35C57.175,313.35,57.247,313.449,57.193,313.647L50.848,332.034C50.794,332.178,50.686,332.25,50.524,332.25L48.499,332.25Z" fill="#ffffff" transform="translate(52.738,14.8) translate(-52.738,-322.8)"/>
        <path d="M72.9203,318.318C74.3963,318.318,75.5663,318.75,76.4303,319.614C77.2943,320.46,77.7263,321.612,77.7263,323.07L77.7263,331.98C77.7263,332.16,77.6363,332.25,77.4563,332.25L75.4043,332.25C75.2243,332.25,75.1343,332.16,75.1343,331.98L75.1343,323.583C75.1343,322.683,74.8733,321.954,74.3513,321.396C73.8293,320.838,73.1363,320.559,72.2723,320.559C71.4263,320.559,70.7333,320.838,70.1933,321.396C69.6533,321.954,69.3833,322.674,69.3833,323.556L69.3833,331.98C69.3833,332.16,69.2933,332.25,69.1133,332.25L67.0613,332.25C66.8813,332.25,66.7913,332.16,66.7913,331.98L66.7913,313.62C66.7913,313.44,66.8813,313.35,67.0613,313.35L69.1133,313.35C69.2933,313.35,69.3833,313.44,69.3833,313.62L69.3833,319.749C69.3833,319.785,69.3923,319.812,69.4103,319.83C69.4463,319.848,69.4733,319.839,69.4913,319.803C70.2653,318.813,71.4083,318.318,72.9203,318.318Z" fill="#ffffff" transform="translate(72.2588,14.8) translate(-72.2588,-322.8)"/>
        <path d="M80.901,337.623C80.775,337.623,80.712,337.533,80.712,337.353L80.712,335.76C80.712,335.58,80.802,335.49,80.982,335.49L81.036,335.49C81.756,335.472,82.323,335.382,82.737,335.22C83.151,335.058,83.493,334.752,83.763,334.302C84.033,333.87,84.294,333.213,84.546,332.331C84.564,332.313,84.564,332.286,84.546,332.25C84.546,332.196,84.546,332.169,84.546,332.169L80.037,318.804L80.01,318.696C80.01,318.57,80.091,318.507,80.253,318.507L82.44,318.507C82.602,318.507,82.71,318.579,82.764,318.723L85.815,328.902C85.833,328.938,85.86,328.956,85.896,328.956C85.932,328.956,85.959,328.938,85.977,328.902L89.001,318.723C89.055,318.579,89.163,318.507,89.325,318.507L91.458,318.507C91.656,318.507,91.728,318.606,91.674,318.804L86.76,333.195C86.346,334.437,85.932,335.355,85.518,335.949C85.104,336.561,84.564,336.993,83.898,337.245C83.232,337.497,82.296,337.623,81.09,337.623L80.901,337.623Z" fill="#ffffff" transform="translate(85.8507,20.065) translate(-85.8507,-328.065)"/>
        <path d="M102.322,313.62C102.322,313.44,102.412,313.35,102.592,313.35L104.644,313.35C104.824,313.35,104.914,313.44,104.914,313.62L104.914,331.98C104.914,332.16,104.824,332.25,104.644,332.25L102.592,332.25C102.412,332.25,102.322,332.16,102.322,331.98L102.322,331.089C102.322,331.053,102.304,331.026,102.268,331.008C102.25,330.99,102.223,330.999,102.187,331.035C101.791,331.485,101.323,331.836,100.783,332.088C100.243,332.34,99.6583,332.466,99.0284,332.466C97.7323,332.466,96.6523,332.151,95.7883,331.521C94.9423,330.873,94.3214,329.964,93.9254,328.794C93.5834,327.84,93.4123,326.688,93.4123,325.338C93.4123,324.078,93.5564,322.989,93.8443,322.071C94.2224,320.883,94.8434,319.956,95.7074,319.29C96.5714,318.624,97.6783,318.291,99.0284,318.291C99.6404,318.291,100.216,318.417,100.756,318.669C101.314,318.903,101.791,319.245,102.187,319.695C102.223,319.731,102.25,319.74,102.268,319.722C102.304,319.704,102.322,319.677,102.322,319.641L102.322,313.62ZM101.647,328.767C102.061,328.011,102.268,326.877,102.268,325.365C102.268,323.853,102.043,322.701,101.593,321.909C101.071,320.991,100.306,320.532,99.2984,320.532C98.2183,320.532,97.4174,320.964,96.8954,321.828C96.3194,322.728,96.0313,323.916,96.0313,325.392C96.0313,326.778,96.2563,327.894,96.7063,328.74C97.2283,329.73,98.0834,330.225,99.2714,330.225C100.315,330.225,101.107,329.739,101.647,328.767Z" fill="#ffffff" transform="translate(99.1631,14.908) translate(-99.1632,-322.908)"/>
        <path d="M114.985,318.372C115.561,318.372,116.083,318.489,116.551,318.723C116.677,318.777,116.722,318.885,116.686,319.047L116.254,321.072C116.236,321.234,116.128,321.288,115.93,321.234C115.624,321.108,115.264,321.045,114.85,321.045L114.472,321.072C113.626,321.108,112.924,321.405,112.366,321.963C111.826,322.503,111.556,323.214,111.556,324.096L111.556,331.98C111.556,332.16,111.466,332.25,111.286,332.25L109.234,332.25C109.054,332.25,108.964,332.16,108.964,331.98L108.964,318.777C108.964,318.597,109.054,318.507,109.234,318.507L111.286,318.507C111.466,318.507,111.556,318.597,111.556,318.777L111.556,320.208C111.556,320.262,111.565,320.298,111.583,320.316C111.619,320.316,111.646,320.298,111.664,320.262C112.474,319.002,113.581,318.372,114.985,318.372Z" fill="#ffffff" transform="translate(112.831,17.311) translate(-112.831,-325.311)"/>
        <path d="M124.15,318.291C125.248,318.291,126.202,318.489,127.012,318.885C127.84,319.263,128.47,319.803,128.902,320.505C129.352,321.189,129.577,321.972,129.577,322.854L129.577,331.98C129.577,332.16,129.487,332.25,129.307,332.25L127.255,332.25C127.075,332.25,126.985,332.16,126.985,331.98L126.985,331.008C126.985,330.918,126.94,330.9,126.85,330.954C126.382,331.44,125.806,331.818,125.122,332.088C124.456,332.34,123.709,332.466,122.881,332.466C121.549,332.466,120.442,332.133,119.56,331.467C118.696,330.783,118.264,329.757,118.264,328.389C118.264,326.985,118.75,325.887,119.722,325.095C120.712,324.285,122.089,323.88,123.853,323.88L126.877,323.88C126.949,323.88,126.985,323.844,126.985,323.772L126.985,323.043C126.985,322.251,126.751,321.639,126.283,321.207C125.833,320.757,125.14,320.532,124.204,320.532C123.448,320.532,122.827,320.685,122.341,320.991C121.873,321.279,121.585,321.675,121.477,322.179C121.423,322.359,121.315,322.44,121.153,322.422L118.966,322.125C118.786,322.089,118.705,322.017,118.723,321.909C118.867,320.847,119.434,319.983,120.424,319.317C121.414,318.633,122.656,318.291,124.15,318.291ZM123.448,330.279C124.402,330.279,125.23,330.027,125.932,329.523C126.634,329.019,126.985,328.38,126.985,327.606L126.985,326.013C126.985,325.941,126.949,325.905,126.877,325.905L124.339,325.905C123.277,325.905,122.431,326.112,121.801,326.526C121.171,326.94,120.856,327.516,120.856,328.254C120.856,328.92,121.09,329.424,121.558,329.766C122.044,330.108,122.674,330.279,123.448,330.279Z" fill="#ffffff" transform="translate(123.92,17.3785) translate(-123.921,-325.378)"/>
        <path d="M149.25,321.5L142.817,335L137.25,335L143.683,321.5L137.25,308L142.817,308L149.25,321.5Z" fill="#FF6B51" transform="translate(143.25,13.5) translate(-143.25,-321.5)"/>
    </g>
</svg>
