<svg width="88" height="32" viewBox="0 0 88 32" fill="none" xmlns="http://www.w3.org/2000/svg">
<path d="M72.0296 32H65.1852L73.216 16.0152L65.1852 0H72.0296L76.6078 9.20381L81.3076 0H88L72.0296 32Z" fill="white"/>
<path fill-rule="evenodd" clip-rule="evenodd" d="M51.6059 19.4438C55.727 18.301 58.7612 14.4914 58.7914 9.98095V9.90476V9.82857C58.7461 4.38857 54.3684 0 48.9793 0H36.1482V5.76L40.9787 13.699H36.1633V32H42.2015V19.7943H44.7375L52.1598 32H59.2593L51.6059 19.4438ZM48.1038 13.7143H48.9944C51.0776 13.7143 52.7683 12.0076 52.7683 9.90476C52.7683 7.8019 51.0776 6.09524 48.9944 6.09524H43.4393L48.1038 13.7143Z" fill="white"/>
<path fill-rule="evenodd" clip-rule="evenodd" d="M16 0C7.16191 0 0 7.1619 0 16C0 24.8381 7.16191 32 16 32C24.8381 32 32 24.8381 32 16C32 7.1619 24.8381 0 16 0ZM6.09524 16C6.09524 21.4705 10.5295 25.9048 16 25.9048C21.4705 25.9048 25.9048 21.4705 25.9048 16C25.9048 10.5295 21.4705 6.09524 16 6.09524C10.5295 6.09524 6.09524 10.5295 6.09524 16Z" fill="white"/>
</svg>
