<svg width="1673" height="1024" viewBox="0 0 1673 1024" fill="none" xmlns="http://www.w3.org/2000/svg">
<path d="M785.067 349.091C695.079 349.091 622.158 422.012 622.158 512C622.158 601.988 695.079 674.909 785.067 674.909C875.055 674.909 947.976 601.988 947.976 512C947.976 422.012 875.055 349.091 785.067 349.091ZM785.067 612.848C729.367 612.848 684.218 567.699 684.218 512C684.218 456.301 729.367 411.151 785.067 411.151C840.766 411.151 885.915 456.301 885.915 512C885.915 567.699 840.766 612.848 785.067 612.848Z" fill="white"/>
<path d="M1153.29 547.064C1195.62 535.428 1226.79 496.64 1227.1 450.715C1227.1 450.405 1227.1 450.25 1227.1 449.939C1227.1 449.629 1227.1 449.474 1227.1 449.164C1226.63 393.774 1181.67 349.091 1126.31 349.091H994.521V407.738L1044.14 488.572H994.677V674.909H1056.7V550.633H1082.75L1158.98 674.909H1231.9L1153.29 547.064ZM1126.47 488.727H1117.32L1069.41 411.151H1126.47C1147.87 411.151 1165.23 428.528 1165.23 449.939C1165.23 471.35 1147.87 488.727 1126.47 488.727Z" fill="white"/>
<path d="M1337.41 674.909H1267.59L1349.51 512.155L1267.59 349.091H1337.41L1384.11 442.802L1432.05 349.091H1500.32L1337.41 674.909Z" fill="white"/>
<path d="M332.024 349.091C242.036 349.091 169.115 422.012 169.115 512C169.115 601.988 242.036 674.909 332.024 674.909C422.012 674.909 494.933 601.988 494.933 512C494.933 422.012 422.012 349.091 332.024 349.091Z" fill="white"/>
<path d="M332.024 170.667L494.933 251.345L494.933 321.164L332.024 240.485L169.115 321.164L169.115 251.345L332.024 170.667Z" fill="white"/>
<path d="M332.025 853.333L169.115 772.654L169.115 702.836L332.025 783.515L494.934 702.836L494.934 772.654L332.025 853.333Z" fill="white"/>
</svg>
