<svg width="41" height="16" viewBox="0 0 41 16" fill="none" xmlns="http://www.w3.org/2000/svg">
<path d="M32.8635 15.2992H29.7407L33.4048 8.00617L29.7407 0.699219H32.8635L34.9523 4.89846L37.0966 0.699219H40.15L32.8635 15.2992Z" fill="#FFFFFF"/>
<path fill-rule="evenodd" clip-rule="evenodd" d="M23.5452 9.57046C25.4254 9.04903 26.8098 7.31093 26.8236 5.25303V5.21827V5.1835C26.8029 2.7015 24.8056 0.699219 22.3468 0.699219H16.4926V3.32722L18.6965 6.94941H16.4995V15.2992H19.2544V9.73036H20.4115L23.7979 15.2992H27.0371L23.5452 9.57046ZM21.9473 6.95636H22.3537C23.3041 6.95636 24.0755 6.17769 24.0755 5.21827C24.0755 4.25884 23.3041 3.48017 22.3537 3.48017H19.8192L21.9473 6.95636Z" fill="#FFFFFF"/>
<path fill-rule="evenodd" clip-rule="evenodd" d="M7.3 0.699219C3.26762 0.699219 0 3.96684 0 7.99922C0 12.0316 3.26762 15.2992 7.3 15.2992C11.3324 15.2992 14.6 12.0316 14.6 7.99922C14.6 3.96684 11.3324 0.699219 7.3 0.699219ZM2.78095 7.99922C2.78095 10.4951 4.8041 12.5183 7.3 12.5183C9.79591 12.5183 11.8191 10.4951 11.8191 7.99922C11.8191 5.50331 9.79591 3.48017 7.3 3.48017C4.8041 3.48017 2.78095 5.50331 2.78095 7.99922Z" fill="#FFFFFF"/>
</svg>
