<svg preserveAspectRatio="none" width="100%" height="100%" overflow="visible" style="display: block;" viewBox="0 0 44 16" fill="none" xmlns="http://www.w3.org/2000/svg">
<g id="Vector">
<path d="M36.0148 16H32.5926L36.608 8.00762L32.5926 0H36.0148L38.3039 4.6019L40.6538 0H44L36.0148 16Z" fill="var(--fill-0, #0F172A)"/>
<path fill-rule="evenodd" clip-rule="evenodd" d="M25.803 9.72191C27.8635 9.15048 29.3806 7.24571 29.3957 4.99048V4.95238V4.91428C29.373 2.19428 27.1842 0 24.4897 0H18.0741V2.88L20.4894 6.84952H18.0816V16H21.1007V9.89714H22.3687L26.0799 16H29.6297L25.803 9.72191ZM24.0519 6.85714H24.4972C25.5388 6.85714 26.3841 6.00381 26.3841 4.95238C26.3841 3.90095 25.5388 3.04762 24.4972 3.04762H21.7196L24.0519 6.85714Z" fill="var(--fill-0, #0F172A)"/>
<path fill-rule="evenodd" clip-rule="evenodd" d="M8 0C3.58096 0 0 3.58095 0 8C0 12.419 3.58096 16 8 16C12.4191 16 16 12.419 16 8C16 3.58095 12.4191 0 8 0ZM3.04762 8C3.04762 10.7352 5.26476 12.9524 8 12.9524C10.7352 12.9524 12.9524 10.7352 12.9524 8C12.9524 5.26476 10.7352 3.04762 8 3.04762C5.26476 3.04762 3.04762 5.26476 3.04762 8Z" fill="var(--fill-0, #0F172A)"/>
</g>
</svg>
